{"glyphs":{"0":{"ha":1056,"x_min":122,"x_max":933,"o":"m 122 6 l 122 993 l 933 993 l 933 104 l 831 104 l 831 6 l 122 6 m 333 196 l 722 196 l 722 800 l 333 800 l 333 196 z "},"1":{"ha":633,"x_min":103,"x_max":467,"o":"m 372 993 l 103 993 l 103 803 l 256 803 l 256 6 l 467 6 l 467 903 l 372 903 l 372 993 z "},"2":{"ha":1074,"x_min":128,"x_max":953,"o":"m 128 6 l 128 597 l 743 597 l 743 803 l 139 803 l 139 993 l 850 993 l 850 893 l 953 893 l 953 407 l 336 407 l 336 193 l 953 193 l 953 6 l 128 6 z "},"3":{"ha":1088,"x_min":128,"x_max":953,"o":"m 953 993 l 128 993 l 128 800 l 743 800 l 743 600 l 228 600 l 228 410 l 743 410 l 743 196 l 128 196 l 128 6 l 849 6 l 849 107 l 953 107 l 953 993 z "},"4":{"ha":1038,"x_min":97,"x_max":903,"o":"m 903 993 l 696 993 l 696 478 l 306 478 l 306 993 l 97 993 l 97 386 l 193 386 l 193 288 l 696 288 l 696 6 l 903 6 l 903 993 z "},"5":{"ha":1069,"x_min":125,"x_max":944,"o":"m 125 6 l 125 190 l 735 190 l 735 410 l 125 410 l 125 993 l 944 993 l 944 806 l 333 806 l 333 594 l 944 594 l 944 107 l 847 107 l 847 6 l 125 6 z "},"6":{"ha":1067,"x_min":124,"x_max":943,"o":"m 124 6 l 124 993 l 943 993 l 943 806 l 332 806 l 332 608 l 943 608 l 943 111 l 838 111 l 838 6 l 124 6 m 332 190 l 735 190 l 735 421 l 332 421 l 332 190 z "},"7":{"ha":1036,"x_min":128,"x_max":967,"o":"m 128 993 l 967 993 l 617 217 l 572 217 l 572 119 l 499 119 l 499 6 l 304 6 l 304 200 l 378 200 l 378 314 l 443 314 l 669 803 l 128 803 l 128 993 z "},"8":{"ha":1088,"x_min":131,"x_max":953,"o":"m 131 6 l 131 993 l 953 993 l 953 106 l 853 106 l 853 6 l 131 6 m 339 600 l 743 600 l 743 806 l 339 806 l 339 600 m 339 188 l 743 188 l 743 413 l 339 413 l 339 188 z "},"9":{"ha":1074,"x_min":125,"x_max":950,"o":"m 125 6 l 125 190 l 740 190 l 740 385 l 125 385 l 125 993 l 950 993 l 950 106 l 849 106 l 849 6 l 125 6 m 333 572 l 740 572 l 740 806 l 333 806 l 333 572 z "}," ":{"ha":694,"x_min":0,"x_max":0,"o":""},"A":{"ha":1090,"x_min":97,"x_max":993,"o":"m 993 6 l 789 6 l 721 347 l 363 347 l 299 6 l 97 6 l 290 1017 l 718 1017 l 718 911 l 811 911 l 993 6 m 453 828 l 399 540 l 683 540 l 626 828 l 453 828 z "},"B":{"ha":1118,"x_min":139,"x_max":993,"o":"m 857 1017 l 857 621 l 993 621 l 993 110 l 892 110 l 892 6 l 139 6 l 139 1017 l 857 1017 m 660 621 l 660 825 l 336 825 l 336 621 l 660 621 m 336 199 l 796 199 l 796 426 l 336 426 l 336 199 z "},"C":{"ha":1056,"x_min":139,"x_max":928,"o":"m 928 199 l 347 199 l 347 825 l 928 825 l 928 1017 l 139 1017 l 139 110 l 247 110 l 247 6 l 928 6 l 928 199 z "},"D":{"ha":1115,"x_min":139,"x_max":993,"o":"m 139 106 l 139 1017 l 800 1017 l 993 786 l 993 6 l 243 6 l 243 106 l 139 106 m 336 199 l 796 199 l 796 711 l 697 825 l 336 825 l 336 199 z "},"E":{"ha":1010,"x_min":125,"x_max":914,"o":"m 914 1017 l 914 825 l 333 825 l 333 613 l 840 613 l 840 421 l 333 421 l 333 199 l 914 199 l 914 6 l 229 6 l 229 113 l 125 113 l 125 1017 l 914 1017 z "},"F":{"ha":1018,"x_min":139,"x_max":928,"o":"m 928 1017 l 928 825 l 347 825 l 347 613 l 833 613 l 833 421 l 347 421 l 347 6 l 139 6 l 139 911 l 242 911 l 242 1017 l 928 1017 z "},"G":{"ha":1093,"x_min":139,"x_max":969,"o":"m 969 615 l 486 615 l 486 421 l 760 421 l 760 199 l 347 199 l 347 825 l 958 825 l 958 1017 l 139 1017 l 139 6 l 867 6 l 867 114 l 969 114 l 969 615 z "},"H":{"ha":1028,"x_min":125,"x_max":917,"o":"m 818 1017 l 818 904 l 917 904 l 917 6 l 708 6 l 708 447 l 331 447 l 331 6 l 125 6 l 125 1017 l 331 1017 l 331 643 l 708 643 l 708 1017 l 818 1017 z "},"I":{"ha":542,"x_min":167,"x_max":375,"o":"m 278 1017 l 167 1017 l 167 6 l 375 6 l 375 910 l 278 910 l 278 1017 z "},"J":{"ha":801,"x_min":46,"x_max":663,"o":"m 663 1017 l 453 1017 l 453 199 l 46 199 l 46 6 l 556 6 l 556 117 l 663 117 l 663 1017 z "},"K":{"ha":1047,"x_min":139,"x_max":926,"o":"m 792 349 l 792 197 l 926 197 l 926 1 l 731 1 l 731 153 l 596 153 l 596 303 l 469 303 l 469 435 l 350 435 l 350 6 l 139 6 l 139 1017 l 350 1017 l 350 626 l 469 626 l 469 688 l 600 688 l 600 846 l 704 846 l 704 1017 l 900 1017 l 900 821 l 796 821 l 796 650 l 665 650 l 665 349 l 792 349 z "},"L":{"ha":988,"x_min":139,"x_max":953,"o":"m 953 199 l 350 199 l 350 1017 l 139 1017 l 139 113 l 249 113 l 249 6 l 953 6 l 953 199 z "},"M":{"ha":1319,"x_min":139,"x_max":1181,"o":"m 697 458 l 996 1017 l 1181 1017 l 1181 6 l 982 6 l 982 657 l 763 242 l 763 153 l 583 153 l 583 279 l 536 279 l 536 414 l 469 414 l 469 551 l 408 551 l 408 699 l 336 699 l 336 6 l 139 6 l 139 1017 l 457 1017 l 457 878 l 508 878 l 508 731 l 588 731 l 588 593 l 649 593 l 649 458 l 697 458 z "},"N":{"ha":1132,"x_min":139,"x_max":993,"o":"m 793 192 l 793 1017 l 993 1017 l 993 6 l 688 6 l 688 164 l 571 164 l 571 335 l 511 335 l 511 506 l 433 506 l 433 668 l 375 668 l 375 831 l 342 831 l 342 6 l 139 6 l 139 1017 l 449 1017 l 449 854 l 561 854 l 561 692 l 619 692 l 619 521 l 697 521 l 697 350 l 757 350 l 757 192 l 793 192 z "},"O":{"ha":1110,"x_min":139,"x_max":985,"o":"m 139 1017 l 139 6 l 876 6 l 876 117 l 985 117 l 985 1017 l 139 1017 m 344 199 l 344 825 l 779 825 l 779 199 l 344 199 z "},"P":{"ha":1081,"x_min":139,"x_max":961,"o":"m 139 1017 l 961 1017 l 961 483 l 860 483 l 860 375 l 347 375 l 347 6 l 139 6 l 139 1017 m 347 569 l 751 569 l 751 825 l 347 825 l 347 569 z "},"Q":{"ha":1124,"x_min":139,"x_max":985,"o":"m 139 6 l 139 1017 l 985 1017 l 985 107 l 888 107 l 888 6 l 744 6 l 782 -118 l 564 -118 l 524 6 l 139 6 m 344 199 l 779 199 l 779 825 l 344 825 l 344 199 z "},"R":{"ha":1131,"x_min":125,"x_max":997,"o":"m 869 321 l 869 203 l 997 203 l 997 4 l 799 4 l 799 122 l 671 122 l 671 250 l 546 250 l 546 407 l 333 407 l 333 6 l 125 6 l 125 1017 l 960 1017 l 960 407 l 744 407 l 744 321 l 869 321 m 751 825 l 333 825 l 333 603 l 751 603 l 751 825 z "},"S":{"ha":1064,"x_min":125,"x_max":956,"o":"m 956 618 l 333 618 l 333 825 l 950 825 l 950 1017 l 125 1017 l 125 424 l 746 424 l 746 199 l 125 199 l 125 6 l 850 6 l 850 113 l 956 113 l 956 618 z "},"T":{"ha":985,"x_min":69,"x_max":915,"o":"m 69 825 l 69 1017 l 915 1017 l 915 913 l 819 913 l 819 825 l 593 825 l 593 6 l 386 6 l 386 825 l 69 825 z "},"U":{"ha":1104,"x_min":125,"x_max":979,"o":"m 979 1017 l 771 1017 l 771 199 l 333 199 l 333 1017 l 125 1017 l 125 6 l 871 6 l 871 117 l 979 117 l 979 1017 z "},"V":{"ha":1067,"x_min":121,"x_max":1017,"o":"m 519 235 l 794 1017 l 1017 1017 l 654 6 l 408 6 l 408 174 l 333 174 l 333 340 l 288 340 l 288 510 l 229 510 l 229 672 l 165 672 l 165 835 l 121 835 l 121 1021 l 307 1021 l 307 858 l 351 858 l 351 696 l 415 696 l 415 526 l 474 526 l 474 360 l 519 360 l 519 235 z "},"W":{"ha":1188,"x_min":125,"x_max":1067,"o":"m 868 199 l 868 1017 l 1067 1017 l 1067 114 l 963 114 l 963 6 l 125 6 l 125 1017 l 322 1017 l 322 199 l 496 199 l 496 1017 l 694 1017 l 694 199 l 868 199 z "},"X":{"ha":1074,"x_min":82,"x_max":1004,"o":"m 758 364 l 881 364 l 881 213 l 986 213 l 986 6 l 779 6 l 779 157 l 674 157 l 674 292 l 551 292 l 551 350 l 318 6 l 82 6 l 432 525 l 354 525 l 354 676 l 249 676 l 249 811 l 126 811 l 126 1018 l 333 1018 l 333 883 l 456 883 l 456 732 l 561 732 l 561 718 l 763 1017 l 1004 1017 l 653 499 l 758 499 l 758 364 z "},"Y":{"ha":1079,"x_min":79,"x_max":975,"o":"m 775 1017 l 975 1017 l 975 817 l 854 817 l 854 636 l 742 636 l 742 449 l 657 449 l 657 6 l 446 6 l 446 379 l 79 1017 l 326 1017 l 542 647 l 542 649 l 654 649 l 654 836 l 775 836 l 775 1017 z "},"Z":{"ha":1076,"x_min":146,"x_max":983,"o":"m 347 243 l 347 199 l 983 199 l 983 6 l 151 6 l 151 290 l 249 290 l 249 439 l 374 439 l 374 563 l 496 563 l 496 674 l 636 674 l 636 790 l 754 790 l 754 825 l 146 825 l 146 1017 l 950 1017 l 950 743 l 832 743 l 832 594 l 692 594 l 692 478 l 569 478 l 569 367 l 444 367 l 444 243 l 347 243 z "},"a":{"ha":890,"x_min":97,"x_max":786,"o":"m 193 549 l 193 743 l 786 743 l 786 111 l 683 111 l 683 6 l 97 6 l 97 472 l 578 472 l 578 549 l 193 549 m 304 276 l 304 199 l 578 199 l 578 276 l 304 276 z "},"b":{"ha":908,"x_min":125,"x_max":803,"o":"m 125 6 l 125 897 l 333 897 l 333 743 l 803 743 l 803 122 l 697 122 l 697 6 l 125 6 m 333 201 l 594 201 l 594 549 l 333 549 l 333 201 z "},"c":{"ha":911,"x_min":125,"x_max":817,"o":"m 817 201 l 325 201 l 325 549 l 817 549 l 817 743 l 125 743 l 125 101 l 219 101 l 219 6 l 817 6 l 817 201 z "},"d":{"ha":917,"x_min":125,"x_max":817,"o":"m 125 6 l 125 743 l 610 743 l 610 888 l 817 888 l 817 113 l 708 113 l 708 6 l 125 6 m 333 201 l 610 201 l 610 549 l 333 549 l 333 201 z "},"e":{"ha":942,"x_min":125,"x_max":840,"o":"m 125 100 l 125 743 l 840 743 l 840 293 l 333 293 l 333 201 l 840 201 l 840 6 l 222 6 l 222 100 l 125 100 m 333 481 l 635 481 l 635 553 l 333 553 l 333 481 z "},"f":{"ha":731,"x_min":69,"x_max":633,"o":"m 633 896 l 633 703 l 422 703 l 422 621 l 633 621 l 633 519 l 540 519 l 540 426 l 422 426 l 422 6 l 211 6 l 211 426 l 69 426 l 69 621 l 211 621 l 211 896 l 633 896 z "},"g":{"ha":938,"x_min":97,"x_max":813,"o":"m 813 738 l 97 738 l 97 179 l 607 179 l 607 46 l 97 46 l 97 -144 l 708 -144 l 708 -37 l 813 -37 l 813 738 m 306 375 l 306 543 l 607 543 l 607 375 l 306 375 z "},"h":{"ha":911,"x_min":125,"x_max":814,"o":"m 707 738 l 707 635 l 814 635 l 814 6 l 608 6 l 608 543 l 328 543 l 328 6 l 125 6 l 125 896 l 328 896 l 328 738 l 707 738 z "},"i":{"ha":535,"x_min":100,"x_max":410,"o":"m 410 1061 l 201 1061 l 201 851 l 410 851 l 410 1061 m 100 549 l 201 549 l 201 6 l 410 6 l 410 639 l 310 639 l 310 743 l 100 743 l 100 549 z "},"j":{"ha":597,"x_min":81,"x_max":421,"o":"m 211 851 l 211 1058 l 421 1058 l 421 851 l 211 851 m 154 111 l 211 111 l 211 743 l 421 743 l 421 26 l 350 26 l 350 -85 l 276 -85 l 276 -190 l 81 -190 l 81 6 l 154 6 l 154 111 z "},"k":{"ha":908,"x_min":125,"x_max":815,"o":"m 689 285 l 689 194 l 815 194 l 815 3 l 624 3 l 624 93 l 497 93 l 497 207 l 371 207 l 371 307 l 333 307 l 333 6 l 125 6 l 125 888 l 333 888 l 333 501 l 371 501 l 371 517 l 464 517 l 464 653 l 592 653 l 592 750 l 783 750 l 783 558 l 656 558 l 656 461 l 563 461 l 563 285 l 689 285 z "},"l":{"ha":493,"x_min":142,"x_max":347,"o":"m 254 919 l 142 919 l 142 6 l 347 6 l 347 822 l 254 822 l 254 919 z "},"m":{"ha":1164,"x_min":125,"x_max":1058,"o":"m 957 743 l 957 644 l 1058 644 l 1058 6 l 857 6 l 857 549 l 692 549 l 692 6 l 492 6 l 492 549 l 325 549 l 325 6 l 125 6 l 125 743 l 957 743 z "},"n":{"ha":911,"x_min":125,"x_max":803,"o":"m 701 743 l 125 743 l 125 6 l 325 6 l 325 549 l 603 549 l 603 6 l 803 6 l 803 644 l 701 644 l 701 743 z "},"o":{"ha":925,"x_min":125,"x_max":817,"o":"m 125 6 l 125 743 l 817 743 l 817 107 l 711 107 l 711 6 l 125 6 m 331 201 l 610 201 l 610 549 l 331 549 l 331 201 z "},"p":{"ha":950,"x_min":125,"x_max":840,"o":"m 125 743 l 840 743 l 840 113 l 733 113 l 733 6 l 333 6 l 333 -135 l 125 -135 l 125 743 m 333 201 l 635 201 l 635 549 l 333 549 l 333 201 z "},"q":{"ha":956,"x_min":125,"x_max":840,"o":"m 740 743 l 125 743 l 125 6 l 635 6 l 635 -135 l 840 -135 l 840 647 l 740 647 l 740 743 m 333 201 l 333 549 l 635 549 l 635 201 l 333 201 z "},"r":{"ha":681,"x_min":125,"x_max":635,"o":"m 222 743 l 222 650 l 125 650 l 125 6 l 333 6 l 333 549 l 635 549 l 635 743 l 222 743 z "},"s":{"ha":942,"x_min":125,"x_max":839,"o":"m 839 478 l 333 478 l 333 549 l 833 549 l 833 743 l 125 743 l 125 282 l 629 282 l 629 199 l 125 199 l 125 6 l 744 6 l 744 97 l 839 97 l 839 478 z "},"t":{"ha":683,"x_min":43,"x_max":610,"o":"m 610 743 l 610 549 l 350 549 l 350 201 l 606 201 l 606 6 l 233 6 l 233 93 l 144 93 l 144 549 l 43 549 l 43 743 l 144 743 l 144 897 l 350 897 l 350 743 l 610 743 z "},"u":{"ha":933,"x_min":125,"x_max":822,"o":"m 822 743 l 613 743 l 613 199 l 333 199 l 333 743 l 125 743 l 125 6 l 724 6 l 724 101 l 822 101 l 822 743 z "},"v":{"ha":919,"x_min":83,"x_max":836,"o":"m 440 197 l 618 743 l 836 743 l 590 6 l 303 6 l 303 144 l 250 144 l 250 299 l 200 299 l 200 421 l 132 421 l 132 554 l 83 554 l 83 744 l 274 744 l 274 611 l 322 611 l 322 489 l 390 489 l 390 335 l 440 335 l 440 197 z "},"w":{"ha":1107,"x_min":125,"x_max":1010,"o":"m 808 201 l 808 743 l 1010 743 l 1010 100 l 914 100 l 914 6 l 125 6 l 125 743 l 325 743 l 325 201 l 467 201 l 467 743 l 667 743 l 667 201 l 808 201 z "},"x":{"ha":999,"x_min":83,"x_max":915,"o":"m 594 336 l 743 336 l 743 213 l 893 213 l 893 3 l 683 3 l 683 126 l 533 126 l 533 258 l 335 6 l 83 6 l 392 390 l 275 390 l 275 533 l 133 533 l 133 743 l 343 743 l 343 600 l 485 600 l 485 507 l 674 743 l 915 743 l 594 336 z "},"y":{"ha":963,"x_min":125,"x_max":846,"o":"m 638 379 l 638 726 l 846 726 l 846 -22 l 746 -22 l 746 -121 l 125 -121 l 125 74 l 638 74 l 638 188 l 125 188 l 125 726 l 333 726 l 333 379 l 638 379 z "},"z":{"ha":904,"x_min":97,"x_max":807,"o":"m 288 240 l 288 201 l 807 201 l 807 6 l 97 6 l 97 321 l 269 321 l 269 431 l 442 431 l 442 508 l 590 508 l 590 549 l 99 549 l 99 743 l 781 743 l 781 435 l 632 435 l 632 318 l 460 318 l 460 240 l 288 240 z "},"一":{"ha":1389,"x_min":100,"x_max":1283,"o":"m 1192 499 l 1192 590 l 1283 590 l 1283 688 l 100 688 l 100 499 l 1192 499 z "},"丁":{"ha":1389,"x_min":133,"x_max":1267,"o":"m 133 882 l 133 1075 l 1267 1075 l 1267 975 l 1163 975 l 1163 882 l 850 882 l 850 -18 l 761 -18 l 761 -106 l 379 -106 l 379 83 l 660 83 l 660 882 l 133 882 z "},"七":{"ha":1389,"x_min":111,"x_max":1288,"o":"m 1099 238 l 1288 238 l 1288 -36 l 1193 -36 l 1193 -119 l 454 -119 l 454 576 l 111 539 l 111 733 l 454 771 l 454 1122 l 646 1122 l 646 793 l 1281 863 l 1281 665 l 646 597 l 646 68 l 1099 68 l 1099 238 z "},"万":{"ha":1389,"x_min":71,"x_max":1285,"o":"m 1285 1096 l 1285 901 l 554 901 l 533 714 l 1236 714 l 1211 -17 l 1111 -17 l 1111 -119 l 682 -119 l 682 69 l 1017 69 l 1036 519 l 513 519 l 486 289 l 438 289 l 438 151 l 354 151 l 354 18 l 269 18 l 269 -119 l 71 -119 l 71 79 l 156 79 l 156 217 l 239 217 l 239 350 l 306 350 l 367 901 l 119 901 l 119 1096 l 1285 1096 z "},"丈":{"ha":1389,"x_min":107,"x_max":1282,"o":"m 1185 797 l 1008 797 l 1008 568 l 833 372 l 1265 97 l 1265 -137 l 667 239 l 667 169 l 556 169 l 556 86 l 429 86 l 429 -22 l 307 -22 l 307 -119 l 108 -119 l 108 79 l 231 79 l 231 176 l 357 176 l 357 285 l 468 285 l 468 364 l 263 493 l 263 733 l 660 482 l 817 663 l 817 797 l 107 797 l 107 992 l 817 992 l 817 1124 l 1008 1124 l 1008 992 l 1282 992 l 1282 894 l 1185 894 l 1185 797 z "},"三":{"ha":1389,"x_min":93,"x_max":1296,"o":"m 160 854 l 1229 854 l 1229 1046 l 160 1046 l 160 854 m 1090 415 l 1090 508 l 1186 508 l 1186 608 l 197 608 l 197 415 l 1090 415 m 93 -82 l 1296 -82 l 1296 107 l 93 107 l 93 -82 z "},"上":{"ha":1389,"x_min":104,"x_max":1285,"o":"m 742 586 l 742 76 l 1285 76 l 1285 -115 l 104 -115 l 104 76 l 550 76 l 550 1122 l 742 1122 l 742 775 l 1249 775 l 1249 681 l 1156 681 l 1156 586 l 742 586 z "},"下":{"ha":1389,"x_min":110,"x_max":1279,"o":"m 110 907 l 110 1100 l 1279 1100 l 1279 907 l 731 907 l 731 -119 l 540 -119 l 540 907 l 110 907 m 990 575 l 1107 575 l 1107 442 l 1219 442 l 1219 244 l 1021 244 l 1021 376 l 908 376 l 908 515 l 792 515 l 792 714 l 990 714 l 990 575 z "},"不":{"ha":1389,"x_min":115,"x_max":1272,"o":"m 1181 908 l 832 908 l 669 719 l 782 719 l 782 -119 l 590 -119 l 590 626 l 115 75 l 115 369 l 568 908 l 118 908 l 118 1099 l 1269 1099 l 1269 999 l 1181 999 l 1181 908 m 1149 544 l 1149 376 l 1272 376 l 1272 188 l 1082 188 l 1082 354 l 958 354 l 958 528 l 846 528 l 846 718 l 1036 718 l 1036 544 l 1149 544 z "},"与":{"ha":1389,"x_min":118,"x_max":1263,"o":"m 401 833 l 385 701 l 1263 701 l 1215 -26 l 1119 -26 l 1119 -119 l 711 -119 l 711 68 l 1029 68 l 1060 507 l 164 507 l 239 1111 l 435 1111 l 425 1026 l 1253 1026 l 1253 924 l 1154 924 l 1154 833 l 401 833 m 118 382 l 953 382 l 953 188 l 118 188 l 118 382 z "},"丐":{"ha":1389,"x_min":115,"x_max":1282,"o":"m 1282 1096 l 1282 904 l 788 904 l 788 804 l 1238 804 l 1238 708 l 1143 708 l 1143 614 l 788 614 l 788 493 l 1261 493 l 1224 -28 l 1124 -28 l 1124 -119 l 676 -119 l 676 68 l 1042 68 l 1061 304 l 167 304 l 183 818 l 374 818 l 360 493 l 597 493 l 597 904 l 115 904 l 115 1096 l 1282 1096 z "},"丑":{"ha":1389,"x_min":104,"x_max":1282,"o":"m 1235 990 l 1186 68 l 1282 68 l 1282 -119 l 104 -119 l 104 68 l 353 68 l 386 424 l 167 424 l 167 615 l 404 615 l 431 904 l 157 904 l 157 1096 l 1131 1096 l 1131 990 l 1235 990 m 1042 904 l 624 904 l 597 615 l 1026 615 l 1042 904 m 1015 424 l 581 424 l 547 68 l 997 68 l 1015 424 z "},"专":{"ha":1389,"x_min":110,"x_max":1285,"o":"m 1185 658 l 1185 564 l 443 564 l 407 474 l 1275 474 l 1275 339 l 1058 83 l 1160 83 l 1160 -115 l 499 -115 l 499 -68 l 314 -68 l 314 -12 l 138 -12 l 138 186 l 336 186 l 336 131 l 513 131 l 513 83 l 790 83 l 964 279 l 113 279 l 231 564 l 110 564 l 110 758 l 311 758 l 346 844 l 136 844 l 136 1038 l 426 1038 l 461 1122 l 671 1122 l 636 1038 l 1264 1038 l 1264 844 l 558 844 l 522 758 l 1285 758 l 1285 658 l 1185 658 z "},"且":{"ha":1389,"x_min":94,"x_max":1289,"o":"m 1240 1008 l 1240 75 l 1289 75 l 1289 -115 l 94 -115 l 94 75 l 154 75 l 154 1096 l 1142 1096 l 1142 1008 l 1240 1008 m 1049 758 l 1049 901 l 344 901 l 344 758 l 1049 758 m 344 411 l 1049 411 l 1049 565 l 344 565 l 344 411 m 1049 218 l 344 218 l 344 75 l 1049 75 l 1049 218 z "},"世":{"ha":1389,"x_min":89,"x_max":1300,"o":"m 1036 343 l 1036 240 l 517 240 l 517 683 l 351 683 l 351 86 l 1271 86 l 1271 -110 l 267 -110 l 267 -12 l 163 -12 l 163 683 l 89 683 l 89 878 l 163 878 l 163 1068 l 351 1068 l 351 878 l 517 878 l 517 1122 l 707 1122 l 707 878 l 947 878 l 947 1122 l 1136 1122 l 1136 878 l 1300 878 l 1300 683 l 1136 683 l 1136 343 l 1036 343 m 947 432 l 947 683 l 707 683 l 707 432 l 947 432 z "},"丘":{"ha":1389,"x_min":97,"x_max":1292,"o":"m 1132 496 l 1132 74 l 1292 74 l 1292 -115 l 97 -115 l 97 74 l 176 74 l 176 1025 l 690 1025 l 690 1118 l 1224 1118 l 1224 919 l 731 919 l 731 826 l 368 826 l 368 689 l 1279 689 l 1279 496 l 1132 496 m 940 496 l 368 496 l 368 74 l 940 74 l 940 496 z "},"丙":{"ha":1389,"x_min":113,"x_max":1282,"o":"m 1282 1100 l 1282 907 l 792 907 l 792 779 l 1264 779 l 1264 -15 l 1163 -15 l 1163 -122 l 915 -122 l 915 56 l 1072 56 l 1072 585 l 792 585 l 792 442 l 935 442 l 935 308 l 1036 308 l 1036 110 l 838 110 l 838 244 l 736 244 l 736 351 l 357 47 l 357 289 l 603 489 l 603 585 l 319 585 l 319 -122 l 126 -122 l 126 779 l 604 779 l 604 907 l 113 907 l 113 1100 l 1282 1100 z "},"业":{"ha":1389,"x_min":89,"x_max":1290,"o":"m 953 218 l 953 68 l 1290 68 l 1290 -119 l 94 -119 l 94 68 l 440 68 l 440 1122 l 632 1122 l 632 68 l 761 68 l 761 1122 l 953 1122 l 953 417 l 1051 417 l 1051 1019 l 1250 1019 l 1250 382 l 1128 382 l 1128 218 l 953 218 m 281 1015 l 399 206 l 203 206 l 89 1015 l 281 1015 z "},"丛":{"ha":1389,"x_min":83,"x_max":1288,"o":"m 499 492 l 415 492 l 282 131 l 83 131 l 342 847 l 342 1122 l 535 1122 l 535 818 l 488 689 l 608 689 l 608 550 l 696 550 l 696 411 l 885 832 l 885 1122 l 1075 1122 l 1075 800 l 1004 642 l 1104 642 l 1104 489 l 1192 489 l 1192 324 l 1279 324 l 1279 125 l 1082 125 l 1082 290 l 994 290 l 994 443 l 917 443 l 778 131 l 569 131 l 668 351 l 499 351 l 499 492 m 100 -115 l 100 74 l 1288 74 l 1288 -115 l 100 -115 z "},"东":{"ha":1389,"x_min":110,"x_max":1265,"o":"m 592 1117 l 567 1046 l 1265 1046 l 1265 857 l 500 857 l 406 590 l 629 590 l 629 746 l 822 746 l 822 590 l 1226 590 l 1226 403 l 822 403 l 822 -119 l 478 -119 l 478 67 l 629 67 l 629 403 l 119 403 l 286 857 l 125 857 l 125 1046 l 356 1046 l 382 1117 l 592 1117 m 1119 206 l 1194 206 l 1194 92 l 1264 92 l 1264 -89 l 1083 -89 l 1083 25 l 1014 25 l 1014 138 l 939 138 l 939 318 l 1119 318 l 1119 206 m 110 -89 l 274 317 l 478 317 l 318 -89 l 110 -89 z "},"丝":{"ha":1389,"x_min":74,"x_max":1286,"o":"m 146 517 l 249 517 l 249 604 l 74 604 l 292 1122 l 500 1122 l 358 799 l 472 799 l 472 925 l 661 925 l 661 735 l 544 735 l 544 608 l 439 608 l 439 449 l 335 449 l 335 376 l 661 376 l 661 188 l 146 188 l 146 517 m 728 511 l 860 511 l 860 604 l 682 604 l 900 1122 l 1108 1122 l 968 799 l 1089 799 l 1089 928 l 1279 928 l 1279 739 l 1140 739 l 1140 608 l 1050 608 l 1050 442 l 917 442 l 917 374 l 1269 374 l 1269 185 l 728 185 l 728 511 m 106 -87 l 106 103 l 1286 103 l 1286 -87 l 106 -87 z "},"丞":{"ha":1389,"x_min":83,"x_max":1324,"o":"m 593 310 l 593 861 l 713 913 l 154 913 l 154 1099 l 1217 1099 l 1217 953 l 779 747 l 779 718 l 935 718 l 935 608 l 1107 833 l 1324 833 l 1032 453 l 1133 453 l 1133 342 l 1264 342 l 1264 143 l 1065 143 l 1065 254 l 935 254 l 935 382 l 821 382 l 821 519 l 779 519 l 779 121 l 479 121 l 479 310 l 593 310 m 354 235 l 265 235 l 265 139 l 83 139 l 83 321 l 172 321 l 172 417 l 267 417 l 267 538 l 368 538 l 368 625 l 121 625 l 121 806 l 550 806 l 550 479 l 449 479 l 449 356 l 354 356 l 354 235 m 1279 -117 l 101 -117 l 101 69 l 1279 69 l 1279 -117 z "},"丢":{"ha":1389,"x_min":93,"x_max":1301,"o":"m 546 263 l 546 151 l 375 151 l 375 81 l 947 81 l 947 199 l 1144 199 l 1144 81 l 1261 81 l 1261 -118 l 176 -118 l 176 197 l 347 197 l 347 263 l 93 263 l 93 456 l 603 456 l 603 582 l 140 582 l 140 775 l 603 775 l 603 881 l 139 881 l 139 1079 l 685 1079 l 685 1119 l 1261 1119 l 1261 921 l 792 921 l 792 775 l 1258 775 l 1258 582 l 792 582 l 792 456 l 1301 456 l 1301 263 l 546 263 z "},"两":{"ha":1389,"x_min":113,"x_max":1272,"o":"m 1175 996 l 1175 907 l 979 907 l 979 771 l 1272 771 l 1272 -17 l 1169 -17 l 1169 -119 l 972 -119 l 972 69 l 1079 69 l 1079 576 l 979 576 l 979 344 l 1040 344 l 1040 164 l 858 164 l 858 199 l 718 44 l 718 319 l 788 403 l 788 576 l 597 576 l 597 344 l 679 344 l 679 164 l 497 164 l 497 217 l 344 35 l 344 325 l 404 403 l 404 576 l 304 576 l 304 -119 l 113 -119 l 113 771 l 404 771 l 404 907 l 113 907 l 113 1100 l 1272 1100 l 1272 996 l 1175 996 m 597 771 l 788 771 l 788 907 l 597 907 l 597 771 z "},"严":{"ha":1389,"x_min":61,"x_max":1276,"o":"m 954 907 l 954 576 l 1276 576 l 1276 389 l 344 389 l 344 -14 l 260 -14 l 260 -119 l 61 -119 l 61 79 l 151 79 l 151 576 l 457 576 l 457 907 l 138 907 l 138 1096 l 1275 1096 l 1275 907 l 954 907 m 763 907 l 647 907 l 647 576 l 763 576 l 763 907 m 311 864 l 403 618 l 199 618 l 114 864 l 311 864 m 999 618 l 999 796 l 1079 796 l 1079 864 l 1256 864 l 1256 688 l 1175 688 l 1175 618 l 999 618 z "},"丧":{"ha":1389,"x_min":100,"x_max":1283,"o":"m 786 872 l 786 558 l 1283 558 l 1283 367 l 399 367 l 399 125 l 658 186 l 658 -17 l 135 -131 l 135 64 l 206 81 l 206 367 l 100 367 l 100 558 l 597 558 l 597 872 l 150 872 l 150 1067 l 597 1067 l 597 1122 l 786 1122 l 786 1067 l 1243 1067 l 1243 872 l 786 872 m 208 661 l 208 836 l 383 836 l 383 778 l 525 778 l 525 603 l 350 603 l 350 661 l 208 661 m 1213 829 l 1035 603 l 803 603 l 982 829 l 1213 829 m 1007 79 l 1263 79 l 1263 -119 l 932 -119 l 932 1 l 808 1 l 808 129 l 703 129 l 703 328 l 901 328 l 901 200 l 986 200 l 986 317 l 1185 317 l 1185 118 l 1007 118 l 1007 79 z "},"个":{"ha":1389,"x_min":107,"x_max":1288,"o":"m 1147 907 l 1147 789 l 1288 789 l 1288 579 l 1078 579 l 1078 697 l 938 697 l 938 799 l 800 799 l 800 908 l 569 908 l 569 799 l 433 799 l 433 697 l 317 697 l 317 579 l 107 579 l 107 789 l 224 789 l 224 907 l 358 907 l 358 1008 l 483 1008 l 483 1118 l 881 1118 l 881 1008 l 1010 1008 l 1010 907 l 1147 907 m 788 -119 l 597 -119 l 597 743 l 788 743 l 788 -119 z "},"丫":{"ha":1389,"x_min":139,"x_max":1249,"o":"m 751 540 l 751 776 l 1249 1106 l 1249 878 l 751 540 m 667 826 l 667 593 l 433 593 l 433 721 l 281 721 l 281 861 l 139 861 l 139 1094 l 372 1094 l 372 954 l 514 954 l 514 826 l 667 826 m 786 -119 l 601 -119 l 601 517 l 786 517 l 786 -119 z "},"中":{"ha":1389,"x_min":126,"x_max":1263,"o":"m 792 1122 l 792 1003 l 1263 1003 l 1263 142 l 1165 142 l 1165 46 l 792 46 l 792 -119 l 601 -119 l 601 46 l 126 46 l 126 1003 l 601 1003 l 601 1122 l 792 1122 m 318 810 l 318 240 l 601 240 l 601 810 l 318 810 m 792 240 l 1071 240 l 1071 810 l 792 810 l 792 240 z "},"丰":{"ha":1389,"x_min":110,"x_max":1279,"o":"m 799 203 l 1279 203 l 1279 8 l 799 8 l 799 -107 l 613 -107 l 613 8 l 110 8 l 110 203 l 613 203 l 613 411 l 157 411 l 157 606 l 613 606 l 613 797 l 133 797 l 133 992 l 613 992 l 613 1096 l 799 1096 l 799 992 l 1261 992 l 1261 797 l 799 797 l 799 606 l 1239 606 l 1239 506 l 1138 506 l 1138 411 l 799 411 l 799 203 z "},"串":{"ha":1389,"x_min":115,"x_max":1275,"o":"m 788 564 l 788 489 l 1275 489 l 1275 67 l 1175 67 l 1175 -29 l 788 -29 l 788 -119 l 597 -119 l 597 -29 l 115 -29 l 115 489 l 597 489 l 597 564 l 163 564 l 163 1065 l 597 1065 l 597 1122 l 788 1122 l 788 1065 l 1132 1065 l 1132 963 l 1228 963 l 1228 564 l 788 564 m 353 872 l 353 758 l 597 758 l 597 872 l 353 872 m 1038 758 l 1038 872 l 788 872 l 788 758 l 1038 758 m 300 294 l 300 163 l 597 163 l 597 294 l 300 294 m 788 163 l 1088 163 l 1088 294 l 788 294 l 788 163 z "},"临":{"ha":1389,"x_min":104,"x_max":1279,"o":"m 875 1128 l 875 1057 l 1279 1057 l 1279 863 l 799 863 l 799 800 l 738 800 l 738 667 l 547 667 l 547 856 l 608 856 l 608 990 l 686 990 l 686 1128 l 875 1128 m 524 -119 l 342 -119 l 342 1121 l 524 1121 l 524 -119 m 281 -32 l 104 -32 l 104 1042 l 281 1042 l 281 -32 m 858 635 l 858 825 l 1047 825 l 1047 774 l 1208 774 l 1208 585 l 1018 585 l 1018 635 l 858 635 m 1185 -119 l 585 -119 l 585 547 l 1279 547 l 1279 -29 l 1185 -29 l 1185 -119 m 846 354 l 775 354 l 775 68 l 846 68 l 846 354 m 1018 68 l 1092 68 l 1092 354 l 1018 354 l 1018 68 z "},"丸":{"ha":1389,"x_min":97,"x_max":1317,"o":"m 1126 167 l 1317 167 l 1317 -22 l 1225 -22 l 1225 -119 l 886 -119 l 940 740 l 600 740 l 560 396 l 807 118 l 568 118 l 464 236 l 464 143 l 383 143 l 383 4 l 296 4 l 296 -119 l 97 -119 l 97 79 l 185 79 l 185 203 l 265 203 l 265 342 l 371 342 l 132 611 l 368 611 l 392 585 l 410 740 l 133 740 l 133 932 l 431 932 l 453 1122 l 643 1122 l 621 932 l 1139 932 l 1088 69 l 1126 69 l 1126 167 z "},"丹":{"ha":1389,"x_min":76,"x_max":1300,"o":"m 1186 474 l 1300 474 l 1300 281 l 1186 281 l 1186 -32 l 1094 -32 l 1094 -119 l 793 -119 l 793 69 l 996 69 l 996 281 l 397 281 l 397 97 l 338 97 l 338 -22 l 268 -22 l 268 -121 l 76 -121 l 76 71 l 144 71 l 144 171 l 206 171 l 206 281 l 89 281 l 89 474 l 206 474 l 206 1100 l 1186 1100 l 1186 474 m 397 914 l 397 474 l 996 474 l 996 914 l 397 914 m 731 856 l 731 728 l 854 728 l 854 536 l 663 536 l 663 664 l 539 664 l 539 856 l 731 856 z "},"为":{"ha":1389,"x_min":108,"x_max":1274,"o":"m 743 1128 l 704 863 l 1274 863 l 1236 -12 l 1133 -12 l 1133 -117 l 721 -117 l 721 71 l 1047 71 l 1074 675 l 676 675 l 607 204 l 517 204 l 517 90 l 408 90 l 408 -28 l 300 -28 l 300 -119 l 108 -119 l 108 72 l 217 72 l 217 164 l 324 164 l 324 282 l 429 282 l 486 675 l 114 675 l 114 863 l 513 863 l 551 1128 l 743 1128 m 403 1108 l 499 907 l 281 907 l 186 1108 l 403 1108 m 707 342 l 707 535 l 899 535 l 899 400 l 999 400 l 999 208 l 807 208 l 807 342 l 707 342 z "},"主":{"ha":1389,"x_min":110,"x_max":1276,"o":"m 803 379 l 803 71 l 1276 71 l 1276 -115 l 110 -115 l 110 71 l 613 71 l 613 379 l 161 379 l 161 569 l 613 569 l 613 829 l 128 829 l 128 1021 l 576 1021 l 550 1122 l 774 1122 l 800 1021 l 1261 1021 l 1261 829 l 803 829 l 803 569 l 1226 569 l 1226 474 l 1129 474 l 1129 379 l 803 379 z "},"丽":{"ha":1389,"x_min":110,"x_max":1279,"o":"m 110 917 l 110 1099 l 1279 1099 l 1279 917 l 110 917 m 117 844 l 572 844 l 572 750 l 668 750 l 668 -119 l 394 -119 l 394 58 l 493 58 l 493 663 l 293 663 l 293 533 l 438 533 l 438 378 l 468 378 l 468 210 l 318 210 l 318 367 l 293 367 l 293 -119 l 117 -119 l 117 844 m 893 -119 l 718 -119 l 718 844 l 1271 844 l 1271 -35 l 1182 -35 l 1182 -119 l 990 -119 l 990 58 l 1094 58 l 1094 663 l 893 663 l 893 533 l 1038 533 l 1038 378 l 1069 378 l 1069 210 l 919 210 l 919 367 l 893 367 l 893 -119 z "},"举":{"ha":1389,"x_min":93,"x_max":1321,"o":"m 1157 294 l 789 294 l 789 168 l 1267 168 l 1267 72 l 1182 72 l 1182 -11 l 789 -11 l 789 -119 l 597 -119 l 597 -11 l 115 -11 l 115 168 l 597 168 l 597 294 l 228 294 l 228 426 l 93 426 l 93 618 l 211 618 l 211 714 l 317 714 l 317 738 l 110 738 l 110 917 l 929 917 l 929 1063 l 1065 1063 l 1065 1132 l 1240 1132 l 1240 957 l 1104 957 l 1104 917 l 1283 917 l 1283 738 l 1119 738 l 1321 522 l 1065 522 l 854 738 l 508 738 l 508 621 l 403 621 l 403 522 l 285 522 l 285 474 l 597 474 l 597 639 l 789 639 l 789 474 l 1157 474 l 1157 294 m 357 1122 l 479 946 l 257 946 l 140 1122 l 357 1122 m 728 1122 l 842 946 l 621 946 l 508 1122 l 728 1122 z "},"乃":{"ha":1389,"x_min":99,"x_max":1275,"o":"m 1167 1085 l 1099 714 l 1275 714 l 1244 -14 l 1142 -14 l 1142 -119 l 738 -119 l 738 69 l 1056 69 l 1074 519 l 863 519 l 936 890 l 513 890 l 467 132 l 382 132 l 382 18 l 290 18 l 290 -119 l 99 -119 l 99 74 l 189 74 l 189 210 l 282 210 l 324 890 l 124 890 l 124 1085 l 1167 1085 z "},"久":{"ha":1389,"x_min":65,"x_max":1275,"o":"m 1125 231 l 1125 89 l 1275 89 l 1275 -121 l 1065 -121 l 1065 21 l 915 21 l 915 167 l 771 167 l 771 289 l 346 -121 l 65 -121 l 1000 789 l 1000 865 l 379 865 l 379 754 l 303 754 l 303 574 l 94 574 l 94 783 l 169 783 l 169 964 l 249 964 l 249 1146 l 458 1146 l 458 1060 l 1196 1060 l 1196 697 l 863 376 l 981 376 l 981 231 l 1125 231 z "},"么":{"ha":1389,"x_min":58,"x_max":1268,"o":"m 606 1108 l 847 1108 l 293 365 l 58 365 l 606 1108 m 1268 103 l 1268 -107 l 206 -107 l 206 269 l 379 269 l 379 388 l 524 388 l 524 551 l 667 551 l 667 714 l 814 714 l 814 856 l 1022 856 l 1022 646 l 875 646 l 875 504 l 732 504 l 732 343 l 588 343 l 588 178 l 414 178 l 414 103 l 1268 103 m 1160 169 l 950 169 l 950 378 l 1160 378 l 1160 169 z "},"义":{"ha":1389,"x_min":106,"x_max":1268,"o":"m 833 782 l 629 782 l 629 919 l 526 919 l 526 1125 l 732 1125 l 732 986 l 833 986 l 833 782 m 1089 207 l 1089 85 l 1268 85 l 1268 -119 l 1063 -119 l 1063 3 l 883 3 l 883 139 l 713 139 l 713 228 l 367 -119 l 106 -119 l 549 326 l 146 725 l 146 1075 l 338 1075 l 338 815 l 688 467 l 1054 835 l 1054 1078 l 1243 1078 l 1243 761 l 826 343 l 918 343 l 918 207 l 1089 207 z "},"之":{"ha":1389,"x_min":103,"x_max":1304,"o":"m 472 158 l 554 74 l 1304 74 l 1304 -115 l 454 -115 l 344 13 l 293 13 l 293 -115 l 103 -115 l 103 74 l 178 74 l 178 203 l 283 203 l 283 285 l 389 285 l 389 381 l 469 381 l 469 478 l 542 478 l 906 806 l 906 826 l 119 826 l 119 1021 l 594 1021 l 594 1128 l 785 1128 l 785 1021 l 1276 1021 l 1276 883 l 658 331 l 658 289 l 579 289 l 579 190 l 472 190 l 472 158 z "},"乌":{"ha":1389,"x_min":90,"x_max":1293,"o":"m 351 892 l 351 575 l 1293 575 l 1264 -22 l 1160 -22 l 1160 -121 l 594 -121 l 594 67 l 1075 67 l 1089 385 l 161 385 l 161 1076 l 490 1076 l 521 1138 l 742 1138 l 719 1076 l 1222 1076 l 1206 729 l 1103 729 l 1103 629 l 746 629 l 746 806 l 1019 806 l 1022 892 l 351 892 m 90 315 l 1039 315 l 1039 131 l 90 131 l 90 315 z "},"乍":{"ha":1389,"x_min":101,"x_max":1288,"o":"m 1288 999 l 1288 804 l 728 804 l 728 654 l 1231 654 l 1231 553 l 1129 553 l 1129 463 l 728 463 l 728 314 l 1231 314 l 1231 121 l 728 121 l 728 -119 l 539 -119 l 539 804 l 375 804 l 375 650 l 306 650 l 306 504 l 101 504 l 101 707 l 172 707 l 172 853 l 244 853 l 244 1008 l 322 1008 l 322 1124 l 525 1124 l 525 999 l 1288 999 z "},"乎":{"ha":1389,"x_min":110,"x_max":1279,"o":"m 808 479 l 1279 479 l 1279 286 l 808 286 l 808 -22 l 711 -22 l 711 -119 l 336 -119 l 336 68 l 615 68 l 615 286 l 110 286 l 110 479 l 615 479 l 615 894 l 135 869 l 135 1063 l 1249 1119 l 1249 926 l 808 904 l 808 479 m 1126 525 l 921 525 l 1069 844 l 1276 844 l 1126 525 m 174 626 l 174 831 l 378 831 l 378 725 l 497 725 l 497 522 l 293 522 l 293 626 l 174 626 z "},"乏":{"ha":1389,"x_min":104,"x_max":1282,"o":"m 129 850 l 129 1054 l 661 1054 l 661 1104 l 1246 1104 l 1246 901 l 713 901 l 713 850 l 129 850 m 542 132 l 608 83 l 1282 83 l 1282 -107 l 536 -107 l 410 -12 l 293 -12 l 293 -115 l 104 -115 l 104 75 l 246 75 l 246 176 l 351 176 l 351 267 l 485 267 l 485 358 l 574 358 l 861 531 l 126 531 l 126 724 l 592 724 l 592 828 l 794 828 l 794 724 l 1251 724 l 1251 579 l 674 211 l 674 169 l 542 169 l 542 132 z "},"乐":{"ha":1389,"x_min":110,"x_max":1285,"o":"m 1276 571 l 1276 376 l 831 376 l 831 -18 l 728 -18 l 728 -119 l 454 -119 l 454 68 l 638 68 l 638 376 l 131 376 l 171 1051 l 1244 1108 l 1244 915 l 350 869 l 336 571 l 638 571 l 638 833 l 831 833 l 831 571 l 1276 571 m 110 -97 l 282 310 l 481 310 l 313 -97 l 110 -97 m 1213 203 l 1213 85 l 1285 85 l 1285 -100 l 1100 -100 l 1100 18 l 1026 18 l 1026 122 l 947 122 l 947 308 l 1132 308 l 1132 203 l 1213 203 z "},"乒":{"ha":1389,"x_min":101,"x_max":1286,"o":"m 1160 575 l 1160 411 l 1286 411 l 1286 217 l 101 217 l 101 411 l 175 411 l 175 1083 l 700 1083 l 700 1132 l 1249 1132 l 1249 932 l 753 932 l 753 883 l 368 883 l 368 769 l 1271 769 l 1271 575 l 1160 575 m 968 575 l 368 575 l 368 411 l 968 411 l 968 575 m 132 71 l 285 71 l 285 176 l 474 176 l 474 -14 l 321 -14 l 321 -118 l 132 -118 l 132 71 z "},"乓":{"ha":1389,"x_min":103,"x_max":1286,"o":"m 1115 576 l 1115 411 l 1286 411 l 1286 218 l 103 218 l 103 411 l 176 411 l 176 1072 l 751 1072 l 751 1122 l 1240 1122 l 1240 933 l 821 933 l 821 883 l 368 883 l 368 771 l 1271 771 l 1271 576 l 1115 576 m 924 576 l 368 576 l 368 411 l 924 411 l 924 576 m 979 124 l 1129 124 l 1129 65 l 1271 65 l 1271 -139 l 1068 -139 l 1068 -81 l 926 -81 l 926 -22 l 776 -22 l 776 182 l 979 182 l 979 124 z "},"乔":{"ha":1389,"x_min":83,"x_max":1296,"o":"m 1296 565 l 1296 363 l 1004 363 l 1004 468 l 874 468 l 874 613 l 596 613 l 364 365 l 83 365 l 329 613 l 115 613 l 115 800 l 476 800 l 529 924 l 146 915 l 146 1108 l 1243 1131 l 1243 938 l 747 928 l 692 800 l 1279 800 l 1279 613 l 1078 613 l 1078 565 l 1296 565 m 142 83 l 254 83 l 254 308 l 447 308 l 447 -14 l 344 -14 l 344 -119 l 142 -119 l 142 83 m 1161 -119 l 969 -119 l 969 308 l 1161 308 l 1161 -119 z "},"乖":{"ha":1389,"x_min":89,"x_max":1310,"o":"m 1281 843 l 1281 650 l 793 650 l 793 -121 l 603 -121 l 603 650 l 111 650 l 111 843 l 603 843 l 603 892 l 150 892 l 150 1086 l 690 1086 l 690 1138 l 1244 1138 l 1244 943 l 793 943 l 793 843 l 1281 843 m 119 531 l 328 531 l 328 599 l 519 599 l 519 -26 l 328 -26 l 328 75 l 271 75 l 271 -8 l 89 -8 l 89 175 l 196 175 l 196 258 l 328 258 l 328 336 l 119 336 l 119 531 m 1111 165 l 1139 253 l 1310 253 l 1233 -26 l 856 -26 l 856 599 l 1049 599 l 1049 481 l 1108 481 l 1108 556 l 1286 556 l 1286 378 l 1179 378 l 1179 303 l 1049 303 l 1049 165 l 1111 165 z "},"乘":{"ha":1389,"x_min":107,"x_max":1276,"o":"m 942 143 l 1100 143 l 1100 51 l 1260 51 l 1260 -119 l 1090 -119 l 1090 -28 l 929 -28 l 929 75 l 786 75 l 786 -119 l 601 -119 l 601 69 l 115 -151 l 115 26 l 601 253 l 601 722 l 107 722 l 107 883 l 601 883 l 601 925 l 160 925 l 160 1096 l 658 1096 l 658 1139 l 1225 1139 l 1225 968 l 786 968 l 786 883 l 1272 883 l 1272 722 l 786 722 l 786 244 l 856 244 l 856 674 l 1049 674 l 1049 640 l 1103 640 l 1103 689 l 1253 689 l 1253 539 l 1147 539 l 1147 490 l 1049 490 l 1049 385 l 1119 385 l 1132 481 l 1276 481 l 1243 226 l 942 226 l 942 143 m 257 372 l 257 438 l 339 438 l 339 471 l 125 471 l 125 631 l 339 631 l 339 674 l 535 674 l 535 226 l 339 226 l 339 278 l 278 278 l 278 211 l 117 211 l 117 372 l 257 372 z "},"乙":{"ha":1389,"x_min":147,"x_max":1239,"o":"m 1050 272 l 1239 272 l 1239 -18 l 1140 -18 l 1140 -119 l 151 -119 l 151 69 l 211 69 l 211 219 l 342 219 l 342 338 l 467 338 l 467 468 l 528 468 l 893 896 l 147 896 l 147 1090 l 1156 1090 l 1156 888 l 683 340 l 683 251 l 557 251 l 557 122 l 428 122 l 428 69 l 1050 69 l 1050 272 z "},"九":{"ha":1389,"x_min":114,"x_max":1306,"o":"m 1117 168 l 1306 168 l 1306 -22 l 1225 -22 l 1225 -121 l 1035 -121 l 1035 -119 l 892 -119 l 928 753 l 588 753 l 536 149 l 446 149 l 446 3 l 318 3 l 318 -119 l 114 -119 l 114 83 l 243 83 l 243 206 l 353 206 l 400 753 l 131 753 l 131 946 l 415 946 l 431 1122 l 619 1122 l 604 946 l 1117 946 l 1079 68 l 1117 68 l 1117 168 z "},"乞":{"ha":1389,"x_min":126,"x_max":1278,"o":"m 1238 860 l 329 860 l 329 769 l 126 769 l 126 974 l 222 974 l 222 1122 l 426 1122 l 426 1054 l 1238 1054 l 1238 860 m 1088 167 l 1278 167 l 1278 -24 l 1192 -24 l 1192 -115 l 129 -115 l 129 74 l 200 74 l 200 217 l 346 217 l 346 293 l 481 293 l 481 369 l 547 369 l 835 536 l 146 536 l 146 731 l 1244 731 l 1244 599 l 671 225 l 671 179 l 536 179 l 536 103 l 390 103 l 390 74 l 1001 74 l 1001 75 l 1088 75 l 1088 167 z "},"也":{"ha":1389,"x_min":89,"x_max":1290,"o":"m 1101 157 l 1290 157 l 1290 -31 l 1203 -31 l 1203 -119 l 168 -119 l 168 682 l 89 668 l 89 865 l 168 881 l 168 1072 l 358 1072 l 358 915 l 597 960 l 597 1122 l 788 1122 l 788 994 l 1268 1083 l 1232 396 l 1129 396 l 1129 292 l 928 292 l 928 485 l 1047 485 l 1063 844 l 788 794 l 788 183 l 597 183 l 597 760 l 358 717 l 358 68 l 1101 68 l 1101 157 z "},"习":{"ha":1389,"x_min":146,"x_max":1265,"o":"m 146 907 l 146 1100 l 1265 1100 l 1265 -18 l 1161 -18 l 1161 -119 l 689 -119 l 689 75 l 1074 75 l 1074 907 l 146 907 m 199 603 l 199 824 l 419 824 l 419 743 l 581 743 l 581 678 l 742 678 l 742 457 l 521 457 l 521 522 l 360 522 l 360 603 l 199 603 m 1000 289 l 151 -112 l 151 124 l 1000 525 l 1000 289 z "},"乡":{"ha":1389,"x_min":121,"x_max":1285,"o":"m 1082 653 l 1285 653 l 1285 449 l 1235 449 l 1235 260 l 1150 260 l 1150 119 l 1031 119 l 1031 -7 l 121 -122 l 121 64 l 947 167 l 947 268 l 121 268 l 121 419 l 553 672 l 135 672 l 135 865 l 210 865 l 210 1003 l 311 1003 l 311 1122 l 515 1122 l 515 918 l 413 918 l 413 865 l 883 865 l 1246 1078 l 1246 853 l 575 463 l 1082 463 l 1082 653 z "},"书":{"ha":1389,"x_min":96,"x_max":1297,"o":"m 1297 986 l 1297 817 l 1128 817 l 1128 933 l 1072 933 l 1057 582 l 1244 582 l 1211 25 l 1108 25 l 1108 -78 l 814 -78 l 814 113 l 1021 113 l 1038 388 l 606 388 l 606 -119 l 413 -119 l 413 388 l 96 388 l 96 582 l 413 582 l 413 810 l 154 810 l 154 1003 l 413 1003 l 413 1122 l 606 1122 l 606 1003 l 1061 1003 l 1061 1103 l 1232 1103 l 1232 986 l 1297 986 m 606 810 l 606 582 l 864 582 l 874 810 l 606 810 z "},"买":{"ha":1389,"x_min":110,"x_max":1288,"o":"m 1194 660 l 997 660 l 1053 911 l 124 911 l 124 1099 l 1288 1099 l 1194 660 m 475 826 l 631 826 l 631 643 l 447 643 l 447 706 l 293 706 l 293 889 l 475 889 l 475 826 m 686 831 l 878 831 l 878 392 l 1279 392 l 1279 204 l 878 204 l 878 169 l 1003 169 l 1003 74 l 1264 74 l 1264 -118 l 917 -118 l 917 -22 l 811 -22 l 811 49 l 124 -153 l 124 42 l 654 204 l 110 204 l 110 392 l 686 392 l 686 831 m 517 610 l 517 426 l 333 426 l 333 481 l 174 481 l 174 664 l 356 664 l 356 610 l 517 610 z "},"乱":{"ha":1389,"x_min":89,"x_max":1296,"o":"m 1107 314 l 1296 314 l 1296 -28 l 1204 -28 l 1204 -119 l 847 -119 l 847 1128 l 1040 1128 l 1040 68 l 1107 68 l 1107 314 m 540 910 l 540 781 l 804 781 l 804 593 l 540 593 l 540 468 l 768 468 l 768 -22 l 669 -22 l 669 -119 l 119 -119 l 119 468 l 353 468 l 353 593 l 89 593 l 89 781 l 353 781 l 353 861 l 118 861 l 118 1057 l 440 1057 l 440 1106 l 778 1106 l 778 910 l 540 910 m 311 68 l 575 68 l 575 274 l 311 274 l 311 68 z "},"乳":{"ha":1389,"x_min":83,"x_max":1292,"o":"m 778 938 l 97 915 l 97 1101 l 778 1133 l 778 938 m 1104 451 l 1292 451 l 1292 -25 l 1199 -25 l 1199 -119 l 815 -119 l 815 1122 l 1003 1122 l 1003 68 l 1104 68 l 1104 451 m 539 846 l 608 846 l 608 906 l 769 906 l 769 744 l 699 744 l 699 685 l 539 685 l 539 846 m 138 688 l 88 888 l 256 888 l 310 688 l 138 688 m 464 888 l 514 688 l 343 688 l 289 888 l 464 888 m 739 658 l 739 550 l 622 444 l 765 479 l 765 279 l 599 239 l 599 -24 l 500 -24 l 500 -119 l 189 -119 l 189 68 l 406 68 l 406 193 l 83 115 l 83 315 l 278 363 l 392 471 l 113 471 l 113 658 l 739 658 z "},"乾":{"ha":1389,"x_min":100,"x_max":1307,"o":"m 696 178 l 510 178 l 510 131 l 724 131 l 724 28 l 636 28 l 636 -56 l 510 -56 l 510 -119 l 319 -119 l 319 -56 l 100 -56 l 100 131 l 319 131 l 319 178 l 125 178 l 125 821 l 322 821 l 322 865 l 117 865 l 117 1060 l 322 1060 l 322 1122 l 513 1122 l 513 1060 l 711 1060 l 711 865 l 513 865 l 513 821 l 610 821 l 610 732 l 696 732 l 696 178 m 1003 1117 l 1003 1046 l 1307 1046 l 1307 857 l 924 857 l 924 758 l 729 758 l 729 953 l 808 953 l 808 1117 l 1003 1117 m 1118 68 l 1118 181 l 1307 181 l 1307 -40 l 1224 -40 l 1224 -119 l 763 -119 l 763 8 l 1026 513 l 753 513 l 753 707 l 1265 707 l 1265 567 l 1011 68 l 1118 68 m 503 582 l 503 650 l 318 650 l 318 582 l 503 582 m 503 417 l 318 417 l 318 349 l 503 349 l 503 417 z "},"了":{"ha":1389,"x_min":156,"x_max":1244,"o":"m 156 1100 l 1244 1100 l 1244 953 l 1147 838 l 1147 744 l 1039 744 l 1039 626 l 975 626 l 975 508 l 933 508 l 933 -28 l 836 -28 l 836 -119 l 367 -119 l 367 69 l 740 69 l 740 567 l 786 567 l 786 697 l 849 697 l 849 815 l 958 815 l 958 907 l 156 907 l 156 1100 z "},"予":{"ha":1389,"x_min":107,"x_max":1279,"o":"m 1211 971 l 840 657 l 1279 657 l 1172 263 l 972 263 l 1032 463 l 788 463 l 788 -22 l 686 -22 l 686 -119 l 381 -119 l 381 69 l 597 69 l 597 463 l 107 463 l 107 657 l 611 657 l 611 685 l 478 685 l 478 874 l 667 874 l 667 797 l 686 797 l 814 896 l 194 896 l 194 1090 l 1211 1090 l 1211 971 z "},"争":{"ha":1389,"x_min":82,"x_max":1300,"o":"m 1243 582 l 1300 582 l 1300 388 l 1243 388 l 1243 138 l 803 138 l 803 -26 l 708 -26 l 708 -119 l 332 -119 l 332 68 l 611 68 l 611 138 l 185 138 l 185 331 l 611 331 l 611 388 l 104 388 l 104 582 l 611 582 l 611 639 l 203 639 l 203 708 l 82 708 l 82 911 l 154 911 l 154 1011 l 222 1011 l 222 1122 l 425 1122 l 425 1078 l 1215 1078 l 1149 829 l 1243 829 l 1243 582 m 358 829 l 942 829 l 956 886 l 358 886 l 358 829 m 1057 639 l 803 639 l 803 582 l 1057 582 l 1057 639 m 803 388 l 803 331 l 1057 331 l 1057 388 l 803 388 z "},"事":{"ha":1389,"x_min":110,"x_max":1290,"o":"m 1244 363 l 1290 363 l 1290 232 l 1244 232 l 1244 131 l 1161 131 l 1161 58 l 782 58 l 782 -119 l 417 -119 l 417 8 l 590 8 l 590 58 l 149 58 l 149 188 l 590 188 l 590 232 l 110 232 l 110 363 l 590 363 l 590 406 l 149 406 l 149 536 l 590 536 l 590 579 l 158 579 l 158 886 l 590 886 l 590 929 l 115 929 l 115 1072 l 590 1072 l 590 1122 l 782 1122 l 782 1072 l 1276 1072 l 1276 929 l 782 929 l 782 886 l 1143 886 l 1143 814 l 1231 814 l 1231 579 l 782 579 l 782 536 l 1244 536 l 1244 363 m 350 756 l 350 710 l 590 710 l 590 756 l 350 756 m 1040 710 l 1040 756 l 782 756 l 782 710 l 1040 710 m 1053 406 l 782 406 l 782 363 l 1053 363 l 1053 406 m 782 232 l 782 188 l 1053 188 l 1053 232 l 782 232 z "},"二":{"ha":1389,"x_min":113,"x_max":1276,"o":"m 1215 847 l 1215 1040 l 174 1040 l 174 847 l 1215 847 m 1183 -62 l 1183 26 l 1276 26 l 1276 128 l 113 128 l 113 -62 l 1183 -62 z "},"于":{"ha":1389,"x_min":113,"x_max":1279,"o":"m 788 613 l 1279 613 l 1279 418 l 788 418 l 788 -28 l 693 -28 l 693 -119 l 338 -119 l 338 69 l 597 69 l 597 418 l 113 418 l 113 613 l 597 613 l 597 907 l 183 907 l 183 1100 l 1194 1100 l 1194 907 l 788 907 l 788 613 z "},"亏":{"ha":1389,"x_min":110,"x_max":1279,"o":"m 150 1085 l 1243 1085 l 1243 890 l 150 890 l 150 1085 m 1186 675 l 1186 582 l 468 582 l 431 481 l 1256 481 l 1213 -25 l 1113 -25 l 1113 -119 l 274 -119 l 274 69 l 1018 69 l 1039 292 l 133 292 l 251 582 l 110 582 l 110 776 l 1279 776 l 1279 675 l 1186 675 z "},"云":{"ha":1389,"x_min":118,"x_max":1283,"o":"m 156 1090 l 1232 1090 l 1232 896 l 156 896 l 156 1090 m 118 647 l 1283 647 l 1283 454 l 561 454 l 561 297 l 485 297 l 485 160 l 399 160 l 399 78 l 1236 78 l 1236 -112 l 128 -112 l 128 78 l 201 78 l 201 218 l 288 218 l 288 356 l 364 356 l 364 454 l 118 454 l 118 647 m 932 121 l 932 354 l 1129 354 l 1129 121 l 932 121 z "},"互":{"ha":1389,"x_min":93,"x_max":1293,"o":"m 1213 761 l 1108 78 l 1293 78 l 1293 -22 l 1201 -22 l 1201 -112 l 93 -112 l 93 78 l 904 78 l 933 243 l 174 243 l 317 907 l 128 907 l 128 1100 l 1261 1100 l 1261 1003 l 1160 1003 l 1160 907 l 511 907 l 479 761 l 1213 761 m 438 574 l 407 432 l 965 432 l 990 574 l 438 574 z "},"五":{"ha":1389,"x_min":89,"x_max":1303,"o":"m 1186 592 l 1167 64 l 1303 64 l 1303 -119 l 89 -119 l 89 64 l 357 64 l 424 496 l 171 496 l 171 685 l 453 685 l 488 913 l 131 913 l 131 1100 l 1272 1100 l 1272 1003 l 1175 1003 l 1175 913 l 679 913 l 646 685 l 1092 685 l 1092 592 l 1186 592 m 992 496 l 617 496 l 553 64 l 974 64 l 992 496 z "},"井":{"ha":1389,"x_min":110,"x_max":1279,"o":"m 1099 431 l 1279 431 l 1279 238 l 1099 238 l 1099 -119 l 915 -119 l 915 238 l 490 238 l 490 129 l 415 129 l 415 -6 l 315 -6 l 315 -121 l 113 -121 l 113 82 l 213 82 l 213 197 l 304 197 l 304 238 l 110 238 l 110 431 l 304 431 l 304 792 l 146 792 l 146 979 l 304 979 l 304 1122 l 490 1122 l 490 979 l 915 979 l 915 1122 l 1099 1122 l 1099 979 l 1246 979 l 1246 792 l 1099 792 l 1099 431 m 490 792 l 490 431 l 915 431 l 915 792 l 490 792 z "},"亚":{"ha":1389,"x_min":110,"x_max":1276,"o":"m 115 1100 l 1276 1100 l 1276 907 l 949 907 l 949 69 l 1275 69 l 1275 -119 l 110 -119 l 110 69 l 436 69 l 436 907 l 115 907 l 115 1100 m 622 69 l 761 69 l 761 907 l 622 907 l 622 69 m 110 821 l 293 821 l 424 156 l 225 156 l 110 821 m 1054 817 l 1257 817 l 1257 279 l 1181 279 l 1181 157 l 976 157 l 976 360 l 1054 360 l 1054 817 z "},"些":{"ha":1389,"x_min":110,"x_max":1331,"o":"m 468 414 l 110 414 l 110 608 l 160 608 l 160 1032 l 349 1032 l 349 608 l 403 608 l 403 1122 l 593 1122 l 593 992 l 739 992 l 739 797 l 593 797 l 593 697 l 756 697 l 756 503 l 468 503 l 468 414 m 1151 719 l 1331 719 l 1249 421 l 804 421 l 804 1122 l 993 1122 l 993 993 l 1079 993 l 1079 1067 l 1274 1067 l 1274 872 l 1142 872 l 1142 799 l 993 799 l 993 615 l 1115 615 l 1151 719 m 1197 165 l 203 165 l 203 360 l 1197 360 l 1197 165 m 1169 -115 l 115 -115 l 115 74 l 1271 74 l 1271 -26 l 1169 -26 l 1169 -115 z "},"亟":{"ha":1389,"x_min":100,"x_max":1289,"o":"m 629 254 l 629 858 l 714 917 l 164 917 l 164 1100 l 1239 1100 l 1239 1054 l 817 771 l 817 188 l 725 188 l 725 94 l 575 94 l 575 254 l 629 254 m 467 751 l 553 751 l 553 146 l 135 146 l 135 833 l 467 833 l 467 751 m 1263 796 l 1263 561 l 1156 351 l 1156 292 l 1272 292 l 1272 122 l 1104 122 l 1104 251 l 1035 115 l 854 115 l 988 369 l 988 392 l 881 392 l 881 560 l 1049 560 l 1049 486 l 1096 576 l 1096 608 l 861 608 l 861 796 l 1263 796 m 314 307 l 371 307 l 371 674 l 314 674 l 314 307 m 100 -119 l 100 58 l 1289 58 l 1289 -119 l 100 -119 z "},"亡":{"ha":1389,"x_min":100,"x_max":1283,"o":"m 1185 893 l 1185 797 l 431 797 l 431 103 l 1233 103 l 1233 -96 l 339 -96 l 339 -6 l 244 -6 l 244 797 l 100 797 l 100 1000 l 604 1000 l 568 1122 l 778 1122 l 822 1000 l 1283 1000 l 1283 893 l 1185 893 z "},"亢":{"ha":1389,"x_min":88,"x_max":1322,"o":"m 1258 956 l 1156 956 l 1156 860 l 111 860 l 111 1049 l 586 1049 l 563 1122 l 771 1122 l 803 1049 l 1258 1049 l 1258 956 m 1153 68 l 1171 203 l 1322 203 l 1276 -119 l 935 -119 l 935 569 l 413 569 l 413 164 l 350 164 l 350 13 l 276 13 l 276 -121 l 88 -121 l 88 68 l 160 68 l 160 203 l 222 203 l 222 764 l 1119 764 l 1119 68 l 1153 68 z "},"交":{"ha":1389,"x_min":104,"x_max":1285,"o":"m 808 1035 l 1285 1035 l 1285 850 l 918 850 l 1254 686 l 1254 460 l 1113 531 l 1113 417 l 846 265 l 947 265 l 947 163 l 1097 163 l 1097 71 l 1251 71 l 1251 -119 l 1061 -119 l 1061 -28 l 907 -28 l 907 75 l 757 75 l 757 215 l 135 -137 l 135 81 l 511 293 l 290 422 l 290 494 l 131 494 l 131 685 l 261 685 l 261 779 l 390 779 l 390 850 l 104 850 l 104 1035 l 599 1035 l 568 1138 l 778 1138 l 808 1035 m 699 400 l 1015 579 l 844 665 l 844 850 l 581 850 l 581 678 l 451 678 l 451 589 l 378 589 l 699 400 z "},"亥":{"ha":1389,"x_min":86,"x_max":1304,"o":"m 1158 788 l 350 82 l 86 82 l 539 478 l 213 478 l 213 789 l 331 789 l 331 844 l 119 844 l 119 1038 l 597 1038 l 560 1122 l 779 1122 l 817 1038 l 1275 1038 l 1275 844 l 521 844 l 521 753 l 403 753 l 403 668 l 757 668 l 893 788 l 1158 788 m 1192 178 l 1192 69 l 1304 69 l 1304 -121 l 1114 -121 l 1114 -12 l 1001 -12 l 1001 90 l 896 90 l 896 199 l 578 -119 l 317 -119 l 1047 606 l 1301 606 l 976 281 l 1086 281 l 1086 178 l 1192 178 z "},"亦":{"ha":1389,"x_min":78,"x_max":1300,"o":"m 1283 1049 l 1283 856 l 992 856 l 992 -119 l 688 -119 l 688 68 l 800 68 l 800 856 l 604 856 l 597 297 l 597 126 l 499 126 l 499 1 l 365 1 l 365 -119 l 172 -119 l 172 74 l 306 74 l 306 194 l 404 194 l 404 319 l 413 856 l 104 856 l 104 1049 l 594 1049 l 578 1122 l 789 1122 l 810 1049 l 1283 1049 m 171 735 l 363 735 l 271 149 l 78 149 l 171 735 m 1229 724 l 1229 554 l 1300 554 l 1300 176 l 1107 176 l 1107 531 l 1036 531 l 1036 724 l 1229 724 z "},"产":{"ha":1389,"x_min":51,"x_max":1281,"o":"m 814 1051 l 1249 1051 l 1249 857 l 157 857 l 157 1051 l 594 1051 l 561 1122 l 782 1122 l 814 1051 m 1122 815 l 1122 678 l 1281 678 l 1281 576 l 1192 576 l 1192 485 l 344 485 l 344 125 l 299 125 l 299 -1 l 250 -1 l 250 -119 l 51 -119 l 51 79 l 101 79 l 101 197 l 151 197 l 151 678 l 314 678 l 253 815 l 478 815 l 539 678 l 924 678 l 924 815 l 1122 815 z "},"亨":{"ha":1389,"x_min":110,"x_max":1275,"o":"m 768 1122 l 792 1065 l 1275 1065 l 1275 892 l 110 892 l 110 1065 l 583 1065 l 563 1122 l 768 1122 m 171 492 l 171 856 l 1104 856 l 1104 781 l 1201 781 l 1201 492 l 171 492 m 364 647 l 1010 647 l 1010 699 l 364 699 l 364 647 m 856 268 l 135 268 l 135 447 l 1249 447 l 1249 314 l 968 118 l 968 -36 l 876 -36 l 876 -119 l 331 -119 l 331 56 l 778 56 l 778 217 l 856 268 z "},"亩":{"ha":1389,"x_min":110,"x_max":1279,"o":"m 774 1122 l 804 1057 l 1279 1057 l 1279 954 l 1189 954 l 1189 863 l 110 863 l 110 1057 l 578 1057 l 550 1122 l 774 1122 m 1132 -115 l 157 -115 l 157 815 l 1232 815 l 1232 -14 l 1132 -14 l 1132 -115 m 597 447 l 597 621 l 347 621 l 347 447 l 597 447 m 788 447 l 1042 447 l 1042 621 l 788 621 l 788 447 m 597 253 l 347 253 l 347 74 l 597 74 l 597 253 m 788 253 l 788 74 l 1042 74 l 1042 253 l 788 253 z "},"享":{"ha":1389,"x_min":104,"x_max":1279,"o":"m 813 1081 l 1275 1081 l 1275 917 l 110 917 l 110 1081 l 589 1081 l 568 1133 l 789 1133 l 813 1081 m 157 513 l 157 871 l 1136 871 l 1136 794 l 1233 794 l 1233 513 l 157 513 m 347 664 l 1042 664 l 1042 721 l 347 721 l 347 664 m 969 271 l 1279 271 l 1279 111 l 943 111 l 943 -42 l 856 -42 l 856 -119 l 261 -119 l 261 35 l 751 35 l 751 111 l 104 111 l 104 271 l 632 271 l 746 315 l 157 315 l 157 468 l 1233 468 l 1233 390 l 969 271 z "},"京":{"ha":1389,"x_min":81,"x_max":1304,"o":"m 797 1060 l 1289 1060 l 1289 865 l 99 865 l 99 1060 l 579 1060 l 554 1128 l 769 1128 l 797 1060 m 1243 729 l 1243 297 l 792 297 l 792 -119 l 458 -119 l 458 64 l 601 64 l 601 297 l 144 297 l 144 815 l 1138 815 l 1138 729 l 1243 729 m 1051 621 l 336 621 l 336 492 l 1051 492 l 1051 621 m 1221 167 l 1221 78 l 1304 78 l 1304 -119 l 1106 -119 l 1106 -31 l 1022 -31 l 1022 47 l 926 47 l 926 246 l 1125 246 l 1125 167 l 1221 167 m 81 -119 l 261 243 l 475 243 l 292 -119 l 81 -119 z "},"亭":{"ha":1389,"x_min":110,"x_max":1279,"o":"m 813 1078 l 1275 1078 l 1275 929 l 115 929 l 115 1078 l 590 1078 l 568 1128 l 789 1128 l 813 1078 m 188 547 l 188 883 l 1111 883 l 1111 800 l 1201 800 l 1201 547 l 188 547 m 379 689 l 1010 689 l 1010 740 l 379 740 l 379 689 m 110 206 l 110 501 l 1279 501 l 1279 206 l 1088 206 l 1088 360 l 301 360 l 301 206 l 110 206 m 607 131 l 342 131 l 342 297 l 1047 297 l 1047 131 l 799 131 l 799 -40 l 711 -40 l 711 -119 l 443 -119 l 443 32 l 607 32 l 607 131 z "},"亮":{"ha":1389,"x_min":106,"x_max":1289,"o":"m 796 1078 l 1281 1078 l 1281 917 l 111 917 l 111 1078 l 592 1078 l 574 1133 l 776 1133 l 796 1078 m 185 525 l 185 860 l 1103 860 l 1103 775 l 1206 775 l 1206 525 l 185 525 m 378 664 l 1014 664 l 1014 721 l 378 721 l 378 664 m 1100 310 l 290 310 l 290 232 l 106 232 l 106 471 l 1285 471 l 1285 232 l 1100 232 l 1100 310 m 1126 136 l 1289 136 l 1289 -26 l 1201 -26 l 1201 -119 l 876 -119 l 876 74 l 439 74 l 328 -119 l 115 -119 l 319 235 l 1068 235 l 1068 43 l 1126 43 l 1126 136 z "},"亲":{"ha":1389,"x_min":103,"x_max":1279,"o":"m 1279 740 l 1279 549 l 804 549 l 804 444 l 1271 444 l 1271 250 l 804 250 l 804 -119 l 493 -119 l 493 68 l 613 68 l 613 250 l 119 250 l 119 444 l 613 444 l 613 549 l 110 549 l 110 740 l 293 740 l 293 872 l 146 872 l 146 1065 l 588 1065 l 563 1122 l 785 1122 l 810 1065 l 1243 1065 l 1243 872 l 1103 872 l 1103 740 l 1279 740 m 914 872 l 483 872 l 483 740 l 914 740 l 914 872 m 103 -107 l 290 208 l 500 208 l 317 -107 l 103 -107 m 933 208 l 1124 208 l 1124 83 l 1256 83 l 1256 -107 l 1067 -107 l 1067 18 l 933 18 l 933 208 z "},"亳":{"ha":1389,"x_min":110,"x_max":1269,"o":"m 808 1065 l 1265 1065 l 1265 922 l 125 922 l 125 1065 l 606 1065 l 585 1122 l 782 1122 l 808 1065 m 171 596 l 171 886 l 1124 886 l 1124 821 l 1218 821 l 1218 596 l 171 596 m 364 718 l 1026 718 l 1026 764 l 364 764 l 364 718 m 1179 558 l 1179 479 l 1269 479 l 1269 297 l 1078 297 l 1078 422 l 311 422 l 311 257 l 118 257 l 118 558 l 1179 558 m 1051 263 l 729 251 l 729 210 l 1268 238 l 1268 117 l 729 86 l 729 24 l 1122 24 l 1122 79 l 1265 79 l 1265 -64 l 1183 -64 l 1183 -119 l 539 -119 l 539 75 l 110 51 l 110 178 l 539 200 l 539 244 l 336 238 l 336 371 l 1051 393 l 1051 263 z "},"亵":{"ha":1389,"x_min":115,"x_max":1288,"o":"m 811 1075 l 1276 1075 l 1276 921 l 115 921 l 115 1075 l 604 1075 l 589 1126 l 796 1126 l 811 1075 m 613 842 l 613 704 l 457 704 l 457 679 l 599 679 l 599 513 l 457 513 l 457 301 l 189 301 l 189 449 l 282 449 l 282 481 l 150 481 l 150 647 l 282 647 l 282 704 l 151 704 l 151 842 l 282 842 l 282 893 l 457 893 l 457 842 l 613 842 m 1254 842 l 1238 449 l 1288 449 l 1288 289 l 1058 289 l 1078 699 l 906 699 l 881 535 l 983 535 l 983 368 l 838 368 l 803 325 l 593 325 l 725 474 l 644 474 l 644 642 l 749 642 l 751 699 l 650 699 l 650 842 l 760 842 l 763 893 l 933 893 l 926 842 l 1254 842 m 665 121 l 444 101 l 444 53 l 743 72 l 743 -115 l 186 -146 l 186 35 l 253 39 l 253 83 l 122 72 l 122 244 l 665 301 l 665 121 m 1188 94 l 1108 94 l 1108 69 l 1274 69 l 1274 -121 l 1083 -121 l 1083 -54 l 917 -54 l 917 42 l 767 42 l 767 289 l 958 289 l 958 138 l 1035 138 l 1035 247 l 1188 247 l 1188 94 z "},"人":{"ha":1389,"x_min":81,"x_max":1288,"o":"m 1154 244 l 1154 85 l 1288 85 l 1288 -119 l 1083 -119 l 1083 39 l 949 39 l 949 210 l 824 210 l 824 367 l 706 367 l 706 440 l 324 -119 l 81 -119 l 597 626 l 597 1122 l 789 1122 l 789 572 l 910 572 l 910 415 l 1028 415 l 1028 244 l 1154 244 z "},"亿":{"ha":1389,"x_min":57,"x_max":1282,"o":"m 146 935 l 238 935 l 238 1117 l 431 1117 l 431 925 l 339 925 l 339 742 l 250 742 l 250 671 l 365 671 l 365 -119 l 174 -119 l 174 560 l 57 560 l 57 753 l 146 753 l 146 935 m 1094 269 l 1282 269 l 1282 -18 l 1193 -18 l 1193 -119 l 442 -119 l 442 68 l 496 68 l 496 208 l 579 208 l 579 329 l 654 329 l 654 440 l 696 440 l 974 896 l 494 896 l 494 1089 l 1244 1089 l 1244 958 l 844 306 l 844 251 l 768 251 l 768 139 l 686 139 l 686 68 l 1094 68 l 1094 269 z "},"什":{"ha":1389,"x_min":71,"x_max":1315,"o":"m 979 1122 l 979 707 l 1315 707 l 1315 606 l 1224 606 l 1224 513 l 979 513 l 979 -119 l 786 -119 l 786 513 l 435 513 l 435 707 l 786 707 l 786 1122 l 979 1122 m 369 765 l 264 765 l 264 685 l 379 685 l 379 -119 l 188 -119 l 188 590 l 71 590 l 71 783 l 176 783 l 176 958 l 265 958 l 265 1119 l 458 1119 l 458 928 l 369 928 l 369 765 z "},"仁":{"ha":1389,"x_min":82,"x_max":1310,"o":"m 160 963 l 236 963 l 236 1121 l 426 1121 l 426 932 l 349 932 l 349 772 l 271 772 l 271 685 l 358 685 l 358 -119 l 168 -119 l 168 611 l 82 611 l 82 800 l 160 800 l 160 963 m 481 1043 l 1274 1043 l 1274 850 l 481 850 l 481 1043 m 439 -86 l 439 103 l 1310 103 l 1310 1 l 1214 1 l 1214 -86 l 439 -86 z "},"仃":{"ha":1389,"x_min":74,"x_max":1299,"o":"m 139 954 l 219 954 l 219 1121 l 410 1121 l 410 932 l 329 932 l 329 764 l 264 764 l 264 671 l 354 671 l 354 -119 l 163 -119 l 163 606 l 74 606 l 74 794 l 139 794 l 139 954 m 440 1089 l 1299 1089 l 1299 896 l 1026 896 l 1026 -25 l 932 -25 l 932 -119 l 675 -119 l 675 68 l 835 68 l 835 896 l 440 896 l 440 1089 z "},"仄":{"ha":1389,"x_min":54,"x_max":1275,"o":"m 138 76 l 138 1096 l 1275 1096 l 1275 901 l 331 901 l 331 -29 l 251 -29 l 251 -121 l 54 -121 l 54 76 l 138 76 m 1051 204 l 1161 204 l 1161 76 l 1271 76 l 1271 -121 l 1074 -121 l 1074 8 l 964 8 l 964 160 l 856 160 l 856 278 l 765 278 l 765 281 l 542 -119 l 324 -119 l 675 508 l 675 831 l 868 831 l 868 475 l 963 475 l 963 356 l 1051 356 l 1051 204 z "},"仅":{"ha":1389,"x_min":90,"x_max":1293,"o":"m 357 776 l 281 776 l 281 685 l 383 685 l 383 -119 l 192 -119 l 192 618 l 90 618 l 90 808 l 167 808 l 167 967 l 236 967 l 236 1121 l 426 1121 l 426 932 l 357 932 l 357 776 m 1181 185 l 1181 65 l 1293 65 l 1293 -121 l 1106 -121 l 1106 -3 l 993 -3 l 993 139 l 875 139 l 875 196 l 653 -119 l 419 -119 l 760 368 l 475 797 l 699 797 l 874 533 l 1082 832 l 1082 901 l 460 901 l 460 1094 l 1275 1094 l 1275 764 l 965 325 l 1063 325 l 1063 185 l 1181 185 z "},"仆":{"ha":1389,"x_min":128,"x_max":1272,"o":"m 1171 663 l 1171 533 l 1272 533 l 1272 342 l 1079 342 l 1079 469 l 979 469 l 979 600 l 921 600 l 921 -119 l 729 -119 l 729 1122 l 921 1122 l 921 793 l 1078 793 l 1078 663 l 1171 663 m 246 958 l 350 958 l 350 1117 l 543 1117 l 543 924 l 439 924 l 439 765 l 321 765 l 321 636 l 444 636 l 444 -119 l 254 -119 l 254 596 l 128 596 l 128 789 l 246 789 l 246 958 z "},"仇":{"ha":1389,"x_min":60,"x_max":1325,"o":"m 340 738 l 253 738 l 253 654 l 381 654 l 381 -119 l 189 -119 l 189 556 l 60 556 l 60 749 l 147 749 l 147 931 l 238 931 l 238 1121 l 431 1121 l 431 928 l 340 928 l 340 738 m 1142 83 l 1164 214 l 1325 214 l 1283 -107 l 906 -107 l 958 788 l 811 788 l 758 176 l 679 176 l 679 22 l 604 22 l 604 -119 l 411 -119 l 411 74 l 486 74 l 486 214 l 565 214 l 618 788 l 456 788 l 456 975 l 635 975 l 647 1117 l 839 1117 l 826 975 l 1149 975 l 1107 83 l 1142 83 z "},"仉":{"ha":1389,"x_min":60,"x_max":1329,"o":"m 347 743 l 253 743 l 253 656 l 368 656 l 368 -119 l 175 -119 l 175 560 l 60 560 l 60 753 l 156 753 l 156 936 l 251 936 l 251 1122 l 444 1122 l 444 929 l 347 929 l 347 743 m 1167 68 l 1186 240 l 1329 240 l 1289 -119 l 947 -119 l 947 913 l 678 913 l 678 -25 l 594 -25 l 594 -119 l 401 -119 l 401 74 l 488 74 l 488 1106 l 1139 1106 l 1139 68 l 1167 68 z "},"今":{"ha":1389,"x_min":103,"x_max":1285,"o":"m 1139 961 l 1139 803 l 1285 803 l 1285 614 l 1096 614 l 1096 771 l 950 771 l 950 925 l 439 925 l 439 771 l 292 771 l 292 614 l 103 614 l 103 803 l 250 803 l 250 961 l 378 961 l 378 1114 l 1010 1114 l 1010 961 l 1139 961 m 782 836 l 782 576 l 593 576 l 593 836 l 782 836 m 968 318 l 150 318 l 150 510 l 1243 510 l 1243 363 l 896 -119 l 658 -119 l 968 318 z "},"介":{"ha":1389,"x_min":133,"x_max":1265,"o":"m 1129 883 l 1129 803 l 1265 803 l 1265 614 l 1076 614 l 1076 694 l 939 694 l 939 814 l 803 814 l 803 928 l 579 928 l 579 814 l 449 814 l 449 694 l 322 694 l 322 614 l 133 614 l 133 803 l 260 803 l 260 883 l 389 883 l 389 1003 l 503 1003 l 503 1117 l 879 1117 l 879 1003 l 992 1003 l 992 883 l 1129 883 m 165 71 l 260 71 l 260 585 l 446 585 l 446 -3 l 354 -3 l 354 -118 l 165 -118 l 165 71 m 1131 -119 l 943 -119 l 943 585 l 1131 585 l 1131 -119 z "},"仍":{"ha":1389,"x_min":60,"x_max":1289,"o":"m 336 754 l 253 754 l 253 656 l 369 656 l 369 -119 l 176 -119 l 176 579 l 60 579 l 60 772 l 143 772 l 143 947 l 233 947 l 233 1118 l 426 1118 l 426 926 l 336 926 l 336 754 m 1226 1100 l 1129 713 l 1289 713 l 1265 -33 l 1172 -33 l 1172 -119 l 918 -119 l 918 74 l 1082 74 l 1099 525 l 885 525 l 983 907 l 803 907 l 792 701 l 729 132 l 663 132 l 663 6 l 582 6 l 582 -119 l 396 -119 l 396 65 l 476 65 l 476 192 l 542 192 l 606 713 l 615 907 l 476 907 l 476 1100 l 1226 1100 z "},"从":{"ha":1389,"x_min":64,"x_max":1304,"o":"m 674 413 l 674 219 l 481 219 l 481 361 l 428 361 l 267 -119 l 64 -119 l 338 701 l 338 1122 l 531 1122 l 531 665 l 493 554 l 590 554 l 590 413 l 674 413 m 1210 247 l 1210 74 l 1304 74 l 1304 -119 l 1111 -119 l 1111 54 l 1017 54 l 1017 239 l 939 239 l 939 290 l 774 -119 l 571 -119 l 894 699 l 894 1122 l 1086 1122 l 1086 656 l 996 432 l 1132 432 l 1132 247 l 1210 247 z "},"仑":{"ha":1389,"x_min":103,"x_max":1285,"o":"m 1165 990 l 1165 893 l 1285 893 l 1285 704 l 1096 704 l 1096 800 l 976 800 l 976 875 l 838 875 l 838 942 l 564 942 l 564 875 l 410 875 l 410 799 l 292 799 l 292 713 l 103 713 l 103 903 l 221 903 l 221 989 l 374 989 l 374 1064 l 515 1064 l 515 1131 l 874 1131 l 874 1064 l 1026 1064 l 1026 990 l 1165 990 m 1067 68 l 1067 175 l 1254 175 l 1254 -14 l 1160 -14 l 1160 -119 l 214 -119 l 214 694 l 404 694 l 404 479 l 1193 601 l 1193 386 l 404 264 l 404 68 l 1067 68 z "},"仓":{"ha":1389,"x_min":117,"x_max":1276,"o":"m 429 807 l 307 807 l 307 739 l 117 739 l 117 929 l 239 929 l 239 997 l 372 997 l 372 1065 l 508 1065 l 508 1125 l 881 1125 l 881 1065 l 1011 1065 l 1011 997 l 1144 997 l 1144 929 l 1275 929 l 1275 739 l 1085 739 l 1085 807 l 956 807 l 956 876 l 821 876 l 821 936 l 561 936 l 561 876 l 429 876 l 429 807 m 1094 168 l 1276 168 l 1276 -14 l 1174 -14 l 1174 -115 l 174 -115 l 174 701 l 1211 701 l 1197 208 l 610 208 l 610 396 l 1008 396 l 1014 518 l 367 518 l 367 67 l 1094 67 l 1094 168 z "},"仔":{"ha":1389,"x_min":49,"x_max":1308,"o":"m 125 928 l 217 928 l 217 1121 l 424 1121 l 424 914 l 332 914 l 332 721 l 257 721 l 257 656 l 364 656 l 364 -119 l 174 -119 l 174 531 l 49 531 l 49 738 l 125 738 l 125 928 m 1025 615 l 1308 615 l 1308 422 l 1046 422 l 1046 -17 l 942 -17 l 942 -119 l 499 -119 l 499 68 l 854 68 l 854 422 l 426 422 l 426 615 l 792 615 l 972 907 l 504 907 l 504 1100 l 1269 1100 l 1269 1008 l 1025 615 z "},"仕":{"ha":1389,"x_min":61,"x_max":1300,"o":"m 346 754 l 254 754 l 254 654 l 364 654 l 364 -119 l 174 -119 l 174 574 l 61 574 l 61 767 l 153 767 l 153 947 l 254 947 l 254 1124 l 447 1124 l 447 931 l 346 931 l 346 754 m 1300 803 l 1300 611 l 949 611 l 949 68 l 1269 68 l 1269 -31 l 1182 -31 l 1182 -119 l 453 -119 l 453 68 l 758 68 l 758 611 l 411 611 l 411 803 l 758 803 l 758 1122 l 949 1122 l 949 803 l 1300 803 z "},"他":{"ha":1389,"x_min":74,"x_max":1313,"o":"m 340 757 l 267 757 l 267 661 l 344 661 l 344 -119 l 154 -119 l 154 571 l 74 571 l 74 764 l 147 764 l 147 950 l 236 950 l 236 1124 l 429 1124 l 429 931 l 340 931 l 340 757 m 1125 169 l 1313 169 l 1313 -19 l 1211 -19 l 1211 -119 l 471 -119 l 471 626 l 388 611 l 388 810 l 471 826 l 471 1046 l 664 1046 l 664 865 l 772 886 l 772 1122 l 963 1122 l 963 925 l 1272 986 l 1251 343 l 1163 343 l 1163 240 l 1007 240 l 1007 433 l 1060 433 l 1069 740 l 963 719 l 963 178 l 772 178 l 772 683 l 664 664 l 664 68 l 1125 68 l 1125 169 z "},"仗":{"ha":1389,"x_min":81,"x_max":1307,"o":"m 367 932 l 367 764 l 274 764 l 274 657 l 354 657 l 354 -119 l 164 -119 l 164 597 l 81 597 l 81 789 l 174 789 l 174 957 l 250 957 l 250 1125 l 443 1125 l 443 932 l 367 932 m 1307 714 l 1163 714 l 1163 531 l 933 328 l 1047 328 l 1047 203 l 1179 203 l 1179 82 l 1296 82 l 1296 -119 l 1096 -119 l 1096 1 l 979 1 l 979 126 l 846 126 l 846 251 l 406 -137 l 406 113 l 664 343 l 546 433 l 546 671 l 807 471 l 969 615 l 969 714 l 456 714 l 456 907 l 969 907 l 969 1124 l 1163 1124 l 1163 907 l 1307 907 l 1307 714 z "},"付":{"ha":1389,"x_min":67,"x_max":1306,"o":"m 164 942 l 250 942 l 250 1125 l 443 1125 l 443 932 l 357 932 l 357 749 l 260 749 l 260 654 l 383 654 l 383 -119 l 190 -119 l 190 560 l 67 560 l 67 753 l 164 753 l 164 942 m 1228 935 l 1306 935 l 1306 740 l 1228 740 l 1228 -26 l 1133 -26 l 1133 -119 l 754 -119 l 754 68 l 1036 68 l 1036 740 l 463 740 l 463 935 l 1036 935 l 1036 1122 l 1228 1122 l 1228 935 m 850 446 l 850 253 l 657 253 l 657 418 l 554 418 l 554 611 l 747 611 l 747 446 l 850 446 z "},"仙":{"ha":1389,"x_min":81,"x_max":1267,"o":"m 1086 68 l 1086 913 l 1267 913 l 1267 -26 l 1165 -26 l 1165 -119 l 469 -119 l 469 913 l 656 913 l 656 68 l 775 68 l 775 1128 l 961 1128 l 961 68 l 1086 68 m 165 953 l 254 953 l 254 1125 l 446 1125 l 446 932 l 357 932 l 357 760 l 274 760 l 274 674 l 365 674 l 365 -119 l 174 -119 l 174 585 l 81 585 l 81 778 l 165 778 l 165 953 z "},"仝":{"ha":1389,"x_min":108,"x_max":1278,"o":"m 1136 985 l 1136 919 l 1278 919 l 1278 726 l 1085 726 l 1085 792 l 944 792 l 944 860 l 803 860 l 803 931 l 586 931 l 586 860 l 442 860 l 442 792 l 301 792 l 301 726 l 108 726 l 108 919 l 249 919 l 249 985 l 393 985 l 393 1053 l 504 1053 l 504 1124 l 886 1124 l 886 1053 l 996 1053 l 996 985 l 1136 985 m 1211 476 l 785 476 l 785 68 l 1275 68 l 1275 -32 l 1176 -32 l 1176 -119 l 110 -119 l 110 68 l 594 68 l 594 476 l 178 476 l 178 671 l 1211 671 l 1211 476 z "},"仟":{"ha":1389,"x_min":57,"x_max":1293,"o":"m 331 757 l 250 757 l 250 660 l 356 660 l 356 -119 l 165 -119 l 165 574 l 57 574 l 57 767 l 139 767 l 139 950 l 219 950 l 219 1124 l 413 1124 l 413 931 l 331 931 l 331 757 m 951 539 l 1293 539 l 1293 346 l 951 346 l 951 -119 l 760 -119 l 760 346 l 401 346 l 401 539 l 760 539 l 760 865 l 465 865 l 465 1058 l 881 1058 l 881 1122 l 1233 1122 l 1233 929 l 951 929 l 951 539 z "},"仡":{"ha":1389,"x_min":86,"x_max":1300,"o":"m 354 932 l 354 768 l 279 768 l 279 656 l 349 656 l 349 -119 l 158 -119 l 158 599 l 86 599 l 86 792 l 161 792 l 161 961 l 224 961 l 224 1125 l 417 1125 l 417 932 l 354 932 m 722 1122 l 722 1021 l 1300 1021 l 1300 832 l 590 832 l 590 738 l 406 738 l 406 922 l 479 922 l 479 1017 l 538 1017 l 538 1122 l 722 1122 m 1101 64 l 1101 204 l 1286 204 l 1286 -25 l 1192 -25 l 1192 -119 l 504 -119 l 504 -7 l 932 507 l 476 507 l 476 696 l 1243 696 l 1243 582 l 813 64 l 1101 64 z "},"代":{"ha":1389,"x_min":92,"x_max":1275,"o":"m 374 932 l 374 758 l 285 758 l 285 656 l 353 656 l 353 -119 l 161 -119 l 161 597 l 92 597 l 92 790 l 181 790 l 181 951 l 251 951 l 251 1125 l 444 1125 l 444 932 l 374 932 m 1275 824 l 1275 624 l 942 565 l 1043 261 l 1128 261 l 1128 96 l 1256 96 l 1256 -119 l 1040 -119 l 1040 46 l 913 46 l 913 224 l 850 224 l 742 532 l 425 476 l 425 681 l 703 728 l 651 1122 l 847 1122 l 897 760 l 1275 824 m 1247 864 l 1067 864 l 1067 928 l 933 928 l 933 1107 l 1113 1107 l 1113 1044 l 1247 1044 l 1247 864 z "},"令":{"ha":1389,"x_min":101,"x_max":1285,"o":"m 1153 985 l 1153 878 l 1285 878 l 1285 688 l 1096 688 l 1096 796 l 963 796 l 963 883 l 821 883 l 821 953 l 568 953 l 568 883 l 410 883 l 410 786 l 290 786 l 290 686 l 101 686 l 101 876 l 221 876 l 221 976 l 378 976 l 378 1072 l 515 1072 l 515 1143 l 865 1143 l 865 1072 l 1011 1072 l 1011 985 l 1153 985 m 782 850 l 782 604 l 593 604 l 593 850 l 782 850 m 981 360 l 150 360 l 150 551 l 1243 551 l 1243 408 l 1025 78 l 1144 67 l 1144 -124 l 197 -36 l 197 160 l 801 100 l 981 360 z "},"以":{"ha":1389,"x_min":104,"x_max":1333,"o":"m 811 778 l 619 778 l 619 915 l 514 915 l 514 1108 l 707 1108 l 707 971 l 811 971 l 811 778 m 1239 188 l 1239 74 l 1333 74 l 1333 -119 l 1140 -119 l 1140 -6 l 1046 -6 l 1046 140 l 981 140 l 981 176 l 769 -119 l 533 -119 l 974 511 l 1007 1086 l 1204 1086 l 1165 436 l 1092 333 l 1174 333 l 1174 188 l 1239 188 m 571 118 l 410 118 l 410 3 l 297 3 l 297 -94 l 104 -94 l 104 99 l 163 99 l 163 1067 l 353 1067 l 353 196 l 378 196 l 378 311 l 496 311 l 496 436 l 689 436 l 689 243 l 571 243 l 571 118 z "},"仨":{"ha":1389,"x_min":65,"x_max":1300,"o":"m 128 944 l 203 944 l 203 1122 l 394 1122 l 394 929 l 321 929 l 321 753 l 258 753 l 258 656 l 340 656 l 340 -119 l 151 -119 l 151 589 l 65 589 l 65 782 l 128 782 l 128 944 m 442 1089 l 1269 1089 l 1269 896 l 442 896 l 442 1089 m 1228 606 l 1228 411 l 486 411 l 486 606 l 1228 606 m 407 -101 l 407 89 l 1300 89 l 1300 -14 l 1213 -14 l 1213 -101 l 407 -101 z "},"仪":{"ha":1389,"x_min":60,"x_max":1308,"o":"m 324 772 l 251 772 l 251 663 l 346 663 l 346 -119 l 156 -119 l 156 596 l 60 596 l 60 789 l 131 789 l 131 965 l 217 965 l 217 1122 l 410 1122 l 410 929 l 324 929 l 324 772 m 1007 818 l 814 818 l 814 929 l 701 929 l 701 1122 l 893 1122 l 893 1011 l 1007 1011 l 1007 818 m 1181 189 l 1181 72 l 1308 72 l 1308 -121 l 1115 -121 l 1115 -4 l 988 -4 l 988 126 l 861 126 l 861 196 l 626 -119 l 386 -119 l 735 350 l 450 740 l 450 1049 l 643 1049 l 643 815 l 858 515 l 1093 832 l 1093 1049 l 1285 1049 l 1285 764 l 954 319 l 1054 319 l 1054 189 l 1181 189 z "},"们":{"ha":1389,"x_min":53,"x_max":1278,"o":"m 132 947 l 219 947 l 219 1115 l 413 1115 l 413 924 l 325 924 l 325 754 l 246 754 l 246 654 l 325 654 l 325 -119 l 133 -119 l 133 575 l 53 575 l 53 767 l 132 767 l 132 947 m 453 1111 l 631 1111 l 631 1044 l 719 1044 l 719 867 l 542 867 l 542 932 l 453 932 l 453 1111 m 765 896 l 765 1089 l 1278 1089 l 1278 -18 l 1178 -18 l 1178 -119 l 924 -119 l 924 68 l 1086 68 l 1086 896 l 765 896 m 631 -119 l 439 -119 l 439 810 l 631 810 l 631 -119 z "},"仰":{"ha":1389,"x_min":53,"x_max":1278,"o":"m 769 940 l 608 907 l 608 256 l 774 256 l 774 79 l 674 79 l 674 0 l 561 0 l 561 -61 l 385 -61 l 385 114 l 426 114 l 426 1065 l 769 1128 l 769 940 m 325 750 l 246 750 l 246 656 l 335 656 l 335 -119 l 151 -119 l 151 574 l 53 574 l 53 767 l 132 767 l 132 943 l 207 943 l 207 1118 l 400 1118 l 400 925 l 325 925 l 325 750 m 817 -119 l 817 1089 l 1278 1089 l 1278 26 l 1193 26 l 1193 -56 l 1040 -56 l 1040 136 l 1097 136 l 1097 894 l 993 894 l 993 -119 l 817 -119 z "},"仲":{"ha":1389,"x_min":56,"x_max":1278,"o":"m 129 946 l 219 946 l 219 1125 l 413 1125 l 413 932 l 321 932 l 321 754 l 249 754 l 249 656 l 351 656 l 351 -119 l 161 -119 l 161 568 l 56 568 l 56 761 l 129 761 l 129 946 m 957 1122 l 957 992 l 1278 992 l 1278 161 l 1182 161 l 1182 64 l 957 64 l 957 -119 l 765 -119 l 765 64 l 444 64 l 444 992 l 765 992 l 765 1122 l 957 1122 m 636 797 l 636 257 l 765 257 l 765 797 l 636 797 m 957 257 l 1086 257 l 1086 797 l 957 797 l 957 257 z "},"仵":{"ha":1389,"x_min":75,"x_max":1307,"o":"m 336 753 l 268 753 l 268 656 l 351 656 l 351 -119 l 161 -119 l 161 569 l 75 569 l 75 763 l 143 763 l 143 944 l 218 944 l 218 1124 l 411 1124 l 411 931 l 336 931 l 336 753 m 976 853 l 976 422 l 1307 422 l 1307 322 l 1207 322 l 1207 229 l 976 229 l 976 -119 l 783 -119 l 783 229 l 396 229 l 396 422 l 783 422 l 783 853 l 646 853 l 646 757 l 597 757 l 597 579 l 404 579 l 404 772 l 453 772 l 453 950 l 507 950 l 507 1124 l 700 1124 l 700 1046 l 1272 1046 l 1272 853 l 976 853 z "},"件":{"ha":1389,"x_min":58,"x_max":1301,"o":"m 325 754 l 251 754 l 251 656 l 335 656 l 335 -119 l 144 -119 l 144 564 l 58 564 l 58 757 l 132 757 l 132 946 l 207 946 l 207 1125 l 400 1125 l 400 932 l 325 932 l 325 754 m 978 797 l 978 393 l 1301 393 l 1301 292 l 1201 292 l 1201 200 l 978 200 l 978 -119 l 786 -119 l 786 200 l 408 200 l 408 393 l 786 393 l 786 797 l 639 797 l 639 690 l 569 690 l 569 506 l 378 506 l 378 699 l 446 699 l 446 883 l 500 883 l 500 1061 l 693 1061 l 693 992 l 786 992 l 786 1122 l 978 1122 l 978 992 l 1265 992 l 1265 797 l 978 797 z "},"价":{"ha":1389,"x_min":56,"x_max":1311,"o":"m 1233 939 l 1233 840 l 1311 840 l 1311 664 l 1135 664 l 1135 764 l 1058 764 l 1058 865 l 958 865 l 958 958 l 792 958 l 792 865 l 697 865 l 697 764 l 596 764 l 596 664 l 419 664 l 419 840 l 521 840 l 521 939 l 617 939 l 617 1042 l 708 1042 l 708 1135 l 1038 1135 l 1038 1042 l 1135 1042 l 1135 939 l 1233 939 m 346 744 l 249 744 l 249 656 l 368 656 l 368 -121 l 176 -121 l 176 560 l 56 560 l 56 753 l 153 753 l 153 938 l 246 938 l 246 1122 l 439 1122 l 439 929 l 346 929 l 346 744 m 454 72 l 551 72 l 551 629 l 742 629 l 742 -11 l 647 -11 l 647 -121 l 454 -121 l 454 72 m 1204 -121 l 1011 -121 l 1011 629 l 1204 629 l 1204 -121 z "},"任":{"ha":1389,"x_min":76,"x_max":1300,"o":"m 356 764 l 269 764 l 269 668 l 368 668 l 368 -119 l 175 -119 l 175 589 l 76 589 l 76 782 l 163 782 l 163 957 l 250 957 l 250 1122 l 443 1122 l 443 929 l 356 929 l 356 764 m 1300 615 l 1300 422 l 964 422 l 964 81 l 1269 81 l 1269 -22 l 1181 -22 l 1181 -110 l 461 -110 l 461 81 l 774 81 l 774 422 l 424 422 l 424 615 l 774 615 l 774 864 l 471 864 l 471 1057 l 850 1057 l 850 1108 l 1233 1108 l 1233 915 l 964 915 l 964 615 l 1300 615 z "},"份":{"ha":1389,"x_min":78,"x_max":1307,"o":"m 358 771 l 271 771 l 271 656 l 367 656 l 367 -119 l 175 -119 l 175 599 l 78 599 l 78 792 l 165 792 l 165 964 l 251 964 l 251 1124 l 444 1124 l 444 931 l 358 931 l 358 771 m 1199 1007 l 1199 863 l 1307 863 l 1307 669 l 1114 669 l 1114 814 l 1006 814 l 1006 931 l 897 931 l 897 1124 l 1090 1124 l 1090 1007 l 1199 1007 m 582 1089 l 789 1089 l 589 678 l 381 678 l 582 1089 m 599 429 l 469 429 l 469 621 l 1242 621 l 1221 -22 l 1124 -22 l 1124 -119 l 846 -119 l 846 68 l 1033 68 l 1049 429 l 803 429 l 606 -119 l 400 -119 l 599 429 z "},"仿":{"ha":1389,"x_min":61,"x_max":1293,"o":"m 136 939 l 222 939 l 222 1122 l 415 1122 l 415 929 l 329 929 l 329 746 l 254 746 l 254 656 l 368 656 l 368 -119 l 176 -119 l 176 558 l 61 558 l 61 751 l 136 751 l 136 939 m 1293 1015 l 1293 821 l 792 821 l 785 668 l 1268 668 l 1254 -22 l 1153 -22 l 1153 -119 l 810 -119 l 810 68 l 1065 68 l 1072 474 l 774 474 l 756 119 l 694 119 l 694 -17 l 618 -17 l 618 -119 l 425 -119 l 425 74 l 501 74 l 501 176 l 567 176 l 601 821 l 460 821 l 460 1015 l 761 1015 l 735 1121 l 940 1121 l 969 1015 l 1293 1015 z "},"企":{"ha":1389,"x_min":103,"x_max":1285,"o":"m 1157 960 l 1157 876 l 1285 876 l 1285 686 l 1096 686 l 1096 769 l 967 769 l 967 851 l 819 851 l 819 925 l 568 925 l 568 849 l 425 849 l 425 758 l 292 758 l 292 686 l 103 686 l 103 876 l 235 876 l 235 947 l 378 947 l 378 1038 l 515 1038 l 515 1114 l 850 1114 l 850 1042 l 1010 1042 l 1010 960 l 1157 960 m 1125 376 l 806 376 l 806 74 l 1279 74 l 1279 -115 l 104 -115 l 104 74 l 221 74 l 221 626 l 413 626 l 413 74 l 614 74 l 614 832 l 806 832 l 806 569 l 1222 569 l 1222 471 l 1125 471 l 1125 376 z "},"伊":{"ha":1389,"x_min":63,"x_max":1310,"o":"m 326 743 l 254 743 l 254 656 l 336 656 l 336 -119 l 144 -119 l 144 563 l 63 563 l 63 756 l 133 756 l 133 936 l 221 936 l 221 1125 l 414 1125 l 414 932 l 326 932 l 326 743 m 1247 758 l 1310 758 l 1310 564 l 1247 564 l 1247 229 l 850 229 l 850 114 l 749 114 l 749 -19 l 611 -19 l 611 -119 l 418 -119 l 418 74 l 557 74 l 557 174 l 657 174 l 657 229 l 446 229 l 446 422 l 699 422 l 699 564 l 410 564 l 410 758 l 699 758 l 699 894 l 460 894 l 460 1089 l 1147 1089 l 1147 994 l 1247 994 l 1247 758 m 1056 894 l 890 894 l 890 758 l 1056 758 l 1056 894 m 890 422 l 1056 422 l 1056 564 l 890 564 l 890 422 z "},"伍":{"ha":1389,"x_min":67,"x_max":1310,"o":"m 331 765 l 260 765 l 260 656 l 360 656 l 360 -119 l 168 -119 l 168 601 l 67 601 l 67 794 l 138 794 l 138 958 l 217 958 l 217 1124 l 410 1124 l 410 931 l 331 931 l 331 765 m 1221 611 l 1206 74 l 1310 74 l 1310 -119 l 407 -119 l 407 74 l 544 74 l 610 513 l 467 513 l 467 707 l 639 707 l 668 894 l 443 894 l 443 1089 l 1289 1089 l 1289 894 l 864 894 l 836 707 l 1124 707 l 1124 611 l 1221 611 m 1035 513 l 807 513 l 742 74 l 1014 74 l 1035 513 z "},"伎":{"ha":1389,"x_min":58,"x_max":1292,"o":"m 338 747 l 251 747 l 251 656 l 367 656 l 367 -119 l 176 -119 l 176 558 l 58 558 l 58 751 l 144 751 l 144 940 l 235 940 l 235 1124 l 428 1124 l 428 931 l 338 931 l 338 747 m 1292 1043 l 1292 850 l 967 850 l 967 746 l 1279 746 l 1279 456 l 1001 185 l 1001 154 l 1138 154 l 1138 69 l 1289 69 l 1289 -119 l 1100 -119 l 1100 -35 l 947 -35 l 947 74 l 888 74 l 689 -119 l 410 -119 l 740 201 l 675 201 l 675 304 l 515 304 l 515 494 l 704 494 l 704 390 l 864 390 l 864 322 l 1088 539 l 1088 553 l 472 553 l 472 746 l 776 746 l 776 850 l 463 850 l 463 1043 l 776 1043 l 776 1122 l 967 1122 l 967 1043 l 1292 1043 z "},"伏":{"ha":1389,"x_min":61,"x_max":1297,"o":"m 349 751 l 254 751 l 254 657 l 367 657 l 367 -119 l 176 -119 l 176 569 l 61 569 l 61 763 l 156 763 l 156 943 l 240 943 l 240 1122 l 433 1122 l 433 929 l 349 929 l 349 751 m 1199 207 l 1199 69 l 1297 69 l 1297 -121 l 1107 -121 l 1107 15 l 1007 15 l 1007 146 l 926 146 l 926 283 l 846 283 l 846 358 l 622 -119 l 406 -119 l 736 558 l 736 626 l 404 626 l 404 821 l 736 821 l 736 1122 l 929 1122 l 929 821 l 1288 821 l 1288 626 l 929 626 l 929 536 l 900 474 l 1036 474 l 1036 336 l 1118 336 l 1118 207 l 1199 207 m 1265 874 l 1089 874 l 1089 938 l 997 938 l 997 1114 l 1174 1114 l 1174 1050 l 1265 1050 l 1265 874 z "},"伐":{"ha":1389,"x_min":63,"x_max":1257,"o":"m 1226 911 l 1051 911 l 1051 956 l 939 956 l 939 1131 l 1113 1131 l 1113 1086 l 1226 1086 l 1226 911 m 1257 883 l 1257 683 l 875 640 l 896 443 l 1244 647 l 1244 411 l 971 247 l 1017 247 l 1017 160 l 1139 160 l 1139 76 l 1251 76 l 1251 -119 l 1056 -119 l 1056 -37 l 943 -37 l 943 50 l 819 50 l 819 157 l 419 -83 l 419 163 l 704 329 l 676 619 l 419 590 l 419 797 l 658 822 l 631 1122 l 826 1122 l 856 842 l 1257 883 m 349 749 l 254 749 l 254 656 l 368 656 l 368 -119 l 176 -119 l 176 565 l 63 565 l 63 758 l 156 758 l 156 942 l 243 942 l 243 1119 l 436 1119 l 436 926 l 349 926 l 349 749 z "},"休":{"ha":1389,"x_min":60,"x_max":1299,"o":"m 304 765 l 253 765 l 253 656 l 331 656 l 331 -119 l 142 -119 l 142 593 l 60 593 l 60 786 l 113 786 l 113 958 l 178 958 l 178 1125 l 371 1125 l 371 932 l 304 932 l 304 765 m 926 1122 l 926 992 l 1299 992 l 1299 797 l 926 797 l 926 -119 l 739 -119 l 739 797 l 399 797 l 399 992 l 739 992 l 739 1122 l 926 1122 m 546 -75 l 354 -75 l 506 733 l 699 733 l 546 -75 m 982 731 l 1175 731 l 1175 547 l 1267 547 l 1267 -79 l 1075 -79 l 1075 538 l 982 538 l 982 731 z "},"众":{"ha":1389,"x_min":83,"x_max":1310,"o":"m 422 760 l 310 760 l 310 682 l 117 682 l 117 875 l 229 875 l 229 953 l 363 953 l 363 1049 l 501 1049 l 501 1119 l 885 1119 l 885 1049 l 1010 1049 l 1010 953 l 1144 953 l 1144 878 l 1275 878 l 1275 685 l 1082 685 l 1082 760 l 951 760 l 951 856 l 817 856 l 817 926 l 554 926 l 554 856 l 422 856 l 422 760 m 1250 239 l 1250 72 l 1310 72 l 1310 -121 l 1117 -121 l 1117 47 l 1057 47 l 1057 204 l 999 204 l 999 210 l 842 -119 l 631 -119 l 913 471 l 913 671 l 1110 671 l 1110 442 l 1089 397 l 1192 397 l 1192 239 l 1250 239 m 667 257 l 667 64 l 474 64 l 474 206 l 381 206 l 272 -119 l 83 -119 l 243 400 l 243 653 l 442 653 l 442 399 l 554 399 l 554 257 l 667 257 z "},"优":{"ha":1389,"x_min":72,"x_max":1307,"o":"m 1124 68 l 1147 217 l 1307 217 l 1263 -119 l 899 -119 l 899 632 l 819 632 l 769 139 l 700 139 l 700 -6 l 610 -6 l 610 -119 l 403 -119 l 403 88 l 493 88 l 493 201 l 575 201 l 624 632 l 406 632 l 406 826 l 639 826 l 639 1122 l 831 1122 l 831 826 l 1275 826 l 1275 632 l 1090 632 l 1090 68 l 1124 68 m 338 758 l 265 758 l 265 656 l 367 656 l 367 -119 l 175 -119 l 175 574 l 72 574 l 72 767 l 144 767 l 144 951 l 239 951 l 239 1117 l 431 1117 l 431 924 l 338 924 l 338 758 m 1213 864 l 1031 864 l 1031 918 l 919 918 l 919 1100 l 1101 1100 l 1101 1047 l 1213 1047 l 1213 864 z "},"伙":{"ha":1389,"x_min":67,"x_max":1313,"o":"m 344 761 l 260 761 l 260 656 l 367 656 l 367 -119 l 175 -119 l 175 578 l 67 578 l 67 769 l 153 769 l 153 954 l 233 954 l 233 1125 l 426 1125 l 426 932 l 344 932 l 344 761 m 1228 168 l 1228 67 l 1313 67 l 1313 -122 l 1122 -122 l 1122 -22 l 1038 -22 l 1038 111 l 957 111 l 957 219 l 872 219 l 872 251 l 635 -119 l 410 -119 l 771 447 l 771 1122 l 961 1122 l 961 410 l 1063 410 l 1063 300 l 1147 300 l 1147 168 l 1228 168 m 1099 1015 l 1290 1015 l 1213 447 l 1021 447 l 1099 1015 m 643 1003 l 715 447 l 522 447 l 454 1003 l 643 1003 z "},"会":{"ha":1389,"x_min":111,"x_max":1282,"o":"m 1144 1024 l 1144 969 l 1282 969 l 1282 776 l 1089 776 l 1089 831 l 951 831 l 951 892 l 814 892 l 814 932 l 564 932 l 564 892 l 425 892 l 425 831 l 304 831 l 304 776 l 111 776 l 111 969 l 232 969 l 232 1024 l 371 1024 l 371 1085 l 500 1085 l 500 1125 l 881 1125 l 881 1085 l 1007 1085 l 1007 1024 l 1144 1024 m 188 550 l 188 740 l 1201 740 l 1201 550 l 188 550 m 319 274 l 118 274 l 118 468 l 1271 468 l 1271 274 l 513 274 l 513 165 l 388 165 l 388 75 l 953 75 l 953 226 l 1146 226 l 1146 75 l 1236 75 l 1236 -118 l 194 -118 l 194 213 l 319 213 l 319 274 z "},"伞":{"ha":1389,"x_min":110,"x_max":1281,"o":"m 1151 990 l 1151 914 l 1281 914 l 1281 722 l 1088 722 l 1088 797 l 958 797 l 958 869 l 817 869 l 817 931 l 564 931 l 564 869 l 428 869 l 428 797 l 303 797 l 303 722 l 110 722 l 110 914 l 235 914 l 235 990 l 371 990 l 371 1061 l 503 1061 l 503 1124 l 883 1124 l 883 1061 l 1010 1061 l 1010 990 l 1151 990 m 600 824 l 789 824 l 789 260 l 1279 260 l 1279 160 l 1183 160 l 1183 71 l 789 71 l 789 -119 l 600 -119 l 600 71 l 110 71 l 110 260 l 600 260 l 600 824 m 128 675 l 336 675 l 515 308 l 304 308 l 128 675 m 878 308 l 1053 675 l 1261 675 l 1085 308 l 878 308 z "},"伟":{"ha":1389,"x_min":60,"x_max":1289,"o":"m 918 582 l 918 496 l 1289 496 l 1275 39 l 1175 39 l 1175 -56 l 990 -56 l 990 136 l 1090 136 l 1099 303 l 918 303 l 918 -119 l 728 -119 l 728 303 l 407 303 l 407 496 l 728 496 l 728 582 l 464 582 l 464 769 l 728 769 l 728 853 l 431 853 l 431 1046 l 728 1046 l 728 1128 l 918 1128 l 918 1046 l 1271 1046 l 1271 853 l 918 853 l 918 769 l 1246 769 l 1246 674 l 1149 674 l 1149 582 l 918 582 m 119 938 l 208 938 l 208 1119 l 401 1119 l 401 926 l 313 926 l 313 744 l 253 744 l 253 656 l 363 656 l 363 -119 l 171 -119 l 171 557 l 60 557 l 60 750 l 119 750 l 119 938 z "},"传":{"ha":1389,"x_min":61,"x_max":1288,"o":"m 1192 631 l 1192 536 l 758 536 l 733 450 l 1271 450 l 1271 328 l 1143 88 l 1247 88 l 1247 -119 l 756 -119 l 756 -58 l 596 -58 l 596 3 l 425 3 l 425 210 l 633 210 l 633 149 l 803 149 l 803 88 l 931 88 l 1019 257 l 472 257 l 554 536 l 404 536 l 404 731 l 611 731 l 639 826 l 453 826 l 453 1021 l 697 1021 l 726 1122 l 931 1122 l 901 1021 l 1256 1021 l 1256 826 l 844 826 l 815 731 l 1288 731 l 1288 631 l 1192 631 m 329 761 l 254 761 l 254 656 l 357 656 l 357 -119 l 167 -119 l 167 576 l 61 576 l 61 768 l 138 768 l 138 954 l 229 954 l 229 1119 l 422 1119 l 422 928 l 329 928 l 329 761 z "},"伤":{"ha":1389,"x_min":61,"x_max":1278,"o":"m 610 851 l 610 728 l 417 728 l 417 921 l 492 921 l 492 1044 l 556 1044 l 556 1125 l 749 1125 l 749 1046 l 1274 1046 l 1274 851 l 610 851 m 322 747 l 254 747 l 254 656 l 357 656 l 357 -119 l 167 -119 l 167 560 l 61 560 l 61 753 l 131 753 l 131 940 l 213 940 l 213 1124 l 406 1124 l 406 931 l 322 931 l 322 747 m 922 803 l 883 656 l 1278 656 l 1269 -15 l 1164 -15 l 1164 -119 l 892 -119 l 892 68 l 1078 68 l 1086 463 l 832 463 l 751 154 l 681 154 l 681 28 l 594 28 l 594 -121 l 401 -121 l 401 72 l 488 72 l 488 221 l 574 221 l 636 463 l 444 463 l 444 656 l 688 656 l 726 803 l 922 803 z "},"伥":{"ha":1389,"x_min":63,"x_max":1294,"o":"m 342 749 l 256 749 l 256 661 l 357 661 l 357 -119 l 165 -119 l 165 561 l 63 561 l 63 754 l 149 754 l 149 940 l 236 940 l 236 1122 l 429 1122 l 429 929 l 342 929 l 342 749 m 1201 208 l 1201 86 l 1294 86 l 1294 -107 l 1103 -107 l 1103 15 l 1008 15 l 1008 165 l 913 165 l 913 293 l 826 293 l 826 453 l 699 453 l 699 117 l 885 154 l 885 -47 l 453 -125 l 453 68 l 506 79 l 506 453 l 413 453 l 413 647 l 506 647 l 506 1122 l 699 1122 l 699 647 l 1288 647 l 1288 453 l 1019 453 l 1019 357 l 1106 357 l 1106 208 l 1201 208 m 765 869 l 1253 1094 l 1253 892 l 765 656 l 765 869 z "},"伦":{"ha":1389,"x_min":61,"x_max":1289,"o":"m 447 903 l 874 1140 l 1289 917 l 1289 692 l 874 922 l 447 678 l 447 903 m 146 950 l 235 950 l 235 1124 l 428 1124 l 428 931 l 339 931 l 339 757 l 254 757 l 254 661 l 360 661 l 360 -121 l 169 -121 l 169 597 l 61 597 l 61 790 l 146 790 l 146 950 m 1082 68 l 1082 207 l 1269 207 l 1269 -32 l 1171 -32 l 1171 -121 l 529 -121 l 529 697 l 721 697 l 721 458 l 857 458 l 857 546 l 1025 546 l 1025 639 l 1213 639 l 1213 451 l 1046 451 l 1046 358 l 886 358 l 886 271 l 721 271 l 721 68 l 1082 68 z "},"伪":{"ha":1389,"x_min":57,"x_max":1283,"o":"m 121 947 l 194 947 l 194 1122 l 388 1122 l 388 929 l 314 929 l 314 754 l 250 754 l 250 656 l 351 656 l 351 -119 l 161 -119 l 161 588 l 57 588 l 57 781 l 121 781 l 121 947 m 926 1117 l 878 872 l 1283 872 l 1265 -25 l 1169 -25 l 1169 -119 l 868 -119 l 868 68 l 1082 68 l 1099 683 l 840 683 l 810 531 l 976 531 l 976 394 l 1047 394 l 1047 210 l 864 210 l 864 347 l 792 347 l 792 442 l 731 135 l 656 135 l 656 17 l 578 17 l 578 -119 l 392 -119 l 392 65 l 469 65 l 469 203 l 561 203 l 650 683 l 399 683 l 399 872 l 685 872 l 729 1117 l 926 1117 m 613 1111 l 686 915 l 488 915 l 415 1111 l 613 1111 z "},"伯":{"ha":1389,"x_min":68,"x_max":1269,"o":"m 144 943 l 233 943 l 233 1125 l 426 1125 l 426 932 l 338 932 l 338 751 l 261 751 l 261 656 l 365 656 l 365 -119 l 172 -119 l 172 567 l 68 567 l 68 760 l 144 760 l 144 943 m 963 1122 l 938 1043 l 1269 1043 l 1269 -19 l 1171 -19 l 1171 -119 l 460 -119 l 460 1043 l 729 1043 l 758 1122 l 963 1122 m 1076 569 l 1076 850 l 651 850 l 651 569 l 1076 569 m 651 376 l 651 68 l 1076 68 l 1076 376 l 651 376 z "},"估":{"ha":1389,"x_min":71,"x_max":1300,"o":"m 140 949 l 221 949 l 221 1125 l 414 1125 l 414 932 l 333 932 l 333 756 l 264 756 l 264 656 l 367 656 l 367 -119 l 176 -119 l 176 572 l 71 572 l 71 765 l 140 765 l 140 949 m 1300 1015 l 1300 821 l 975 821 l 975 644 l 1275 644 l 1275 -19 l 1171 -19 l 1171 -119 l 468 -119 l 468 644 l 783 644 l 783 821 l 447 821 l 447 1015 l 783 1015 l 783 1122 l 975 1122 l 975 1015 l 1300 1015 m 658 68 l 1083 68 l 1083 450 l 658 450 l 658 68 z "},"伴":{"ha":1389,"x_min":61,"x_max":1299,"o":"m 131 949 l 215 949 l 215 1125 l 408 1125 l 408 932 l 324 932 l 324 756 l 254 756 l 254 656 l 354 656 l 354 -119 l 163 -119 l 163 574 l 61 574 l 61 767 l 131 767 l 131 949 m 964 439 l 964 292 l 1299 292 l 1299 192 l 1201 192 l 1201 103 l 964 103 l 964 -119 l 772 -119 l 772 103 l 424 103 l 424 292 l 772 292 l 772 439 l 440 439 l 440 632 l 772 632 l 772 1122 l 964 1122 l 964 632 l 1285 632 l 1285 439 l 964 439 m 613 1060 l 719 689 l 543 689 l 426 1060 l 613 1060 m 1282 863 l 1200 863 l 1200 711 l 1019 711 l 1019 892 l 1100 892 l 1100 1044 l 1282 1044 l 1282 863 z "},"伶":{"ha":1389,"x_min":71,"x_max":1275,"o":"m 344 753 l 264 753 l 264 656 l 356 656 l 356 -119 l 165 -119 l 165 568 l 71 568 l 71 761 l 151 761 l 151 946 l 235 946 l 235 1125 l 428 1125 l 428 932 l 344 932 l 344 753 m 1154 1021 l 1154 899 l 1275 899 l 1275 706 l 1082 706 l 1082 828 l 961 828 l 961 926 l 722 926 l 722 828 l 615 828 l 615 706 l 422 706 l 422 899 l 529 899 l 529 1021 l 664 1021 l 664 1119 l 1044 1119 l 1044 1021 l 1154 1021 m 704 804 l 918 804 l 1039 579 l 821 579 l 704 804 m 1000 338 l 446 338 l 446 531 l 1253 531 l 1253 390 l 1069 78 l 1190 58 l 1190 -132 l 497 -26 l 497 172 l 863 113 l 1000 338 z "},"伸":{"ha":1389,"x_min":61,"x_max":1285,"o":"m 943 1122 l 943 997 l 1285 997 l 1285 135 l 1179 135 l 1179 32 l 943 32 l 943 -119 l 753 -119 l 753 32 l 415 32 l 415 997 l 753 997 l 753 1122 l 943 1122 m 131 950 l 207 950 l 207 1119 l 400 1119 l 400 928 l 324 928 l 324 757 l 254 757 l 254 656 l 357 656 l 357 -119 l 167 -119 l 167 579 l 61 579 l 61 772 l 131 772 l 131 950 m 753 621 l 753 803 l 603 803 l 603 621 l 753 621 m 1100 621 l 1100 803 l 943 803 l 943 621 l 1100 621 m 603 429 l 603 226 l 753 226 l 753 429 l 603 429 m 943 429 l 943 226 l 1100 226 l 1100 429 l 943 429 z "},"伺":{"ha":1389,"x_min":56,"x_max":1288,"o":"m 117 949 l 193 949 l 193 1125 l 385 1125 l 385 932 l 310 932 l 310 756 l 249 756 l 249 656 l 335 656 l 335 -119 l 144 -119 l 144 578 l 56 578 l 56 769 l 117 769 l 117 949 m 451 913 l 451 1106 l 1288 1106 l 1288 -22 l 1186 -22 l 1186 -119 l 1026 -119 l 1026 68 l 1097 68 l 1097 913 l 451 913 m 403 815 l 1029 815 l 1029 621 l 403 621 l 403 815 m 444 525 l 888 525 l 888 431 l 989 431 l 989 -32 l 444 -32 l 444 525 m 636 160 l 796 160 l 796 331 l 636 331 l 636 160 z "},"似":{"ha":1389,"x_min":64,"x_max":1339,"o":"m 1286 253 l 1286 72 l 1339 72 l 1339 -121 l 1146 -121 l 1146 60 l 1093 60 l 1093 158 l 846 -143 l 846 158 l 1019 376 l 1046 1124 l 1239 1124 l 1203 293 l 1169 253 l 1286 253 m 140 953 l 229 953 l 229 1122 l 422 1122 l 422 929 l 333 929 l 333 760 l 257 760 l 257 657 l 367 657 l 367 -119 l 175 -119 l 175 575 l 64 575 l 64 768 l 140 768 l 140 953 m 978 742 l 785 742 l 785 918 l 706 918 l 706 1111 l 899 1111 l 899 935 l 978 935 l 978 742 m 471 1061 l 663 1061 l 663 275 l 818 394 l 818 143 l 425 -151 l 425 93 l 471 128 l 471 1061 z "},"伽":{"ha":1389,"x_min":57,"x_max":1290,"o":"m 117 943 l 193 943 l 193 1125 l 385 1125 l 385 932 l 310 932 l 310 751 l 250 751 l 250 656 l 357 656 l 357 -119 l 167 -119 l 167 572 l 57 572 l 57 765 l 117 765 l 117 943 m 490 1122 l 660 1122 l 657 1008 l 863 1008 l 863 -25 l 782 -25 l 782 -119 l 649 -119 l 649 68 l 693 68 l 693 815 l 651 815 l 632 135 l 597 135 l 597 8 l 561 8 l 561 -119 l 389 -119 l 389 53 l 424 53 l 424 181 l 464 181 l 482 815 l 419 815 l 419 1008 l 488 1008 l 490 1122 m 1208 1060 l 1208 964 l 1290 964 l 1290 -92 l 907 -92 l 907 1060 l 1208 1060 m 1074 97 l 1124 97 l 1124 865 l 1074 865 l 1074 97 z "},"佃":{"ha":1389,"x_min":60,"x_max":1238,"o":"m 142 953 l 226 953 l 226 1118 l 418 1118 l 418 926 l 333 926 l 333 760 l 253 760 l 253 656 l 368 656 l 368 -119 l 178 -119 l 178 575 l 60 575 l 60 767 l 142 767 l 142 953 m 444 -110 l 444 1075 l 1238 1075 l 1238 -12 l 1140 -12 l 1140 -110 l 444 -110 m 743 582 l 743 881 l 638 881 l 638 582 l 743 582 m 936 582 l 1047 582 l 1047 881 l 936 881 l 936 582 m 743 388 l 638 388 l 638 83 l 743 83 l 743 388 m 936 388 l 936 83 l 1047 83 l 1047 388 l 936 388 z "},"但":{"ha":1389,"x_min":69,"x_max":1321,"o":"m 343 757 l 261 757 l 261 656 l 367 656 l 367 -119 l 175 -119 l 175 575 l 69 575 l 69 767 l 150 767 l 150 950 l 228 950 l 228 1122 l 421 1122 l 421 929 l 343 929 l 343 757 m 1172 1006 l 1275 1006 l 1275 172 l 450 172 l 450 1100 l 1172 1100 l 1172 1006 m 1082 738 l 1082 907 l 642 907 l 642 738 l 1082 738 m 642 546 l 642 365 l 1082 365 l 1082 546 l 642 546 m 408 -119 l 408 68 l 1321 68 l 1321 -31 l 1228 -31 l 1228 -119 l 408 -119 z "},"位":{"ha":1389,"x_min":64,"x_max":1297,"o":"m 129 946 l 221 946 l 221 1125 l 414 1125 l 414 932 l 322 932 l 322 754 l 257 754 l 257 656 l 381 656 l 381 -119 l 189 -119 l 189 572 l 64 572 l 64 765 l 129 765 l 129 946 m 986 997 l 1278 997 l 1278 803 l 457 803 l 457 997 l 775 997 l 744 1114 l 949 1114 l 986 997 m 1132 171 l 1132 68 l 1297 68 l 1297 -119 l 443 -119 l 443 68 l 939 68 l 939 239 l 1049 239 l 1049 710 l 1240 710 l 1240 171 l 1132 171 m 807 131 l 610 131 l 471 699 l 671 699 l 807 131 z "},"低":{"ha":1389,"x_min":75,"x_max":1293,"o":"m 338 757 l 268 757 l 268 656 l 367 656 l 367 -119 l 176 -119 l 176 575 l 75 575 l 75 768 l 146 768 l 146 950 l 229 950 l 229 1124 l 422 1124 l 422 931 l 338 931 l 338 757 m 1293 660 l 1293 468 l 1085 468 l 1085 361 l 1142 361 l 1142 192 l 1213 192 l 1213 74 l 1292 74 l 1292 -119 l 1099 -119 l 1099 -1 l 1021 -1 l 1021 168 l 949 168 l 949 349 l 892 349 l 892 468 l 656 468 l 656 225 l 829 325 l 829 104 l 422 -131 l 422 92 l 467 117 l 467 1069 l 1269 1108 l 1269 921 l 1036 907 l 1044 660 l 1293 660 m 850 897 l 656 886 l 656 660 l 860 660 l 850 897 m 960 -121 l 781 -121 l 781 58 l 960 58 l 960 -121 z "},"住":{"ha":1389,"x_min":79,"x_max":1301,"o":"m 158 954 l 239 954 l 239 1125 l 431 1125 l 431 932 l 351 932 l 351 761 l 272 761 l 272 656 l 381 656 l 381 -119 l 189 -119 l 189 586 l 79 586 l 79 779 l 158 779 l 158 954 m 971 382 l 971 68 l 1301 68 l 1301 -29 l 1211 -29 l 1211 -119 l 438 -119 l 438 68 l 778 68 l 778 382 l 494 382 l 494 576 l 778 576 l 778 815 l 463 815 l 463 1008 l 769 1008 l 729 1122 l 940 1122 l 979 1008 l 1286 1008 l 1286 815 l 971 815 l 971 576 l 1261 576 l 1261 382 l 971 382 z "},"佐":{"ha":1389,"x_min":58,"x_max":1304,"o":"m 304 753 l 250 753 l 250 656 l 340 656 l 340 -119 l 150 -119 l 150 579 l 58 579 l 58 771 l 111 771 l 111 944 l 194 944 l 194 1125 l 388 1125 l 388 932 l 304 932 l 304 753 m 1040 406 l 1040 74 l 1304 74 l 1304 -25 l 1213 -25 l 1213 -115 l 446 -115 l 446 74 l 849 74 l 849 406 l 653 406 l 653 497 l 576 497 l 576 335 l 383 335 l 383 528 l 485 528 l 485 690 l 578 690 l 578 769 l 422 769 l 422 964 l 692 964 l 692 1125 l 885 1125 l 885 964 l 1289 964 l 1289 769 l 771 769 l 771 669 l 678 669 l 678 599 l 1268 599 l 1268 406 l 1040 406 z "},"佑":{"ha":1389,"x_min":61,"x_max":1293,"o":"m 322 743 l 254 743 l 254 653 l 335 653 l 335 -119 l 144 -119 l 144 564 l 61 564 l 61 757 l 129 757 l 129 936 l 200 936 l 200 1125 l 392 1125 l 392 932 l 322 932 l 322 743 m 763 813 l 763 738 l 667 738 l 667 668 l 1274 668 l 1274 -22 l 1179 -22 l 1179 -119 l 481 -119 l 481 425 l 365 425 l 365 618 l 474 618 l 474 753 l 569 753 l 569 813 l 418 813 l 418 1006 l 710 1006 l 710 1125 l 903 1125 l 903 1006 l 1293 1006 l 1293 813 l 763 813 m 1082 474 l 672 474 l 672 68 l 1082 68 l 1082 474 z "},"体":{"ha":1389,"x_min":71,"x_max":1300,"o":"m 332 768 l 264 768 l 264 671 l 353 671 l 353 -119 l 161 -119 l 161 590 l 71 590 l 71 783 l 139 783 l 139 961 l 211 961 l 211 1131 l 404 1131 l 404 938 l 332 938 l 332 768 m 1278 803 l 938 803 l 938 279 l 1054 279 l 1054 86 l 938 86 l 938 -119 l 744 -119 l 744 86 l 643 86 l 643 279 l 744 279 l 744 803 l 431 803 l 431 992 l 744 992 l 744 1128 l 938 1128 l 938 992 l 1278 992 l 1278 803 m 382 -11 l 524 735 l 715 735 l 576 -11 l 382 -11 m 1242 575 l 1242 407 l 1300 407 l 1300 -11 l 1107 -11 l 1107 382 l 1049 382 l 1049 540 l 979 540 l 979 733 l 1172 733 l 1172 575 l 1242 575 z "},"何":{"ha":1389,"x_min":60,"x_max":1304,"o":"m 132 943 l 217 943 l 217 1125 l 410 1125 l 410 932 l 325 932 l 325 751 l 253 751 l 253 656 l 350 656 l 350 -119 l 158 -119 l 158 563 l 60 563 l 60 756 l 132 756 l 132 943 m 453 1099 l 1304 1099 l 1304 907 l 1247 907 l 1247 -19 l 1154 -19 l 1154 -119 l 981 -119 l 981 68 l 1056 68 l 1056 907 l 453 907 l 453 1099 m 469 790 l 839 790 l 839 685 l 943 685 l 943 19 l 469 19 l 469 790 m 660 214 l 750 214 l 750 596 l 660 596 l 660 214 z "},"佘":{"ha":1389,"x_min":115,"x_max":1271,"o":"m 1146 1028 l 1146 982 l 1271 982 l 1271 789 l 1078 789 l 1078 835 l 953 835 l 953 883 l 818 883 l 818 940 l 569 940 l 569 883 l 428 883 l 428 835 l 311 835 l 311 789 l 118 789 l 118 982 l 235 982 l 235 1028 l 376 1028 l 376 1076 l 508 1076 l 508 1133 l 883 1133 l 883 1076 l 1011 1076 l 1011 1028 l 1146 1028 m 222 588 l 222 767 l 1149 767 l 1149 588 l 222 588 m 610 297 l 115 297 l 115 490 l 1271 490 l 1271 297 l 801 297 l 801 -119 l 461 -119 l 461 64 l 610 64 l 610 297 m 925 225 l 1118 225 l 1118 101 l 1249 101 l 1249 -90 l 1056 -90 l 1056 32 l 925 32 l 925 225 m 126 -93 l 272 222 l 476 222 l 336 -93 l 126 -93 z "},"余":{"ha":1389,"x_min":107,"x_max":1276,"o":"m 428 826 l 307 826 l 307 776 l 114 776 l 114 969 l 235 969 l 235 1019 l 376 1019 l 376 1071 l 508 1071 l 508 1122 l 883 1122 l 883 1071 l 1011 1071 l 1011 1019 l 1146 1019 l 1146 969 l 1272 969 l 1272 776 l 1079 776 l 1079 826 l 953 826 l 953 878 l 818 878 l 818 929 l 569 929 l 569 878 l 428 878 l 428 826 m 789 576 l 789 468 l 1276 468 l 1276 274 l 789 274 l 789 -119 l 515 -119 l 515 68 l 599 68 l 599 274 l 107 274 l 107 468 l 599 468 l 599 576 l 197 576 l 197 750 l 1181 750 l 1181 576 l 789 576 m 336 -92 l 110 -92 l 276 203 l 493 203 l 336 -92 m 946 203 l 1133 203 l 1133 97 l 1244 97 l 1244 -90 l 1056 -90 l 1056 14 l 946 14 l 946 203 z "},"佛":{"ha":1389,"x_min":51,"x_max":1297,"o":"m 321 754 l 243 754 l 243 658 l 374 658 l 374 -119 l 181 -119 l 181 574 l 51 574 l 51 767 l 128 767 l 128 947 l 208 947 l 208 1124 l 401 1124 l 401 931 l 321 931 l 321 754 m 1047 553 l 1047 422 l 1297 422 l 1288 29 l 1204 29 l 1204 -56 l 1075 -56 l 1075 138 l 1118 138 l 1121 243 l 1047 243 l 1047 -119 l 875 -119 l 875 243 l 758 243 l 758 129 l 678 129 l 678 -7 l 586 -7 l 586 -119 l 411 -119 l 411 56 l 503 56 l 503 168 l 583 168 l 583 243 l 394 243 l 422 726 l 635 726 l 635 856 l 438 856 l 438 1043 l 635 1043 l 635 1122 l 808 1122 l 808 1043 l 875 1043 l 875 1122 l 1047 1122 l 1047 1043 l 1283 1043 l 1283 553 l 1047 553 m 875 856 l 808 856 l 808 726 l 875 726 l 875 856 m 1047 726 l 1113 726 l 1113 856 l 1047 856 l 1047 726 m 635 553 l 575 553 l 567 422 l 635 422 l 635 553 m 808 422 l 875 422 l 875 553 l 808 553 l 808 422 z "},"作":{"ha":1389,"x_min":75,"x_max":1294,"o":"m 1294 1049 l 1294 856 l 939 856 l 939 701 l 1264 701 l 1264 507 l 939 507 l 939 308 l 1264 308 l 1264 206 l 1178 206 l 1178 115 l 939 115 l 939 -119 l 746 -119 l 746 856 l 700 856 l 700 769 l 642 769 l 642 600 l 449 600 l 449 793 l 507 793 l 507 963 l 564 963 l 564 1122 l 757 1122 l 757 1049 l 1294 1049 m 163 947 l 247 947 l 247 1118 l 440 1118 l 440 926 l 356 926 l 356 754 l 268 754 l 268 656 l 357 656 l 357 -119 l 165 -119 l 165 575 l 75 575 l 75 767 l 163 767 l 163 947 z "},"你":{"ha":1389,"x_min":74,"x_max":1292,"o":"m 644 872 l 588 668 l 393 668 l 519 1122 l 714 1122 l 699 1065 l 1292 1065 l 1235 713 l 1043 713 l 1068 872 l 644 872 m 365 926 l 365 764 l 267 764 l 267 661 l 357 661 l 357 -119 l 165 -119 l 165 578 l 74 578 l 74 769 l 174 769 l 174 957 l 244 957 l 244 1118 l 438 1118 l 438 926 l 365 926 m 663 64 l 753 64 l 753 782 l 944 782 l 944 -119 l 663 -119 l 663 64 m 390 -56 l 501 561 l 693 561 l 583 -56 l 390 -56 m 1000 560 l 1193 560 l 1193 399 l 1272 399 l 1272 -56 l 1081 -56 l 1081 367 l 1000 367 l 1000 560 z "},"佣":{"ha":1389,"x_min":61,"x_max":1276,"o":"m 331 739 l 254 739 l 254 653 l 346 653 l 346 -119 l 157 -119 l 157 560 l 61 560 l 61 753 l 138 753 l 138 932 l 225 932 l 225 1108 l 418 1108 l 418 915 l 331 915 l 331 739 m 454 74 l 454 1100 l 1276 1100 l 1276 -28 l 1190 -28 l 1190 -119 l 1029 -119 l 1029 68 l 1086 68 l 1086 214 l 957 214 l 957 -78 l 768 -78 l 768 214 l 643 214 l 643 -33 l 572 -33 l 572 -119 l 379 -119 l 379 74 l 454 74 m 768 756 l 768 907 l 643 907 l 643 756 l 768 756 m 957 756 l 1086 756 l 1086 907 l 957 907 l 957 756 m 643 561 l 643 408 l 768 408 l 768 561 l 643 561 m 957 561 l 957 408 l 1086 408 l 1086 561 l 957 561 z "},"佥":{"ha":1389,"x_min":110,"x_max":1274,"o":"m 1131 1003 l 1131 954 l 1274 954 l 1274 761 l 1081 761 l 1081 811 l 938 811 l 938 874 l 799 874 l 799 929 l 586 929 l 586 874 l 444 874 l 444 811 l 303 811 l 303 761 l 110 761 l 110 954 l 251 954 l 251 1003 l 393 1003 l 393 1067 l 511 1067 l 511 1122 l 868 1122 l 868 1067 l 992 1067 l 992 1003 l 1131 1003 m 203 724 l 1176 724 l 1176 531 l 203 531 l 203 724 m 428 113 l 214 113 l 110 482 l 317 482 l 428 113 m 851 113 l 640 113 l 540 482 l 749 482 l 851 113 m 1219 149 l 1122 149 l 1122 68 l 1272 68 l 1272 -119 l 113 -119 l 113 68 l 929 68 l 929 228 l 1026 228 l 1026 481 l 1219 481 l 1219 149 z "},"佩":{"ha":1389,"x_min":65,"x_max":1322,"o":"m 329 754 l 254 754 l 254 650 l 350 650 l 350 -119 l 182 -119 l 182 582 l 65 582 l 65 771 l 140 771 l 140 943 l 208 943 l 208 1115 l 397 1115 l 397 926 l 329 926 l 329 754 m 1276 1100 l 1276 47 l 1322 47 l 1322 -119 l 1119 -119 l 1119 929 l 586 929 l 586 -49 l 538 -49 l 538 -119 l 374 -119 l 374 43 l 429 43 l 429 1100 l 1276 1100 m 788 725 l 625 725 l 625 886 l 1081 886 l 1081 725 l 918 725 l 918 681 l 1081 681 l 1081 19 l 1017 19 l 1017 -53 l 933 -53 l 933 110 l 964 110 l 964 517 l 918 517 l 918 -119 l 788 -119 l 788 517 l 742 517 l 742 -53 l 625 -53 l 625 681 l 788 681 l 788 725 z "},"佯":{"ha":1389,"x_min":60,"x_max":1297,"o":"m 951 390 l 951 275 l 1297 275 l 1297 171 l 1199 171 l 1199 81 l 951 81 l 951 -121 l 764 -121 l 764 81 l 390 81 l 390 275 l 764 275 l 764 390 l 449 390 l 449 583 l 764 583 l 764 713 l 411 713 l 411 907 l 900 907 l 900 1057 l 1025 1057 l 1025 1144 l 1204 1144 l 1204 965 l 1079 965 l 1079 907 l 1285 907 l 1285 713 l 951 713 l 951 583 l 1254 583 l 1254 390 l 951 390 m 694 1122 l 758 929 l 549 929 l 485 1122 l 694 1122 m 122 944 l 192 944 l 192 1121 l 385 1121 l 385 928 l 315 928 l 315 751 l 253 751 l 253 611 l 331 611 l 331 -121 l 142 -121 l 142 571 l 60 571 l 60 764 l 122 764 l 122 944 z "},"佰":{"ha":1389,"x_min":61,"x_max":1304,"o":"m 138 954 l 210 954 l 210 1124 l 403 1124 l 403 931 l 331 931 l 331 761 l 254 761 l 254 656 l 342 656 l 342 -119 l 151 -119 l 151 589 l 61 589 l 61 782 l 138 782 l 138 954 m 1304 1099 l 1304 913 l 963 913 l 933 803 l 1274 803 l 1274 -28 l 1178 -28 l 1178 -119 l 440 -119 l 440 803 l 735 803 l 764 913 l 450 913 l 450 1099 l 1304 1099 m 631 456 l 1082 456 l 1082 615 l 631 615 l 631 456 m 631 257 l 631 68 l 1082 68 l 1082 257 l 631 257 z "},"佳":{"ha":1389,"x_min":65,"x_max":1314,"o":"m 338 929 l 338 754 l 257 754 l 257 656 l 336 656 l 336 -119 l 144 -119 l 144 572 l 65 572 l 65 765 l 144 765 l 144 947 l 219 947 l 219 1122 l 413 1122 l 413 929 l 338 929 m 410 735 l 767 735 l 767 856 l 469 856 l 469 1049 l 767 1049 l 767 1122 l 957 1122 l 957 1049 l 1250 1049 l 1250 856 l 957 856 l 957 735 l 1299 735 l 1299 631 l 1210 631 l 1210 542 l 410 542 l 410 735 m 957 206 l 957 68 l 1314 68 l 1314 -35 l 1222 -35 l 1222 -119 l 397 -119 l 397 68 l 767 68 l 767 206 l 454 206 l 454 400 l 767 400 l 767 504 l 957 504 l 957 400 l 1254 400 l 1254 206 l 957 206 z "},"佼":{"ha":1389,"x_min":61,"x_max":1311,"o":"m 961 1060 l 1286 1060 l 1286 867 l 449 867 l 449 1060 l 753 1060 l 738 1122 l 940 1122 l 961 1060 m 344 742 l 253 742 l 253 656 l 357 656 l 357 -119 l 165 -119 l 165 560 l 61 560 l 61 753 l 151 753 l 151 935 l 228 935 l 228 1118 l 421 1118 l 421 926 l 344 926 l 344 742 m 1311 656 l 1311 463 l 1131 463 l 993 290 l 1049 290 l 1049 172 l 1163 172 l 1163 68 l 1290 68 l 1290 -124 l 1097 -124 l 1097 -21 l 969 -21 l 969 97 l 856 97 l 856 118 l 665 -119 l 414 -119 l 739 282 l 586 469 l 576 446 l 382 446 l 533 810 l 725 810 l 626 569 l 747 569 l 860 432 l 968 567 l 1118 567 l 1118 618 l 1013 618 l 1013 811 l 1206 811 l 1206 656 l 1311 656 z "},"使":{"ha":1389,"x_min":58,"x_max":1301,"o":"m 324 754 l 251 754 l 251 656 l 335 656 l 335 -119 l 144 -119 l 144 572 l 58 572 l 58 765 l 131 765 l 131 947 l 206 947 l 206 1122 l 399 1122 l 399 929 l 324 929 l 324 754 m 1301 53 l 1301 -121 l 1053 -121 l 1053 -65 l 917 -65 l 917 -12 l 778 -12 l 778 58 l 625 -119 l 375 -119 l 558 90 l 558 135 l 419 135 l 419 310 l 594 310 l 594 243 l 693 243 l 761 321 l 761 336 l 444 336 l 444 815 l 761 815 l 761 860 l 426 860 l 426 1054 l 761 1054 l 761 1122 l 951 1122 l 951 1054 l 1286 1054 l 1286 860 l 951 860 l 951 815 l 1263 815 l 1263 336 l 951 336 l 951 260 l 868 163 l 953 163 l 953 108 l 1092 108 l 1092 53 l 1301 53 m 635 636 l 635 517 l 761 517 l 761 636 l 635 636 m 1069 517 l 1069 636 l 951 636 l 951 517 l 1069 517 z "},"侄":{"ha":1389,"x_min":61,"x_max":1286,"o":"m 156 943 l 231 943 l 231 1121 l 424 1121 l 424 928 l 349 928 l 349 751 l 254 751 l 254 656 l 357 656 l 357 -119 l 167 -119 l 167 575 l 61 575 l 61 767 l 156 767 l 156 943 m 475 808 l 608 808 l 608 907 l 461 907 l 461 1100 l 1279 1100 l 1279 907 l 801 907 l 801 785 l 668 785 l 668 719 l 963 719 l 963 842 l 1156 842 l 1156 719 l 1260 719 l 1260 526 l 475 526 l 475 808 m 949 188 l 949 68 l 1286 68 l 1286 -32 l 1186 -32 l 1186 -119 l 428 -119 l 428 68 l 758 68 l 758 188 l 474 188 l 474 382 l 758 382 l 758 479 l 949 479 l 949 382 l 1246 382 l 1246 188 l 949 188 z "},"侈":{"ha":1389,"x_min":64,"x_max":1279,"o":"m 347 744 l 257 744 l 257 656 l 357 656 l 357 -119 l 167 -119 l 167 561 l 64 561 l 64 754 l 154 754 l 154 938 l 232 938 l 232 1121 l 425 1121 l 425 971 l 472 971 l 472 1064 l 549 1064 l 549 1132 l 732 1132 l 732 1074 l 1264 1074 l 1264 713 l 431 468 l 431 650 l 650 718 l 650 829 l 835 829 l 835 776 l 1072 850 l 1072 881 l 572 881 l 572 788 l 388 788 l 388 928 l 347 928 l 347 744 m 550 493 l 1279 493 l 1279 147 l 1193 147 l 1193 49 l 1093 49 l 1093 -51 l 967 -51 l 967 -119 l 429 -119 l 429 72 l 669 72 l 669 232 l 863 232 l 863 72 l 900 72 l 900 142 l 1000 142 l 1000 242 l 1088 242 l 1088 300 l 654 300 l 585 172 l 374 172 l 550 493 z "},"例":{"ha":1389,"x_min":43,"x_max":1278,"o":"m 299 704 l 231 704 l 231 644 l 335 644 l 335 -119 l 153 -119 l 153 546 l 43 546 l 43 733 l 111 733 l 111 892 l 183 892 l 183 1122 l 371 1122 l 371 843 l 299 843 l 299 704 m 1103 64 l 1103 1122 l 1278 1122 l 1278 -28 l 1190 -28 l 1190 -119 l 979 -119 l 979 64 l 1103 64 m 482 901 l 410 901 l 410 1094 l 860 1094 l 860 901 l 665 901 l 644 832 l 849 832 l 849 310 l 790 310 l 790 149 l 682 149 l 682 -3 l 571 -3 l 571 -121 l 389 -121 l 389 61 l 499 61 l 499 179 l 608 179 l 608 331 l 667 331 l 667 644 l 589 644 l 551 519 l 365 519 l 482 901 m 890 1043 l 1061 1043 l 1061 154 l 890 154 l 890 1043 m 390 457 l 583 457 l 583 264 l 390 264 l 390 457 z "},"侍":{"ha":1389,"x_min":75,"x_max":1292,"o":"m 358 931 l 358 756 l 268 756 l 268 656 l 357 656 l 357 -119 l 165 -119 l 165 576 l 75 576 l 75 768 l 165 768 l 165 949 l 244 949 l 244 1124 l 438 1124 l 438 931 l 358 931 m 951 850 l 951 764 l 1292 764 l 1292 569 l 419 569 l 419 764 l 761 764 l 761 850 l 476 850 l 476 1043 l 761 1043 l 761 1122 l 951 1122 l 951 1043 l 1232 1043 l 1232 942 l 1133 942 l 1133 850 l 951 850 m 1031 528 l 1221 528 l 1221 456 l 1283 456 l 1283 263 l 1221 263 l 1221 -24 l 1121 -24 l 1121 -119 l 861 -119 l 861 68 l 1031 68 l 1031 263 l 419 263 l 419 456 l 1031 456 l 1031 528 m 499 226 l 692 226 l 692 125 l 797 125 l 797 -67 l 604 -67 l 604 33 l 499 33 l 499 226 z "},"侗":{"ha":1389,"x_min":56,"x_max":1286,"o":"m 121 947 l 190 947 l 190 1122 l 382 1122 l 382 929 l 314 929 l 314 754 l 249 754 l 249 656 l 349 656 l 349 -119 l 167 -119 l 167 569 l 56 569 l 56 763 l 121 763 l 121 947 m 414 -119 l 414 1100 l 1286 1100 l 1286 -36 l 1200 -36 l 1200 -119 l 979 -119 l 979 68 l 1108 68 l 1108 913 l 592 913 l 592 -119 l 414 -119 m 642 847 l 1058 847 l 1058 658 l 642 658 l 642 847 m 1058 124 l 642 124 l 642 593 l 975 593 l 975 510 l 1058 510 l 1058 124 m 893 433 l 808 433 l 808 283 l 893 283 l 893 433 z "},"供":{"ha":1389,"x_min":63,"x_max":1286,"o":"m 325 754 l 256 754 l 256 656 l 357 656 l 357 -119 l 167 -119 l 167 572 l 63 572 l 63 765 l 132 765 l 132 947 l 206 947 l 206 1122 l 399 1122 l 399 929 l 325 929 l 325 754 m 1175 764 l 1175 450 l 1286 450 l 1286 257 l 404 257 l 404 450 l 518 450 l 518 764 l 419 764 l 419 958 l 518 958 l 518 1122 l 710 1122 l 710 958 l 985 958 l 985 1122 l 1175 1122 l 1175 958 l 1275 958 l 1275 764 l 1175 764 m 985 764 l 710 764 l 710 450 l 985 450 l 985 764 m 613 -119 l 393 -119 l 558 197 l 779 197 l 613 -119 m 949 197 l 1144 197 l 1144 74 l 1278 74 l 1278 -121 l 1083 -121 l 1083 3 l 949 3 l 949 197 z "},"依":{"ha":1389,"x_min":75,"x_max":1311,"o":"m 726 147 l 946 147 l 946 -28 l 724 -28 l 724 -108 l 451 -108 l 451 67 l 536 67 l 536 417 l 353 417 l 353 -119 l 163 -119 l 163 574 l 75 574 l 75 767 l 151 767 l 151 949 l 231 949 l 231 1122 l 424 1122 l 424 929 l 344 929 l 344 756 l 268 756 l 268 656 l 353 656 l 353 421 l 642 829 l 453 829 l 453 1024 l 772 1024 l 744 1122 l 947 1122 l 975 1024 l 1299 1024 l 1299 829 l 875 829 l 643 513 l 726 513 l 726 147 m 1224 186 l 1224 61 l 1311 61 l 1311 -115 l 1135 -115 l 1135 10 l 1047 10 l 1047 167 l 963 167 l 963 319 l 886 319 l 886 419 l 824 419 l 824 751 l 1000 751 l 1000 494 l 1038 494 l 1038 617 l 1276 617 l 1276 440 l 1061 440 l 1061 342 l 1139 342 l 1139 186 l 1224 186 z "},"侠":{"ha":1389,"x_min":58,"x_max":1299,"o":"m 1299 333 l 947 333 l 947 332 l 926 304 l 1046 304 l 1046 174 l 1158 174 l 1158 64 l 1272 64 l 1272 -121 l 1086 -121 l 1086 -12 l 972 -12 l 972 119 l 860 119 l 860 213 l 618 -119 l 383 -119 l 718 333 l 397 333 l 397 528 l 757 528 l 757 857 l 426 857 l 426 1046 l 757 1046 l 757 1128 l 947 1128 l 947 1046 l 1267 1046 l 1267 857 l 947 857 l 947 528 l 1299 528 l 1299 333 m 329 754 l 251 754 l 251 656 l 357 656 l 357 -119 l 165 -119 l 165 572 l 58 572 l 58 765 l 136 765 l 136 946 l 206 946 l 206 1121 l 399 1121 l 399 929 l 329 929 l 329 754 m 979 572 l 979 740 l 1086 740 l 1086 814 l 1253 814 l 1253 647 l 1147 647 l 1147 572 l 979 572 m 417 813 l 628 813 l 731 572 l 526 572 l 417 813 z "},"侣":{"ha":1389,"x_min":53,"x_max":1278,"o":"m 229 1128 l 422 1128 l 422 813 l 331 813 l 331 688 l 246 688 l 246 624 l 365 624 l 365 -119 l 174 -119 l 174 531 l 53 531 l 53 724 l 138 724 l 138 881 l 229 881 l 229 1128 m 465 1099 l 1242 1099 l 1242 556 l 465 556 l 465 1099 m 657 749 l 1050 749 l 1050 907 l 657 907 l 657 749 m 429 -119 l 429 463 l 1278 463 l 1278 -22 l 1172 -22 l 1172 -119 l 429 -119 m 619 72 l 1086 72 l 1086 268 l 619 268 l 619 72 z "},"侥":{"ha":1389,"x_min":61,"x_max":1290,"o":"m 343 744 l 254 744 l 254 656 l 354 656 l 354 -119 l 163 -119 l 163 561 l 61 561 l 61 754 l 150 754 l 150 938 l 235 938 l 235 1121 l 428 1121 l 428 928 l 343 928 l 343 744 m 967 496 l 819 496 l 819 578 l 439 432 l 439 621 l 697 718 l 640 858 l 450 832 l 450 1013 l 571 1026 l 535 1117 l 736 1117 l 764 1050 l 1254 1108 l 1254 943 l 835 885 l 876 785 l 1254 926 l 1254 743 l 999 646 l 999 607 l 1263 607 l 1263 428 l 967 428 l 967 496 m 1117 53 l 1131 121 l 1290 121 l 1257 -119 l 893 -119 l 893 217 l 743 217 l 743 75 l 693 75 l 693 -32 l 601 -32 l 601 -119 l 421 -119 l 421 60 l 513 60 l 513 147 l 564 147 l 564 217 l 422 217 l 422 393 l 1285 393 l 1285 217 l 1078 217 l 1078 53 l 1117 53 z "},"侦":{"ha":1389,"x_min":69,"x_max":1292,"o":"m 150 947 l 224 947 l 224 1122 l 417 1122 l 417 929 l 343 929 l 343 754 l 263 754 l 263 656 l 349 656 l 349 -119 l 158 -119 l 158 574 l 69 574 l 69 767 l 150 767 l 150 947 m 875 1122 l 875 1083 l 1292 1083 l 1292 989 l 1197 989 l 1197 901 l 875 901 l 875 839 l 1274 839 l 1274 172 l 1082 172 l 1082 644 l 657 644 l 657 172 l 465 172 l 465 839 l 683 839 l 683 1122 l 875 1122 m 965 150 l 1121 150 l 1121 74 l 1278 74 l 1278 -119 l 1085 -119 l 1085 -43 l 926 -43 l 926 42 l 457 -131 l 457 67 l 774 186 l 774 564 l 965 564 l 965 150 z "},"侧":{"ha":1389,"x_min":54,"x_max":1278,"o":"m 1126 61 l 1126 1122 l 1278 1122 l 1278 -35 l 1193 -35 l 1193 -119 l 1007 -119 l 1007 61 l 1126 61 m 164 1121 l 340 1121 l 340 825 l 279 825 l 279 701 l 231 701 l 231 638 l 335 638 l 335 -119 l 164 -119 l 164 549 l 54 549 l 54 725 l 103 725 l 103 878 l 164 878 l 164 1121 m 517 186 l 372 186 l 372 1096 l 906 1096 l 906 186 l 761 186 l 761 910 l 517 910 l 517 186 m 944 1060 l 1086 1060 l 1086 140 l 944 140 l 944 1060 m 721 160 l 815 160 l 815 57 l 896 57 l 896 -119 l 719 -119 l 719 -17 l 639 -17 l 639 35 l 375 -131 l 375 78 l 556 194 l 556 839 l 721 839 l 721 160 z "},"侨":{"ha":1389,"x_min":61,"x_max":1306,"o":"m 1306 806 l 1306 614 l 1133 614 l 1133 582 l 1299 582 l 1299 389 l 1026 389 l 1026 526 l 940 526 l 940 614 l 819 614 l 628 388 l 368 388 l 568 614 l 413 614 l 413 806 l 674 806 l 717 913 l 451 901 l 451 1094 l 1281 1128 l 1281 938 l 942 922 l 901 806 l 1306 806 m 346 760 l 254 760 l 254 658 l 354 658 l 354 -119 l 163 -119 l 163 589 l 61 589 l 61 782 l 153 782 l 153 953 l 229 953 l 229 1118 l 422 1118 l 422 925 l 346 925 l 346 760 m 469 161 l 517 161 l 517 357 l 710 357 l 710 122 l 646 122 l 646 -17 l 567 -17 l 567 -122 l 389 -122 l 389 54 l 469 54 l 469 161 m 1229 -119 l 1038 -119 l 1038 357 l 1229 357 l 1229 -119 z "},"侮":{"ha":1389,"x_min":78,"x_max":1307,"o":"m 351 754 l 271 754 l 271 650 l 371 650 l 371 -119 l 189 -119 l 189 572 l 78 572 l 78 765 l 158 765 l 158 947 l 232 947 l 232 1122 l 425 1122 l 425 929 l 351 929 l 351 754 m 1289 886 l 640 886 l 640 829 l 457 829 l 457 1013 l 539 1013 l 539 1121 l 722 1121 l 722 1068 l 1289 1068 l 1289 886 m 1256 439 l 1307 439 l 1307 257 l 1251 257 l 1246 -25 l 1147 -25 l 1147 -115 l 432 -115 l 467 257 l 408 257 l 408 439 l 485 439 l 518 793 l 1264 793 l 1256 439 m 1072 606 l 686 606 l 674 439 l 789 439 l 789 557 l 961 557 l 961 439 l 1068 439 l 1072 606 m 946 64 l 1058 64 l 1064 257 l 661 257 l 647 64 l 775 64 l 775 190 l 946 190 l 946 64 z "},"侯":{"ha":1389,"x_min":54,"x_max":1292,"o":"m 326 754 l 247 754 l 247 644 l 335 644 l 335 -119 l 144 -119 l 144 574 l 54 574 l 54 765 l 135 765 l 135 947 l 208 947 l 208 1122 l 401 1122 l 401 929 l 326 929 l 326 754 m 399 857 l 992 857 l 999 929 l 451 929 l 451 1100 l 1208 1100 l 1185 857 l 1275 857 l 1275 681 l 399 681 l 399 857 m 1172 93 l 1172 44 l 1292 44 l 1292 -121 l 1126 -121 l 1126 -74 l 1006 -74 l 1006 -25 l 875 -25 l 875 6 l 392 -128 l 392 64 l 744 154 l 744 178 l 394 178 l 394 354 l 744 354 l 744 439 l 578 439 l 578 406 l 400 406 l 400 585 l 496 585 l 496 646 l 675 646 l 675 614 l 1236 614 l 1236 439 l 938 439 l 938 354 l 1279 354 l 1279 178 l 938 178 l 938 142 l 1040 142 l 1040 93 l 1172 93 z "},"侵":{"ha":1389,"x_min":57,"x_max":1278,"o":"m 326 754 l 250 754 l 250 668 l 343 668 l 343 -119 l 151 -119 l 151 574 l 57 574 l 57 767 l 133 767 l 133 947 l 207 947 l 207 1122 l 400 1122 l 400 929 l 326 929 l 326 754 m 1163 1024 l 1257 1024 l 1257 588 l 422 588 l 422 731 l 1067 731 l 1067 774 l 444 774 l 444 917 l 1067 917 l 1067 958 l 429 958 l 429 1100 l 1163 1100 l 1163 1024 m 382 371 l 382 546 l 1278 546 l 1278 371 l 1086 371 l 1086 408 l 574 408 l 574 371 l 382 371 m 1078 6 l 1268 6 l 1268 -119 l 1039 -119 l 1039 -89 l 953 -89 l 953 -51 l 847 -51 l 847 -14 l 397 -137 l 397 3 l 567 47 l 493 47 l 493 172 l 618 172 l 618 144 l 821 144 l 821 114 l 1067 178 l 1067 189 l 425 189 l 425 331 l 1238 331 l 1238 94 l 1026 36 l 1078 36 l 1078 6 z "},"便":{"ha":1389,"x_min":71,"x_max":1279,"o":"m 157 953 l 221 953 l 221 1121 l 414 1121 l 414 928 l 350 928 l 350 760 l 264 760 l 264 667 l 354 667 l 354 -119 l 163 -119 l 163 574 l 71 574 l 71 765 l 157 765 l 157 953 m 1279 74 l 1279 -119 l 928 -119 l 928 -53 l 775 -53 l 775 -3 l 771 -3 l 710 -122 l 483 -122 l 574 42 l 424 42 l 424 235 l 617 235 l 617 190 l 657 190 l 696 260 l 436 260 l 436 857 l 738 857 l 738 924 l 453 924 l 453 1100 l 1265 1100 l 1265 924 l 929 924 l 929 857 l 1246 857 l 1246 260 l 903 260 l 843 140 l 968 140 l 968 74 l 1279 74 m 738 632 l 738 707 l 613 707 l 613 632 l 738 632 m 1067 632 l 1067 707 l 929 707 l 929 632 l 1067 632 m 738 488 l 613 488 l 613 411 l 738 411 l 738 488 m 929 488 l 929 411 l 1067 411 l 1067 488 l 929 488 z "},"促":{"ha":1389,"x_min":67,"x_max":1278,"o":"m 340 929 l 340 754 l 260 754 l 260 656 l 340 656 l 340 -119 l 149 -119 l 149 572 l 67 572 l 67 765 l 147 765 l 147 947 l 222 947 l 222 1122 l 414 1122 l 414 929 l 340 929 m 981 217 l 981 68 l 1278 68 l 1278 -119 l 783 -119 l 660 -15 l 572 -15 l 572 -118 l 379 -118 l 379 75 l 486 75 l 486 444 l 678 444 l 678 215 l 789 114 l 789 542 l 472 542 l 472 1100 l 1167 1100 l 1167 1015 l 1260 1015 l 1260 542 l 981 542 l 981 411 l 1243 411 l 1243 304 l 1151 304 l 1151 217 l 981 217 m 1068 907 l 665 907 l 665 735 l 1068 735 l 1068 907 z "},"俄":{"ha":1389,"x_min":60,"x_max":1301,"o":"m 860 1122 l 1042 1122 l 1051 793 l 1296 793 l 1296 606 l 1057 606 l 1063 408 l 1263 569 l 1263 349 l 1082 197 l 1153 197 l 1153 69 l 1271 69 l 1271 -121 l 1081 -121 l 1081 6 l 963 6 l 963 97 l 763 -69 l 763 167 l 896 274 l 882 606 l 713 606 l 713 494 l 833 536 l 833 314 l 713 269 l 713 -12 l 625 -12 l 625 -119 l 431 -119 l 431 64 l 528 64 l 528 203 l 404 157 l 404 388 l 528 431 l 528 606 l 389 606 l 389 793 l 528 793 l 528 875 l 421 875 l 421 1068 l 610 1068 l 610 1124 l 801 1124 l 801 931 l 713 931 l 713 793 l 874 793 l 860 1122 m 326 763 l 253 763 l 253 656 l 343 656 l 343 -119 l 153 -119 l 153 581 l 60 581 l 60 774 l 133 774 l 133 956 l 208 956 l 208 1122 l 401 1122 l 401 929 l 326 929 l 326 763 m 1240 1097 l 1240 1018 l 1301 1018 l 1301 851 l 1135 851 l 1135 931 l 1072 931 l 1072 1097 l 1240 1097 z "},"俊":{"ha":1389,"x_min":90,"x_max":1331,"o":"m 967 1089 l 1186 1089 l 1331 821 l 396 821 l 557 1124 l 765 1124 l 708 1004 l 1013 1004 l 967 1089 m 363 754 l 283 754 l 283 657 l 381 657 l 381 -119 l 190 -119 l 190 574 l 90 574 l 90 767 l 169 767 l 169 947 l 238 947 l 238 1121 l 431 1121 l 431 928 l 363 928 l 363 754 m 786 815 l 786 625 l 425 492 l 425 681 l 786 815 m 1118 726 l 1304 726 l 1304 543 l 1054 543 l 1054 611 l 935 611 l 935 794 l 1118 794 l 1118 726 m 1040 107 l 1168 107 l 1168 56 l 1297 56 l 1297 -119 l 1122 -119 l 1122 -67 l 994 -67 l 994 11 l 851 11 l 851 31 l 425 -140 l 425 47 l 681 153 l 681 281 l 856 281 l 856 225 l 1083 319 l 1083 325 l 651 325 l 628 172 l 431 172 l 488 508 l 1272 508 l 1272 200 l 1040 107 z "},"俏":{"ha":1389,"x_min":65,"x_max":1278,"o":"m 146 947 l 221 947 l 221 1122 l 413 1122 l 413 929 l 339 929 l 339 754 l 258 754 l 258 661 l 361 661 l 361 -119 l 169 -119 l 169 572 l 65 572 l 65 765 l 146 765 l 146 947 m 1143 943 l 1143 901 l 1278 901 l 1278 -32 l 1186 -32 l 1186 -119 l 997 -119 l 997 74 l 1088 74 l 1088 143 l 621 143 l 621 -119 l 431 -119 l 431 901 l 540 901 l 458 1099 l 650 1099 l 726 901 l 758 901 l 758 1122 l 950 1122 l 950 901 l 986 901 l 986 1025 l 1079 1025 l 1079 1101 l 1236 1101 l 1236 943 l 1143 943 m 621 618 l 1088 618 l 1088 707 l 621 707 l 621 618 m 621 425 l 621 336 l 1088 336 l 1088 425 l 621 425 z "},"俐":{"ha":1389,"x_min":61,"x_max":1278,"o":"m 1113 64 l 1113 1122 l 1278 1122 l 1278 -32 l 1189 -32 l 1189 -119 l 1008 -119 l 1008 64 l 1113 64 m 303 667 l 254 667 l 254 629 l 322 629 l 322 -119 l 140 -119 l 140 531 l 61 531 l 61 724 l 110 724 l 110 860 l 178 860 l 178 1118 l 371 1118 l 371 796 l 303 796 l 303 667 m 882 772 l 882 588 l 715 588 l 715 -119 l 546 -119 l 546 588 l 378 588 l 378 772 l 546 772 l 546 865 l 396 865 l 396 1053 l 613 1053 l 613 1099 l 875 1099 l 875 913 l 715 913 l 715 772 l 882 772 m 919 1054 l 1075 1054 l 1075 167 l 919 167 l 919 1054 m 489 -47 l 347 -47 l 397 501 l 535 501 l 489 -47 m 883 118 l 929 118 l 929 -29 l 782 -29 l 782 79 l 735 79 l 735 500 l 883 500 l 883 118 z "},"俑":{"ha":1389,"x_min":56,"x_max":1268,"o":"m 121 943 l 203 943 l 203 1119 l 393 1119 l 393 931 l 311 931 l 311 754 l 246 754 l 246 671 l 335 671 l 335 -119 l 144 -119 l 144 592 l 56 592 l 56 782 l 121 782 l 121 943 m 432 1100 l 1268 1100 l 1268 967 l 1124 815 l 1268 815 l 1268 -35 l 1176 -35 l 1176 -119 l 1008 -119 l 1008 40 l 1081 40 l 1081 121 l 936 121 l 936 -119 l 750 -119 l 750 121 l 611 121 l 611 -119 l 424 -119 l 424 815 l 681 815 l 681 871 l 869 871 l 869 815 l 872 815 l 961 907 l 432 907 l 432 1100 m 750 557 l 750 636 l 611 636 l 611 557 l 750 557 m 936 557 l 1081 557 l 1081 636 l 936 636 l 936 557 m 611 378 l 611 300 l 750 300 l 750 378 l 611 378 m 936 378 l 936 300 l 1081 300 l 1081 378 l 936 378 z "},"俗":{"ha":1389,"x_min":72,"x_max":1308,"o":"m 344 754 l 265 754 l 265 656 l 358 656 l 358 -119 l 167 -119 l 167 572 l 72 572 l 72 765 l 153 765 l 153 947 l 226 947 l 226 1122 l 419 1122 l 419 929 l 344 929 l 344 754 m 707 878 l 619 878 l 619 796 l 435 796 l 435 979 l 522 979 l 522 1061 l 614 1061 l 614 1122 l 799 1122 l 799 939 l 707 939 l 707 878 m 1096 861 l 1008 861 l 1008 939 l 913 939 l 913 1122 l 1096 1122 l 1096 1046 l 1192 1046 l 1192 969 l 1279 969 l 1279 786 l 1096 786 l 1096 861 m 415 674 l 853 901 l 1308 678 l 1308 456 l 860 671 l 415 453 l 415 674 m 1156 -119 l 475 -119 l 475 468 l 1251 468 l 1251 -26 l 1156 -26 l 1156 -119 m 1060 274 l 667 274 l 667 68 l 1060 68 l 1060 274 z "},"俘":{"ha":1389,"x_min":71,"x_max":1294,"o":"m 151 947 l 225 947 l 225 1122 l 418 1122 l 418 929 l 344 929 l 344 754 l 264 754 l 264 656 l 375 656 l 375 -119 l 183 -119 l 183 572 l 71 572 l 71 765 l 151 765 l 151 947 m 1294 1122 l 1294 947 l 931 947 l 931 908 l 446 908 l 446 1083 l 849 1083 l 849 1122 l 1294 1122 m 1038 831 l 1122 831 l 1122 893 l 1290 893 l 1290 725 l 1206 725 l 1206 664 l 1038 664 l 1038 831 m 633 869 l 713 675 l 513 675 l 439 869 l 633 869 m 721 869 l 919 869 l 986 675 l 790 675 l 721 869 m 1258 626 l 1258 492 l 1140 376 l 1289 376 l 1289 188 l 1089 188 l 1089 -37 l 1001 -37 l 1001 -119 l 606 -119 l 606 64 l 896 64 l 896 188 l 422 188 l 422 376 l 896 376 l 950 439 l 463 439 l 463 626 l 1258 626 z "},"保":{"ha":1389,"x_min":57,"x_max":1308,"o":"m 321 754 l 249 754 l 249 656 l 336 656 l 336 -122 l 146 -122 l 146 574 l 57 574 l 57 765 l 128 765 l 128 947 l 199 947 l 199 1122 l 392 1122 l 392 929 l 321 929 l 321 754 m 1300 489 l 1300 294 l 949 294 l 949 -122 l 757 -122 l 757 294 l 406 294 l 406 489 l 757 489 l 757 579 l 425 579 l 425 1100 l 1182 1100 l 1182 1008 l 1279 1008 l 1279 579 l 949 579 l 949 489 l 1300 489 m 1089 910 l 618 910 l 618 769 l 1089 769 l 1089 910 m 575 -97 l 376 -97 l 522 240 l 715 240 l 575 -97 m 1201 238 l 1201 93 l 1308 93 l 1308 -100 l 1115 -100 l 1115 44 l 1008 44 l 1008 238 l 1201 238 z "},"俞":{"ha":1389,"x_min":103,"x_max":1289,"o":"m 1143 1051 l 1143 1015 l 1289 1015 l 1289 857 l 1131 857 l 1131 893 l 985 893 l 985 929 l 835 929 l 835 965 l 556 965 l 556 929 l 407 929 l 407 893 l 260 893 l 260 857 l 103 857 l 103 1015 l 250 1015 l 250 1051 l 399 1051 l 399 1086 l 543 1086 l 543 1124 l 850 1124 l 850 1086 l 992 1086 l 992 1051 l 1143 1051 m 279 860 l 1110 860 l 1110 704 l 279 704 l 279 860 m 978 29 l 1063 29 l 1063 650 l 1254 650 l 1254 -50 l 1183 -50 l 1183 -119 l 978 -119 l 978 29 m 131 647 l 664 647 l 664 569 l 746 569 l 746 -119 l 456 -119 l 456 40 l 556 40 l 556 110 l 322 110 l 322 -119 l 131 -119 l 131 647 m 808 579 l 999 579 l 999 58 l 808 58 l 808 579 m 556 447 l 556 504 l 322 504 l 322 447 l 556 447 m 322 310 l 322 249 l 556 249 l 556 310 l 322 310 z "},"信":{"ha":1389,"x_min":61,"x_max":1292,"o":"m 922 1128 l 942 1031 l 1292 1031 l 1292 836 l 436 836 l 436 1031 l 729 1031 l 710 1128 l 922 1128 m 142 961 l 217 961 l 217 1118 l 410 1118 l 410 925 l 335 925 l 335 768 l 254 768 l 254 656 l 354 656 l 354 -119 l 163 -119 l 163 589 l 61 589 l 61 782 l 142 782 l 142 961 m 1236 783 l 1236 689 l 1146 689 l 1146 603 l 476 603 l 476 783 l 1236 783 m 1236 369 l 476 369 l 476 550 l 1236 550 l 1236 369 m 1165 -119 l 453 -119 l 453 319 l 1264 319 l 1264 -26 l 1165 -26 l 1165 -119 m 1072 133 l 644 133 l 644 64 l 1072 64 l 1072 133 z "},"俩":{"ha":1389,"x_min":56,"x_max":1278,"o":"m 111 947 l 165 947 l 165 1122 l 358 1122 l 358 929 l 304 929 l 304 754 l 249 754 l 249 650 l 332 650 l 332 -119 l 149 -119 l 149 572 l 56 572 l 56 765 l 111 765 l 111 947 m 1189 1000 l 1189 913 l 1069 913 l 1069 758 l 1278 758 l 1278 -44 l 1200 -44 l 1200 -119 l 1040 -119 l 1040 58 l 1111 58 l 1111 582 l 1040 582 l 1040 417 l 1076 365 l 1076 61 l 964 243 l 843 61 l 843 351 l 885 419 l 885 582 l 765 582 l 765 406 l 801 354 l 801 64 l 693 232 l 582 50 l 582 349 l 614 408 l 614 582 l 543 582 l 543 -119 l 378 -119 l 378 758 l 585 758 l 585 913 l 388 913 l 388 1094 l 1278 1094 l 1278 1000 l 1189 1000 m 765 758 l 885 758 l 885 913 l 765 913 l 765 758 z "},"俭":{"ha":1389,"x_min":58,"x_max":1311,"o":"m 758 878 l 642 878 l 642 817 l 449 817 l 449 1010 l 565 1010 l 565 1071 l 682 1071 l 682 1132 l 1060 1132 l 1060 1071 l 1172 1071 l 1172 1010 l 1290 1010 l 1290 817 l 1097 817 l 1097 878 l 979 878 l 979 939 l 758 939 l 758 878 m 336 758 l 250 758 l 250 656 l 354 656 l 354 -119 l 163 -119 l 163 574 l 58 574 l 58 767 l 143 767 l 143 951 l 225 951 l 225 1121 l 418 1121 l 418 928 l 336 928 l 336 758 m 493 782 l 1222 782 l 1222 601 l 493 601 l 493 782 m 668 131 l 486 131 l 414 547 l 604 547 l 668 131 m 947 131 l 757 131 l 689 547 l 874 547 l 947 131 m 1175 175 l 1175 68 l 1311 68 l 1311 -119 l 408 -119 l 408 68 l 982 68 l 982 222 l 1065 222 l 1065 546 l 1258 546 l 1258 175 l 1175 175 z "},"修":{"ha":1389,"x_min":54,"x_max":1279,"o":"m 1279 1092 l 1279 804 l 1138 738 l 1138 683 l 1279 683 l 1279 518 l 1115 518 l 1115 600 l 972 600 l 972 661 l 571 474 l 571 674 l 772 764 l 772 876 l 936 876 l 936 839 l 1085 906 l 1085 913 l 749 913 l 722 769 l 540 769 l 614 1131 l 790 1131 l 783 1092 l 1279 1092 m 172 1121 l 356 1121 l 356 847 l 286 847 l 286 738 l 238 738 l 238 657 l 322 657 l 322 -119 l 140 -119 l 140 568 l 54 568 l 54 753 l 103 753 l 103 921 l 172 921 l 172 1121 m 364 842 l 528 842 l 528 108 l 364 108 l 364 842 m 650 313 l 650 485 l 1093 556 l 1093 388 l 650 313 m 1219 186 l 600 83 l 600 253 l 1219 357 l 1219 186 m 982 85 l 1099 85 l 1099 136 l 1263 136 l 1263 -28 l 1146 -28 l 1146 -79 l 997 -79 l 997 -122 l 525 -122 l 525 42 l 982 42 l 982 85 z "},"俯":{"ha":1389,"x_min":56,"x_max":1318,"o":"m 319 754 l 249 754 l 249 656 l 340 656 l 340 -119 l 163 -119 l 163 572 l 56 572 l 56 765 l 126 765 l 126 947 l 186 947 l 186 1122 l 379 1122 l 379 929 l 319 929 l 319 754 m 965 1122 l 986 1065 l 1318 1065 l 1318 872 l 590 872 l 590 -35 l 521 -35 l 521 -119 l 365 -119 l 365 36 l 422 36 l 422 1065 l 779 1065 l 758 1122 l 965 1122 m 826 540 l 771 540 l 771 475 l 833 475 l 833 -119 l 665 -119 l 665 397 l 608 397 l 608 561 l 664 561 l 664 703 l 725 703 l 725 826 l 888 826 l 888 664 l 826 664 l 826 540 m 1085 826 l 1253 826 l 1253 683 l 1310 683 l 1310 496 l 1253 496 l 1253 -36 l 1171 -36 l 1171 -119 l 949 -119 l 949 68 l 1085 68 l 1085 496 l 914 496 l 914 683 l 1085 683 l 1085 826 m 1054 304 l 1054 161 l 913 161 l 913 269 l 861 269 l 861 411 l 1003 411 l 1003 304 l 1054 304 z "},"俱":{"ha":1389,"x_min":57,"x_max":1306,"o":"m 331 758 l 249 758 l 249 657 l 354 657 l 354 -119 l 163 -119 l 163 575 l 57 575 l 57 768 l 138 768 l 138 951 l 225 951 l 225 1122 l 418 1122 l 418 929 l 331 929 l 331 758 m 1257 1019 l 1257 286 l 1306 286 l 1306 111 l 785 111 l 785 -54 l 415 -137 l 415 29 l 736 111 l 406 111 l 406 286 l 457 286 l 457 1101 l 1158 1101 l 1158 1019 l 1257 1019 m 1063 885 l 1063 946 l 651 946 l 651 885 l 1063 885 m 651 683 l 1063 683 l 1063 742 l 651 742 l 651 683 m 1063 486 l 1063 544 l 651 544 l 651 486 l 1063 486 m 1063 343 l 651 343 l 651 286 l 1063 286 l 1063 343 m 1085 50 l 1286 50 l 1286 -119 l 1038 -119 l 1038 -79 l 915 -79 l 915 92 l 1085 92 l 1085 50 z "},"俺":{"ha":1389,"x_min":58,"x_max":1288,"o":"m 578 718 l 324 718 l 540 894 l 399 894 l 399 1065 l 717 1065 l 740 1128 l 932 1128 l 919 1065 l 1275 1065 l 1275 894 l 1117 894 l 1117 871 l 1281 871 l 1281 699 l 1024 699 l 1024 801 l 944 801 l 944 894 l 797 894 l 578 718 m 315 754 l 251 754 l 251 644 l 344 644 l 344 -119 l 158 -119 l 158 572 l 58 572 l 58 765 l 122 765 l 122 946 l 178 946 l 178 1121 l 371 1121 l 371 929 l 315 929 l 315 754 m 1131 96 l 1288 96 l 1288 -61 l 1224 -61 l 1224 -119 l 732 -119 l 732 115 l 399 115 l 399 671 l 732 671 l 732 785 l 914 785 l 914 671 l 1249 671 l 1249 115 l 914 115 l 914 38 l 1131 38 l 1131 96 m 732 468 l 732 513 l 581 513 l 581 468 l 732 468 m 1065 468 l 1065 513 l 914 513 l 914 468 l 1065 468 m 581 317 l 581 271 l 732 271 l 732 317 l 581 317 m 914 317 l 914 271 l 1065 271 l 1065 317 l 914 317 z "},"倍":{"ha":1389,"x_min":68,"x_max":1299,"o":"m 342 754 l 261 754 l 261 665 l 351 665 l 351 -125 l 161 -125 l 161 574 l 68 574 l 68 765 l 149 765 l 149 947 l 222 947 l 222 1122 l 415 1122 l 415 929 l 342 929 l 342 754 m 944 1069 l 1264 1069 l 1264 875 l 450 875 l 450 1069 l 738 1069 l 719 1122 l 926 1122 l 944 1069 m 1194 829 l 1194 663 l 1299 663 l 1299 468 l 414 468 l 414 663 l 524 663 l 524 829 l 715 829 l 715 663 l 1001 663 l 1001 829 l 1194 829 m 1176 -119 l 467 -119 l 467 406 l 1264 406 l 1264 -35 l 1176 -35 l 1176 -119 m 1071 219 l 657 219 l 657 67 l 1071 67 l 1071 219 z "},"倒":{"ha":1389,"x_min":53,"x_max":1278,"o":"m 1106 68 l 1106 1122 l 1278 1122 l 1278 -32 l 1183 -32 l 1183 -119 l 957 -119 l 957 68 l 1106 68 m 150 1121 l 328 1121 l 328 840 l 274 840 l 274 699 l 231 699 l 231 644 l 321 644 l 321 -119 l 133 -119 l 133 557 l 53 557 l 53 735 l 94 735 l 94 876 l 150 876 l 150 1121 m 353 547 l 353 825 l 450 825 l 450 907 l 381 907 l 381 1099 l 864 1099 l 864 907 l 614 907 l 614 794 l 518 794 l 518 711 l 646 711 l 646 825 l 811 825 l 811 711 l 865 711 l 865 547 l 353 547 m 897 1000 l 1057 1000 l 1057 138 l 897 138 l 897 1000 m 706 235 l 706 147 l 867 147 l 867 -35 l 665 -35 l 665 -111 l 369 -111 l 369 72 l 514 72 l 514 235 l 369 235 l 369 429 l 514 429 l 514 499 l 706 499 l 706 429 l 857 429 l 857 235 l 706 235 z "},"倔":{"ha":1389,"x_min":61,"x_max":1285,"o":"m 324 749 l 254 749 l 254 656 l 357 656 l 357 -119 l 167 -119 l 167 560 l 61 560 l 61 753 l 131 753 l 131 940 l 207 940 l 207 1118 l 400 1118 l 400 926 l 324 926 l 324 749 m 1278 663 l 628 663 l 628 -12 l 583 -12 l 583 -119 l 390 -119 l 390 74 l 439 74 l 439 1100 l 1182 1100 l 1182 1008 l 1278 1008 l 1278 663 m 1092 844 l 1092 917 l 628 917 l 628 844 l 1092 844 m 1114 46 l 1114 188 l 1285 188 l 1285 -39 l 1201 -39 l 1201 -119 l 668 -119 l 668 188 l 839 188 l 839 46 l 889 46 l 889 243 l 685 243 l 685 574 l 851 574 l 851 414 l 889 414 l 889 618 l 1063 618 l 1063 414 l 1100 414 l 1100 574 l 1265 574 l 1265 243 l 1063 243 l 1063 46 l 1114 46 z "},"倘":{"ha":1389,"x_min":57,"x_max":1278,"o":"m 933 1128 l 933 850 l 1278 850 l 1278 -32 l 1192 -32 l 1192 -119 l 1071 -119 l 1071 68 l 1097 68 l 1097 656 l 574 656 l 574 -119 l 393 -119 l 393 850 l 743 850 l 743 1128 l 933 1128 m 126 944 l 188 944 l 188 1118 l 379 1118 l 379 925 l 319 925 l 319 751 l 250 751 l 250 656 l 338 656 l 338 -119 l 158 -119 l 158 572 l 57 572 l 57 765 l 126 765 l 126 944 m 608 1106 l 717 892 l 506 892 l 400 1106 l 608 1106 m 1244 935 l 1154 935 l 1154 883 l 983 883 l 983 1054 l 1074 1054 l 1074 1106 l 1244 1106 l 1244 935 m 628 582 l 957 582 l 957 490 l 1043 490 l 1043 -17 l 628 -17 l 628 582 m 801 175 l 869 175 l 869 390 l 801 390 l 801 175 z "},"候":{"ha":1389,"x_min":53,"x_max":1301,"o":"m 174 1122 l 357 1122 l 357 822 l 299 822 l 299 682 l 236 682 l 236 615 l 329 615 l 329 -119 l 146 -119 l 146 518 l 53 518 l 53 701 l 115 701 l 115 867 l 174 867 l 174 1122 m 1225 856 l 1292 856 l 1292 675 l 599 675 l 599 856 l 1028 856 l 1038 926 l 643 926 l 643 1100 l 1254 1100 l 1225 856 m 556 35 l 382 35 l 382 932 l 556 932 l 556 35 m 1174 119 l 1174 56 l 1301 56 l 1301 -118 l 1126 -118 l 1126 -54 l 1000 -54 l 1000 -11 l 600 -128 l 600 58 l 864 138 l 864 175 l 607 175 l 607 351 l 864 351 l 864 436 l 757 436 l 757 386 l 583 386 l 583 560 l 667 560 l 667 643 l 840 643 l 840 608 l 1276 608 l 1276 436 l 1056 436 l 1056 351 l 1294 351 l 1294 175 l 1056 175 l 1056 119 l 1174 119 z "},"倚":{"ha":1389,"x_min":69,"x_max":1308,"o":"m 349 754 l 263 754 l 263 660 l 357 660 l 357 -119 l 165 -119 l 165 592 l 69 592 l 69 785 l 156 785 l 156 947 l 228 947 l 228 1122 l 421 1122 l 421 929 l 349 929 l 349 754 m 969 883 l 826 883 l 640 725 l 390 725 l 581 883 l 460 883 l 460 1063 l 731 1063 l 757 1122 l 968 1122 l 947 1063 l 1289 1063 l 1289 883 l 1128 883 l 1128 851 l 1300 851 l 1300 708 l 1050 708 l 1050 811 l 969 811 l 969 883 m 421 678 l 1308 678 l 1308 493 l 1244 493 l 1244 -32 l 1147 -32 l 1147 -119 l 1006 -119 l 1006 61 l 1058 61 l 1058 493 l 421 493 l 421 678 m 449 442 l 882 442 l 882 350 l 981 350 l 981 -57 l 449 -57 l 449 442 m 635 121 l 794 121 l 794 263 l 635 263 l 635 121 z "},"借":{"ha":1389,"x_min":72,"x_max":1300,"o":"m 1156 865 l 1156 803 l 1300 803 l 1299 703 l 1206 703 l 1207 611 l 413 611 l 413 803 l 564 803 l 564 865 l 443 865 l 443 1060 l 564 1060 l 564 1122 l 756 1122 l 756 1060 l 967 1060 l 967 1122 l 1156 1122 l 1156 1060 l 1274 1060 l 1274 865 l 1156 865 m 347 754 l 265 754 l 265 656 l 357 656 l 357 -119 l 165 -119 l 165 579 l 72 579 l 72 772 l 154 772 l 154 947 l 224 947 l 224 1118 l 417 1118 l 417 926 l 347 926 l 347 754 m 967 865 l 756 865 l 756 803 l 967 803 l 967 865 m 1179 -119 l 443 -119 l 443 558 l 1274 558 l 1274 -28 l 1179 -28 l 1179 -119 m 1085 308 l 1085 365 l 631 365 l 631 308 l 1085 308 m 631 126 l 631 68 l 1085 68 l 1085 126 l 631 126 z "},"倡":{"ha":1389,"x_min":69,"x_max":1269,"o":"m 149 953 l 226 953 l 226 1122 l 419 1122 l 419 929 l 342 929 l 342 760 l 263 760 l 263 628 l 357 628 l 357 -119 l 167 -119 l 167 575 l 69 575 l 69 767 l 149 767 l 149 953 m 1146 1008 l 1243 1008 l 1243 528 l 449 528 l 449 1100 l 1146 1100 l 1146 1008 m 1053 889 l 1053 932 l 639 932 l 639 889 l 1053 889 m 639 733 l 639 686 l 1053 686 l 1053 733 l 639 733 m 425 -119 l 425 482 l 1269 482 l 1269 -22 l 1163 -22 l 1163 -119 l 425 -119 m 1079 260 l 1079 308 l 613 308 l 613 260 l 1079 260 m 613 100 l 613 50 l 1079 50 l 1079 100 l 613 100 z "},"倦":{"ha":1389,"x_min":60,"x_max":1324,"o":"m 340 763 l 253 763 l 253 656 l 347 656 l 347 -119 l 157 -119 l 157 578 l 60 578 l 60 769 l 147 769 l 147 956 l 228 956 l 228 1122 l 421 1122 l 421 929 l 340 929 l 340 763 m 1143 35 l 1143 92 l 1299 92 l 1299 -62 l 1224 -62 l 1224 -119 l 454 -119 l 454 400 l 357 400 l 486 549 l 381 549 l 381 701 l 615 701 l 632 753 l 446 753 l 446 907 l 682 907 l 753 1122 l 943 1122 l 871 907 l 1242 907 l 1242 753 l 819 753 l 803 701 l 1296 701 l 1296 549 l 1190 549 l 1324 406 l 1168 406 l 1168 121 l 832 121 l 832 274 l 978 274 l 978 336 l 644 336 l 644 35 l 1143 35 m 460 1122 l 669 1057 l 669 921 l 460 979 l 460 1122 m 1210 965 l 1131 965 l 1131 922 l 982 922 l 982 1072 l 1061 1072 l 1061 1114 l 1210 1114 l 1210 965 m 1029 492 l 978 549 l 707 549 l 657 492 l 1029 492 z "},"倩":{"ha":1389,"x_min":68,"x_max":1300,"o":"m 146 947 l 217 947 l 217 1122 l 410 1122 l 410 929 l 338 929 l 338 754 l 261 754 l 261 656 l 356 656 l 356 -119 l 164 -119 l 164 572 l 68 572 l 68 765 l 146 765 l 146 947 m 950 756 l 950 722 l 1300 722 l 1300 579 l 417 579 l 417 722 l 760 722 l 760 756 l 474 756 l 474 899 l 760 899 l 760 935 l 439 935 l 439 1086 l 760 1086 l 760 1122 l 950 1122 l 950 1086 l 1290 1086 l 1290 935 l 950 935 l 950 899 l 1254 899 l 1254 822 l 1182 822 l 1182 756 l 950 756 m 646 -119 l 453 -119 l 453 542 l 1264 542 l 1264 -54 l 1185 -54 l 1185 -119 l 979 -119 l 979 11 l 1071 11 l 1071 40 l 646 40 l 646 -119 m 1071 349 l 1071 393 l 646 393 l 646 349 l 1071 349 m 646 222 l 646 178 l 1071 178 l 1071 222 l 646 222 z "},"倪":{"ha":1389,"x_min":61,"x_max":1308,"o":"m 1119 68 l 1135 160 l 1308 160 l 1276 -119 l 893 -119 l 893 315 l 796 315 l 796 161 l 715 161 l 715 4 l 614 4 l 614 -121 l 421 -121 l 421 72 l 522 72 l 522 197 l 603 197 l 603 315 l 447 315 l 447 1072 l 819 1122 l 819 935 l 635 904 l 635 803 l 822 803 l 822 615 l 635 615 l 635 508 l 1060 508 l 1060 615 l 865 615 l 865 803 l 1060 803 l 1060 896 l 865 896 l 865 1089 l 1149 1089 l 1149 997 l 1246 997 l 1246 315 l 1083 315 l 1083 68 l 1119 68 m 142 942 l 221 942 l 221 1118 l 414 1118 l 414 926 l 335 926 l 335 750 l 253 750 l 253 656 l 357 656 l 357 -119 l 165 -119 l 165 560 l 61 560 l 61 753 l 142 753 l 142 942 z "},"倭":{"ha":1389,"x_min":60,"x_max":1275,"o":"m 326 760 l 253 760 l 253 657 l 357 657 l 357 -119 l 167 -119 l 167 576 l 60 576 l 60 769 l 133 769 l 133 953 l 210 953 l 210 1119 l 403 1119 l 403 926 l 326 926 l 326 760 m 943 914 l 943 861 l 1275 861 l 1275 682 l 1167 682 l 1167 642 l 1271 642 l 1271 465 l 1096 465 l 1096 543 l 990 543 l 990 682 l 943 682 l 943 481 l 757 481 l 757 682 l 410 682 l 410 861 l 757 861 l 757 908 l 438 901 l 438 1083 l 1263 1100 l 1263 921 l 943 914 m 490 654 l 704 654 l 604 500 l 386 500 l 490 654 m 511 475 l 701 475 l 692 436 l 1275 436 l 1275 257 l 1232 257 l 1232 113 l 1074 65 l 1074 32 l 1274 32 l 1274 -144 l 1011 -144 l 1011 -68 l 899 -68 l 899 1 l 864 1 l 410 -136 l 410 53 l 513 83 l 411 113 l 451 257 l 410 257 l 410 436 l 500 436 l 511 475 m 1042 244 l 1042 257 l 650 257 l 643 226 l 772 226 l 772 178 l 822 178 l 1042 244 z "},"债":{"ha":1389,"x_min":60,"x_max":1283,"o":"m 938 704 l 938 657 l 1283 657 l 1283 493 l 406 493 l 406 657 l 746 657 l 746 704 l 481 704 l 481 857 l 746 857 l 746 907 l 428 907 l 428 1069 l 746 1069 l 746 1124 l 938 1124 l 938 1069 l 1261 1069 l 1261 907 l 938 907 l 938 857 l 1206 857 l 1206 778 l 1128 778 l 1128 704 l 938 704 m 333 754 l 253 754 l 253 657 l 335 657 l 335 -119 l 150 -119 l 150 574 l 60 574 l 60 767 l 140 767 l 140 947 l 208 947 l 208 1122 l 401 1122 l 401 929 l 333 929 l 333 754 m 1253 454 l 1253 135 l 1060 135 l 1060 294 l 615 294 l 615 135 l 425 135 l 425 454 l 1253 454 m 1029 96 l 1154 96 l 1154 47 l 1274 47 l 1274 -119 l 1107 -119 l 1107 -71 l 988 -71 l 988 -14 l 863 -14 l 863 28 l 399 -135 l 399 44 l 746 169 l 746 257 l 932 257 l 932 153 l 1029 153 l 1029 96 z "},"值":{"ha":1389,"x_min":61,"x_max":1294,"o":"m 1232 756 l 1232 50 l 1294 50 l 1294 -119 l 424 -119 l 424 50 l 493 50 l 493 831 l 769 831 l 769 878 l 465 878 l 465 1049 l 769 1049 l 769 1122 l 961 1122 l 961 1049 l 1264 1049 l 1264 878 l 961 878 l 961 831 l 1118 831 l 1118 756 l 1232 756 m 339 761 l 254 761 l 254 656 l 357 656 l 357 -119 l 165 -119 l 165 574 l 61 574 l 61 767 l 146 767 l 146 954 l 238 954 l 238 1118 l 431 1118 l 431 926 l 339 926 l 339 761 m 1040 626 l 1040 669 l 683 669 l 683 626 l 1040 626 m 683 433 l 1040 433 l 1040 475 l 683 475 l 683 433 m 1040 243 l 1040 286 l 683 286 l 683 243 l 1040 243 m 1040 92 l 683 92 l 683 50 l 1040 50 l 1040 92 z "},"倾":{"ha":1389,"x_min":51,"x_max":1288,"o":"m 383 1124 l 563 1124 l 563 824 l 647 824 l 647 631 l 563 631 l 563 210 l 626 210 l 626 35 l 514 35 l 514 -57 l 339 -57 l 339 118 l 383 118 l 383 1124 m 276 721 l 224 721 l 224 644 l 301 644 l 301 -119 l 121 -119 l 121 576 l 51 576 l 51 749 l 106 749 l 106 892 l 175 892 l 175 1121 l 347 1121 l 347 833 l 276 833 l 276 721 m 689 878 l 826 878 l 851 940 l 665 940 l 665 1100 l 1283 1100 l 1283 940 l 1049 940 l 1022 878 l 1263 878 l 1263 189 l 1089 189 l 1089 719 l 856 719 l 856 189 l 689 189 l 689 878 m 1178 161 l 1178 60 l 1288 60 l 1288 -121 l 1106 -121 l 1106 -21 l 996 -21 l 996 39 l 665 -135 l 665 67 l 896 189 l 896 642 l 1051 642 l 1051 161 l 1178 161 z "},"偃":{"ha":1389,"x_min":57,"x_max":1272,"o":"m 131 936 l 196 936 l 196 1118 l 389 1118 l 389 926 l 324 926 l 324 743 l 250 743 l 250 656 l 357 656 l 357 -119 l 167 -119 l 167 560 l 57 560 l 57 753 l 131 753 l 131 936 m 1267 958 l 589 958 l 589 29 l 1267 29 l 1267 -119 l 511 -119 l 511 -26 l 419 -26 l 419 1106 l 1267 1106 l 1267 958 m 642 504 l 642 924 l 1168 924 l 1168 846 l 1260 846 l 1260 504 l 642 504 m 1106 767 l 1106 813 l 799 813 l 799 767 l 1106 767 m 799 663 l 799 614 l 1106 614 l 1106 663 l 799 663 m 889 482 l 883 463 l 1272 463 l 1272 319 l 1224 319 l 1224 214 l 1124 183 l 1250 183 l 1250 44 l 1057 44 l 1057 100 l 940 100 l 940 128 l 638 35 l 638 175 l 714 199 l 653 217 l 683 319 l 628 319 l 628 463 l 728 463 l 733 482 l 889 482 m 949 269 l 1074 308 l 1074 319 l 847 319 l 842 296 l 949 296 l 949 269 z "},"假":{"ha":1389,"x_min":61,"x_max":1311,"o":"m 178 1118 l 369 1118 l 369 796 l 301 796 l 301 667 l 253 667 l 253 615 l 326 615 l 326 -119 l 143 -119 l 143 531 l 61 531 l 61 724 l 108 724 l 108 860 l 178 860 l 178 1118 m 579 238 l 818 238 l 818 136 l 724 136 l 724 43 l 579 43 l 579 -119 l 394 -119 l 394 1100 l 818 1100 l 818 707 l 732 707 l 732 611 l 579 611 l 579 517 l 818 517 l 818 322 l 579 322 l 579 238 m 1278 719 l 1178 719 l 1178 615 l 864 615 l 864 810 l 1088 810 l 1088 907 l 864 907 l 864 1100 l 1278 1100 l 1278 719 m 661 907 l 581 907 l 581 803 l 661 803 l 661 907 m 1201 172 l 1201 74 l 1311 74 l 1311 -119 l 1118 -119 l 1118 -21 l 1046 -21 l 989 -119 l 778 -119 l 913 110 l 888 110 l 888 301 l 1025 301 l 1056 354 l 864 354 l 864 549 l 1278 549 l 1278 382 l 1157 172 l 1201 172 z "},"偎":{"ha":1389,"x_min":61,"x_max":1286,"o":"m 347 757 l 254 757 l 254 656 l 357 656 l 357 -119 l 167 -119 l 167 575 l 61 575 l 61 768 l 154 768 l 154 950 l 240 950 l 240 1122 l 433 1122 l 433 929 l 347 929 l 347 757 m 1151 1010 l 1253 1010 l 1253 499 l 456 499 l 456 1099 l 1151 1099 l 1151 1010 m 758 881 l 758 946 l 633 946 l 633 881 l 758 881 m 949 881 l 1076 881 l 1076 946 l 949 946 l 949 881 m 758 725 l 633 725 l 633 653 l 758 653 l 758 725 m 949 725 l 949 653 l 1076 653 l 1076 725 l 949 725 m 1286 263 l 1014 263 l 1014 164 l 1042 164 l 1067 225 l 1264 225 l 1206 74 l 1272 74 l 1272 -119 l 1079 -119 l 1079 -29 l 946 -29 l 946 107 l 821 107 l 821 263 l 672 263 l 672 82 l 813 97 l 813 -100 l 435 -128 l 435 56 l 481 61 l 481 263 l 411 263 l 411 457 l 1286 457 l 1286 263 z "},"偏":{"ha":1389,"x_min":44,"x_max":1283,"o":"m 917 1122 l 943 1036 l 1283 1036 l 1283 751 l 1196 751 l 1196 672 l 571 672 l 571 -35 l 503 -35 l 503 -119 l 326 -119 l 326 57 l 396 57 l 396 1036 l 740 1036 l 715 1122 l 917 1122 m 304 932 l 304 767 l 231 767 l 231 656 l 296 656 l 296 -119 l 121 -119 l 121 593 l 44 593 l 44 781 l 117 781 l 117 954 l 181 954 l 181 1118 l 368 1118 l 368 932 l 304 932 m 571 824 l 1110 824 l 1110 886 l 571 886 l 571 824 m 757 -119 l 599 -119 l 599 600 l 1278 600 l 1278 -44 l 1199 -44 l 1199 -119 l 1056 -119 l 1056 -94 l 965 -94 l 965 164 l 925 164 l 925 -94 l 799 -94 l 799 164 l 757 164 l 757 -119 m 799 322 l 799 444 l 757 444 l 757 322 l 799 322 m 925 444 l 925 322 l 965 322 l 965 444 l 925 444 m 1094 322 l 1133 322 l 1133 444 l 1094 444 l 1094 322 m 1094 164 l 1094 35 l 1133 35 l 1133 164 l 1094 164 z "},"做":{"ha":1389,"x_min":53,"x_max":1311,"o":"m 158 1122 l 339 1122 l 339 839 l 288 839 l 288 707 l 233 707 l 233 646 l 335 646 l 335 -119 l 149 -119 l 149 563 l 53 563 l 53 743 l 107 743 l 107 888 l 158 888 l 158 1122 m 510 1122 l 690 1122 l 690 979 l 833 979 l 833 788 l 690 788 l 690 633 l 817 633 l 817 -22 l 728 -22 l 728 -119 l 386 -119 l 386 633 l 510 633 l 510 788 l 368 788 l 368 979 l 510 979 l 510 1122 m 1311 872 l 1269 872 l 1269 656 l 1172 325 l 1225 325 l 1225 179 l 1299 179 l 1299 -121 l 1125 -121 l 1125 151 l 1121 151 l 1040 -119 l 844 -119 l 983 315 l 914 315 l 914 488 l 1038 488 l 1093 663 l 1093 872 l 1035 872 l 1010 585 l 844 585 l 888 1122 l 1056 1122 l 1051 1065 l 1311 1065 l 1311 872 m 567 68 l 633 68 l 633 439 l 567 439 l 567 68 z "},"停":{"ha":1389,"x_min":57,"x_max":1293,"o":"m 940 1086 l 1283 1086 l 1283 931 l 400 931 l 400 1086 l 736 1086 l 724 1138 l 929 1138 l 940 1086 m 124 946 l 178 946 l 178 1121 l 371 1121 l 371 928 l 317 928 l 317 753 l 250 753 l 250 638 l 336 638 l 336 -121 l 151 -121 l 151 572 l 57 572 l 57 765 l 124 765 l 124 946 m 457 544 l 457 881 l 1126 881 l 1126 811 l 1208 811 l 1208 544 l 457 544 m 643 683 l 1022 683 l 1022 740 l 643 740 l 643 683 m 381 219 l 381 490 l 1293 490 l 1293 219 l 1139 219 l 1139 342 l 535 342 l 535 219 l 381 219 m 768 131 l 568 131 l 568 285 l 1106 285 l 1106 131 l 954 131 l 954 -47 l 876 -47 l 876 -121 l 619 -121 l 619 22 l 768 22 l 768 131 z "},"健":{"ha":1389,"x_min":61,"x_max":1301,"o":"m 301 667 l 254 667 l 254 615 l 326 615 l 326 -119 l 144 -119 l 144 531 l 61 531 l 61 724 l 108 724 l 108 860 l 178 860 l 178 1118 l 371 1118 l 371 796 l 301 796 l 301 667 m 785 681 l 908 681 l 908 728 l 729 728 l 729 863 l 908 863 l 908 910 l 785 910 l 785 1049 l 908 1049 l 908 1106 l 1058 1106 l 1058 1049 l 1176 1049 l 1176 974 l 1253 974 l 1253 867 l 1294 867 l 1294 710 l 1253 710 l 1253 533 l 1058 533 l 1058 489 l 1238 489 l 1238 336 l 1058 336 l 1058 289 l 1274 289 l 1274 211 l 1203 211 l 1203 143 l 1058 143 l 1058 86 l 908 86 l 908 143 l 719 143 l 719 289 l 908 289 l 908 336 l 758 336 l 758 489 l 908 489 l 908 533 l 785 533 l 785 681 m 797 107 l 797 46 l 1301 46 l 1301 -119 l 714 -119 l 714 -67 l 622 -67 l 622 21 l 575 21 l 540 -119 l 354 -119 l 460 261 l 460 263 l 372 263 l 372 438 l 508 438 l 528 507 l 378 507 l 479 872 l 403 872 l 403 1065 l 704 1065 l 704 1014 l 610 701 l 724 701 l 724 635 l 635 269 l 635 194 l 706 194 l 706 107 l 797 107 m 1113 910 l 1058 910 l 1058 863 l 1113 863 l 1113 910 m 1058 728 l 1058 681 l 1113 681 l 1113 728 l 1058 728 z "},"偶":{"ha":1389,"x_min":58,"x_max":1278,"o":"m 131 946 l 200 946 l 200 1118 l 393 1118 l 393 926 l 322 926 l 322 753 l 251 753 l 251 671 l 357 671 l 357 -119 l 167 -119 l 167 575 l 58 575 l 58 767 l 131 767 l 131 946 m 939 501 l 939 460 l 1278 460 l 1278 -29 l 1185 -29 l 1185 -119 l 1008 -119 l 1008 17 l 1089 17 l 1089 289 l 939 289 l 939 197 l 974 197 l 971 258 l 1051 258 l 1068 40 l 640 40 l 640 197 l 750 197 l 750 289 l 603 289 l 603 -119 l 413 -119 l 413 460 l 750 460 l 750 501 l 424 501 l 424 1100 l 1171 1100 l 1171 1018 l 1269 1018 l 1269 501 l 939 501 m 750 886 l 750 943 l 613 943 l 613 886 l 750 886 m 939 886 l 1079 886 l 1079 943 l 939 943 l 939 886 m 613 731 l 613 674 l 750 674 l 750 731 l 613 731 m 939 731 l 939 674 l 1079 674 l 1079 731 l 939 731 z "},"偷":{"ha":1389,"x_min":51,"x_max":1275,"o":"m 1167 997 l 1167 936 l 1275 936 l 1275 775 l 1114 775 l 1114 838 l 1088 838 l 1088 713 l 550 713 l 550 838 l 515 838 l 515 775 l 354 775 l 354 929 l 310 929 l 310 754 l 244 754 l 244 656 l 325 656 l 325 -119 l 154 -119 l 154 572 l 51 572 l 51 765 l 117 765 l 117 947 l 193 947 l 193 1122 l 386 1122 l 386 936 l 458 936 l 458 997 l 574 997 l 574 1072 l 675 1072 l 675 1121 l 960 1121 l 960 1072 l 1060 1072 l 1060 997 l 1167 997 m 900 961 l 733 961 l 733 913 l 618 913 l 618 872 l 1007 872 l 1007 913 l 900 913 l 900 961 m 990 46 l 1097 46 l 1097 668 l 1263 668 l 1263 -44 l 1183 -44 l 1183 -119 l 990 -119 l 990 46 m 392 663 l 771 663 l 771 578 l 847 578 l 847 -119 l 617 -119 l 617 35 l 682 35 l 682 86 l 557 86 l 557 -119 l 392 -119 l 392 663 m 889 608 l 1054 608 l 1054 97 l 889 97 l 889 608 m 682 439 l 682 496 l 557 496 l 557 439 l 682 439 m 557 292 l 557 235 l 682 235 l 682 292 l 557 292 z "},"偿":{"ha":1389,"x_min":56,"x_max":1300,"o":"m 1100 764 l 581 764 l 581 715 l 389 715 l 389 940 l 504 940 l 439 1111 l 640 1111 l 710 940 l 763 940 l 763 1135 l 947 1135 l 947 940 l 994 940 l 1086 1111 l 1288 1111 l 1203 940 l 1288 940 l 1288 715 l 1100 715 l 1100 764 m 117 946 l 181 946 l 181 1121 l 374 1121 l 374 928 l 310 928 l 310 753 l 249 753 l 249 678 l 356 678 l 356 -119 l 164 -119 l 164 572 l 56 572 l 56 765 l 117 765 l 117 946 m 1238 485 l 461 485 l 461 674 l 1238 674 l 1238 485 m 740 235 l 740 135 l 647 135 l 647 69 l 1024 69 l 1024 190 l 1217 190 l 1217 69 l 1271 69 l 1271 -124 l 454 -124 l 454 171 l 549 171 l 549 235 l 386 235 l 386 422 l 1300 422 l 1300 235 l 740 235 z "},"傀":{"ha":1389,"x_min":63,"x_max":1326,"o":"m 1150 117 l 1326 117 l 1326 -60 l 1243 -60 l 1243 -119 l 822 -119 l 822 244 l 803 244 l 803 114 l 703 114 l 703 -14 l 599 -14 l 599 -119 l 406 -119 l 406 74 l 510 74 l 510 179 l 610 179 l 610 307 l 707 307 l 707 376 l 435 376 l 435 1060 l 696 1060 l 717 1125 l 925 1125 l 907 1060 l 1254 1060 l 1254 465 l 1157 465 l 1157 376 l 900 376 l 900 303 l 996 303 l 996 64 l 1150 64 l 1150 117 m 331 758 l 256 758 l 256 656 l 356 656 l 356 -119 l 165 -119 l 165 574 l 63 574 l 63 767 l 138 767 l 138 951 l 221 951 l 221 1119 l 414 1119 l 414 928 l 331 928 l 331 758 m 751 806 l 751 886 l 625 886 l 625 806 l 751 806 m 938 806 l 1065 806 l 1065 886 l 938 886 l 938 806 m 751 632 l 625 632 l 625 551 l 751 551 l 751 632 m 938 632 l 938 551 l 1065 551 l 1065 632 l 938 632 m 1138 253 l 1175 253 l 1171 319 l 1276 319 l 1304 136 l 1008 136 l 1040 346 l 1151 346 l 1138 253 z "},"傅":{"ha":1389,"x_min":51,"x_max":1318,"o":"m 322 754 l 244 754 l 244 656 l 354 656 l 354 -119 l 163 -119 l 163 572 l 51 572 l 51 765 l 129 765 l 129 947 l 204 947 l 204 1122 l 396 1122 l 396 929 l 322 929 l 322 754 m 735 357 l 596 357 l 596 289 l 403 289 l 403 875 l 735 875 l 735 917 l 424 917 l 424 1072 l 735 1072 l 735 1122 l 926 1122 l 926 1072 l 1118 1072 l 1118 917 l 926 917 l 926 875 l 1258 875 l 1258 317 l 1065 317 l 1065 357 l 926 357 l 926 297 l 735 297 l 735 357 m 1267 1122 l 1267 1058 l 1318 1058 l 1318 928 l 1186 928 l 1186 992 l 1135 992 l 1135 1122 l 1267 1122 m 735 678 l 735 725 l 596 725 l 596 678 l 735 678 m 1065 678 l 1065 725 l 926 725 l 926 678 l 1065 678 m 596 544 l 596 499 l 735 499 l 735 544 l 596 544 m 926 544 l 926 499 l 1065 499 l 1065 544 l 926 544 m 1038 286 l 1229 286 l 1229 250 l 1286 250 l 1286 92 l 1229 92 l 1229 -46 l 1146 -46 l 1146 -119 l 783 -119 l 783 35 l 1038 35 l 1038 92 l 394 92 l 394 250 l 1038 250 l 1038 286 m 664 -107 l 497 -107 l 497 61 l 664 61 l 664 -107 z "},"傈":{"ha":1389,"x_min":54,"x_max":1289,"o":"m 122 943 l 188 943 l 188 1118 l 381 1118 l 381 926 l 315 926 l 315 751 l 247 751 l 247 658 l 332 658 l 332 -119 l 150 -119 l 150 567 l 54 567 l 54 760 l 122 760 l 122 943 m 1278 515 l 1185 515 l 1185 429 l 403 429 l 403 868 l 624 868 l 624 917 l 408 917 l 408 1100 l 1278 1100 l 1278 917 l 1056 917 l 1056 868 l 1278 868 l 1278 515 m 881 917 l 800 917 l 800 868 l 881 868 l 881 917 m 638 700 l 558 700 l 558 596 l 638 596 l 638 700 m 881 596 l 881 700 l 800 700 l 800 596 l 881 596 m 1043 596 l 1122 596 l 1122 700 l 1043 700 l 1043 596 m 1283 351 l 1283 163 l 938 163 l 938 -119 l 750 -119 l 750 163 l 399 163 l 399 351 l 750 351 l 750 404 l 938 404 l 938 351 l 1283 351 m 1176 138 l 1176 65 l 1289 65 l 1289 -110 l 1114 -110 l 1114 -37 l 1000 -37 l 1000 138 l 1176 138 m 592 -101 l 389 -101 l 486 129 l 689 129 l 592 -101 z "},"傍":{"ha":1389,"x_min":28,"x_max":1276,"o":"m 285 819 l 285 689 l 219 689 l 219 656 l 349 656 l 349 -119 l 157 -119 l 157 540 l 28 540 l 28 733 l 92 733 l 92 882 l 156 882 l 156 1013 l 208 1013 l 208 1126 l 401 1126 l 401 933 l 349 933 l 349 819 l 285 819 m 925 1122 l 954 1063 l 1276 1063 l 1276 889 l 424 889 l 424 1063 l 744 1063 l 717 1122 l 925 1122 m 971 854 l 1164 854 l 1164 775 l 1276 775 l 1276 544 l 1086 544 l 1086 606 l 613 606 l 613 544 l 414 544 l 414 775 l 549 775 l 549 854 l 742 854 l 742 775 l 971 775 l 971 854 m 729 558 l 935 558 l 969 493 l 1276 493 l 1276 317 l 719 317 l 719 268 l 1271 268 l 1254 -35 l 1167 -35 l 1167 -119 l 853 -119 l 853 43 l 1065 43 l 1069 94 l 678 94 l 678 -32 l 579 -32 l 579 -122 l 386 -122 l 386 69 l 485 69 l 485 161 l 538 161 l 538 317 l 424 317 l 424 493 l 764 493 l 729 558 z "},"傣":{"ha":1389,"x_min":57,"x_max":1326,"o":"m 965 519 l 721 519 l 588 360 l 365 360 l 497 519 l 411 519 l 411 674 l 601 674 l 618 719 l 464 719 l 464 872 l 675 872 l 694 924 l 438 924 l 438 1078 l 751 1078 l 768 1124 l 965 1124 l 949 1078 l 1279 1078 l 1279 924 l 893 924 l 875 872 l 1249 872 l 1249 793 l 1169 793 l 1169 719 l 821 719 l 804 674 l 1289 674 l 1289 519 l 1194 519 l 1326 360 l 1104 360 l 965 519 m 331 754 l 250 754 l 250 657 l 342 657 l 342 -119 l 150 -119 l 150 574 l 57 574 l 57 767 l 138 767 l 138 947 l 213 947 l 213 1122 l 404 1122 l 404 929 l 331 929 l 331 754 m 1264 143 l 1171 143 l 1171 72 l 1268 72 l 1268 -100 l 1096 -100 l 1096 13 l 997 13 l 997 125 l 944 125 l 944 -119 l 679 -119 l 679 47 l 761 47 l 761 124 l 415 -137 l 415 72 l 511 144 l 432 144 l 432 317 l 604 317 l 604 215 l 761 335 l 761 468 l 944 468 l 944 297 l 1060 297 l 1060 185 l 1092 185 l 1092 315 l 1264 315 l 1264 143 z "},"储":{"ha":1389,"x_min":56,"x_max":1299,"o":"m 1299 1079 l 1299 911 l 1199 911 l 1199 797 l 1299 797 l 1299 599 l 942 599 l 942 536 l 1274 536 l 1274 -36 l 1186 -36 l 1186 -119 l 714 -119 l 714 371 l 656 371 l 656 538 l 774 538 l 774 599 l 650 599 l 650 797 l 789 797 l 789 860 l 675 860 l 675 1054 l 789 1054 l 789 1122 l 961 1122 l 961 1054 l 1065 1054 l 1065 949 l 1132 949 l 1132 1079 l 1299 1079 m 297 685 l 236 685 l 236 626 l 326 626 l 326 -119 l 144 -119 l 144 533 l 56 533 l 56 714 l 117 714 l 117 865 l 183 865 l 183 1121 l 364 1121 l 364 831 l 297 831 l 297 685 m 619 788 l 457 788 l 457 903 l 410 903 l 410 1065 l 572 1065 l 572 950 l 619 950 l 619 788 m 961 860 l 961 797 l 1031 797 l 1031 860 l 961 860 m 364 731 l 585 731 l 585 236 l 667 292 l 667 81 l 374 -115 l 374 92 l 408 115 l 408 536 l 364 536 l 364 731 m 892 289 l 1097 289 l 1097 346 l 892 346 l 892 289 m 889 124 l 889 67 l 1097 67 l 1097 124 l 889 124 z "},"催":{"ha":1389,"x_min":61,"x_max":1281,"o":"m 1278 888 l 1179 888 l 1179 797 l 440 797 l 440 1081 l 632 1081 l 632 979 l 765 979 l 765 1122 l 957 1122 l 957 979 l 1086 979 l 1086 1081 l 1278 1081 l 1278 888 m 340 757 l 254 757 l 254 656 l 357 656 l 357 -119 l 167 -119 l 167 574 l 61 574 l 61 767 l 147 767 l 147 950 l 213 950 l 213 1118 l 406 1118 l 406 926 l 340 926 l 340 757 m 1281 681 l 1281 515 l 1021 515 l 1021 471 l 1260 471 l 1260 314 l 1021 314 l 1021 268 l 1260 268 l 1260 113 l 1021 113 l 1021 67 l 1281 67 l 1281 -22 l 1197 -22 l 1197 -101 l 633 -101 l 633 -119 l 442 -119 l 442 478 l 383 478 l 383 671 l 461 671 l 461 765 l 654 765 l 654 681 l 810 681 l 794 756 l 997 756 l 1014 681 l 1281 681 m 633 471 l 829 471 l 829 515 l 633 515 l 633 471 m 633 268 l 829 268 l 829 314 l 633 314 l 633 268 m 633 67 l 829 67 l 829 113 l 633 113 l 633 67 z "},"傲":{"ha":1389,"x_min":53,"x_max":1300,"o":"m 819 406 l 610 406 l 607 354 l 822 354 l 822 -119 l 607 -119 l 607 58 l 638 58 l 638 160 l 593 160 l 582 -14 l 533 -14 l 533 -121 l 353 -121 l 353 58 l 415 58 l 439 406 l 371 406 l 371 593 l 501 593 l 501 642 l 386 642 l 386 829 l 501 829 l 501 878 l 371 878 l 371 1065 l 501 1065 l 501 1128 l 678 1128 l 678 1065 l 817 1065 l 817 878 l 678 878 l 678 829 l 790 829 l 790 642 l 678 642 l 678 593 l 819 593 l 819 406 m 1300 878 l 1264 878 l 1264 735 l 1163 375 l 1197 375 l 1197 214 l 1288 214 l 1288 -121 l 1107 -121 l 1107 176 l 1024 -119 l 839 -119 l 968 349 l 918 349 l 918 529 l 1018 529 l 1083 764 l 1083 878 l 1050 878 l 1010 582 l 833 582 l 904 1128 l 1083 1128 l 1075 1065 l 1300 1065 l 1300 878 m 161 1122 l 342 1122 l 342 807 l 285 807 l 285 667 l 232 667 l 232 596 l 326 596 l 326 -119 l 143 -119 l 143 500 l 53 500 l 53 681 l 104 681 l 104 846 l 161 846 l 161 1122 z "},"傻":{"ha":1389,"x_min":57,"x_max":1306,"o":"m 1063 31 l 1263 31 l 1263 -119 l 1036 -119 l 1036 -64 l 913 -64 l 913 -11 l 817 -11 l 389 -140 l 389 18 l 622 86 l 622 186 l 772 186 l 772 139 l 801 139 l 1043 210 l 1043 224 l 594 224 l 546 129 l 357 129 l 450 310 l 374 310 l 476 444 l 403 444 l 403 1067 l 654 1067 l 689 1124 l 897 1124 l 863 1067 l 1264 1067 l 1264 444 l 1188 444 l 1306 310 l 1207 310 l 1207 107 l 1063 64 l 1063 31 m 321 754 l 249 754 l 249 642 l 335 642 l 335 -119 l 161 -119 l 161 574 l 57 574 l 57 767 l 128 767 l 128 947 l 188 947 l 188 1122 l 381 1122 l 381 929 l 321 929 l 321 754 m 1103 918 l 560 918 l 560 593 l 1103 593 l 1103 918 m 717 847 l 819 847 l 819 817 l 1064 907 l 1064 785 l 968 749 l 968 735 l 1063 735 l 1063 617 l 944 617 l 944 660 l 850 660 l 850 706 l 599 611 l 599 735 l 701 772 l 701 779 l 599 779 l 599 897 l 717 897 l 717 847 m 1040 372 l 976 444 l 690 444 l 635 372 l 1040 372 z "},"像":{"ha":1389,"x_min":61,"x_max":1314,"o":"m 1275 865 l 1275 513 l 936 513 l 992 401 l 992 -119 l 699 -119 l 699 14 l 815 14 l 815 65 l 396 -112 l 396 35 l 815 221 l 815 265 l 396 83 l 396 235 l 797 407 l 776 453 l 396 283 l 396 442 l 565 513 l 415 513 l 415 778 l 356 778 l 356 931 l 311 931 l 311 756 l 253 756 l 253 674 l 332 674 l 332 -119 l 150 -119 l 150 589 l 61 589 l 61 782 l 119 782 l 119 949 l 181 949 l 181 1124 l 372 1124 l 372 965 l 440 965 l 440 1119 l 626 1119 l 626 1063 l 1247 1063 l 1193 865 l 1275 865 m 542 861 l 1001 864 l 1018 917 l 542 917 l 542 861 m 597 661 l 753 661 l 753 713 l 597 713 l 597 661 m 933 661 l 1093 661 l 1093 713 l 933 713 l 933 661 m 1240 192 l 1240 54 l 1314 54 l 1314 -119 l 1140 -119 l 1140 17 l 1067 17 l 1067 168 l 1024 168 l 1024 482 l 1197 482 l 1197 433 l 1293 433 l 1293 260 l 1197 260 l 1197 192 l 1240 192 z "},"僚":{"ha":1389,"x_min":56,"x_max":1294,"o":"m 1294 1078 l 1294 913 l 928 913 l 928 890 l 1064 890 l 1064 808 l 1119 808 l 1119 881 l 1274 881 l 1274 728 l 1183 728 l 1183 701 l 1218 701 l 1218 700 l 1293 700 l 1293 532 l 1218 532 l 1218 149 l 932 149 l 932 -119 l 675 -119 l 675 46 l 751 46 l 751 149 l 447 149 l 447 528 l 371 479 l 371 689 l 417 718 l 417 868 l 581 868 l 581 821 l 725 913 l 394 913 l 394 1078 l 740 1078 l 740 1128 l 928 1128 l 928 1078 l 1294 1078 m 300 754 l 249 754 l 249 656 l 332 656 l 332 -119 l 150 -119 l 150 572 l 56 572 l 56 765 l 108 765 l 108 946 l 176 946 l 176 1121 l 369 1121 l 369 929 l 300 929 l 300 754 m 897 818 l 717 701 l 1017 701 l 1017 722 l 897 722 l 897 818 m 1035 496 l 1035 547 l 628 547 l 628 496 l 1035 496 m 628 354 l 628 303 l 1035 303 l 1035 354 l 628 354 m 996 101 l 1151 101 l 1151 54 l 1251 54 l 1251 -103 l 1094 -103 l 1094 -54 l 996 -54 l 996 101 m 354 -96 l 481 100 l 681 100 l 556 -96 l 354 -96 z "},"僧":{"ha":1389,"x_min":57,"x_max":1278,"o":"m 1221 1125 l 1190 1063 l 1278 1063 l 1278 564 l 1188 564 l 1188 482 l 397 482 l 397 1063 l 490 1063 l 454 1125 l 674 1125 l 710 1063 l 976 1063 l 1011 1125 l 1221 1125 m 118 953 l 179 953 l 179 1121 l 372 1121 l 372 929 l 311 929 l 311 760 l 250 760 l 250 658 l 326 658 l 326 -119 l 144 -119 l 144 589 l 57 589 l 57 782 l 118 782 l 118 953 m 749 907 l 578 907 l 578 639 l 749 639 l 749 907 m 931 639 l 1099 639 l 1099 907 l 931 907 l 931 639 m 597 708 l 597 838 l 725 838 l 725 708 l 597 708 m 1078 838 l 1078 708 l 950 708 l 950 838 l 1078 838 m 1154 -119 l 428 -119 l 428 439 l 1253 439 l 1253 -33 l 1154 -33 l 1154 -119 m 1060 238 l 1060 282 l 618 282 l 618 238 l 1060 238 m 618 81 l 618 35 l 1060 35 l 1060 81 l 618 81 z "},"僵":{"ha":1389,"x_min":33,"x_max":1282,"o":"m 101 951 l 174 951 l 174 1118 l 367 1118 l 367 926 l 294 926 l 294 758 l 225 758 l 225 658 l 328 658 l 328 -119 l 144 -119 l 144 588 l 33 588 l 33 781 l 101 781 l 101 951 m 394 983 l 394 1108 l 1282 1108 l 1282 983 l 394 983 m 429 594 l 429 950 l 1174 950 l 1174 896 l 1253 896 l 1253 594 l 429 594 m 764 814 l 764 847 l 601 847 l 601 814 l 764 814 m 919 814 l 1082 814 l 1082 847 l 919 847 l 919 814 m 764 731 l 601 731 l 601 697 l 764 697 l 764 731 m 919 731 l 919 697 l 1082 697 l 1082 731 l 919 731 m 1282 429 l 394 429 l 394 563 l 1282 563 l 1282 429 m 1253 394 l 1253 101 l 1165 101 l 1165 36 l 429 36 l 429 394 l 1253 394 m 764 258 l 764 293 l 601 293 l 601 258 l 764 258 m 919 258 l 1082 258 l 1082 293 l 919 293 l 919 258 m 764 174 l 601 174 l 601 140 l 764 140 l 764 174 m 919 174 l 919 140 l 1082 140 l 1082 174 l 919 174 m 1282 -119 l 394 -119 l 394 1 l 1282 1 l 1282 -119 z "},"僻":{"ha":1389,"x_min":57,"x_max":1281,"o":"m 1151 1065 l 1279 1065 l 1279 886 l 849 886 l 849 1065 l 965 1065 l 950 1122 l 1136 1122 l 1151 1065 m 311 763 l 250 763 l 250 658 l 326 658 l 326 -119 l 144 -119 l 144 582 l 57 582 l 57 775 l 118 775 l 118 956 l 185 956 l 185 1119 l 378 1119 l 378 928 l 311 928 l 311 763 m 350 515 l 406 515 l 406 1089 l 803 1089 l 803 536 l 581 536 l 581 456 l 797 456 l 797 -15 l 706 -15 l 706 -119 l 406 -119 l 406 322 l 350 322 l 350 515 m 629 715 l 629 910 l 581 910 l 581 715 l 629 715 m 1281 596 l 1281 419 l 1149 419 l 1149 258 l 1264 258 l 1264 82 l 1149 82 l 1149 -119 l 976 -119 l 976 82 l 863 82 l 863 258 l 976 258 l 976 419 l 842 419 l 842 596 l 893 596 l 860 844 l 1015 844 l 1047 596 l 1075 596 l 1075 721 l 1126 721 l 1126 844 l 1274 844 l 1274 697 l 1222 697 l 1222 596 l 1281 596 m 581 56 l 624 56 l 624 276 l 581 276 l 581 56 z "},"儋":{"ha":1389,"x_min":53,"x_max":1289,"o":"m 304 754 l 246 754 l 246 656 l 339 656 l 339 -119 l 157 -119 l 157 572 l 53 572 l 53 765 l 111 765 l 111 947 l 175 947 l 175 1122 l 368 1122 l 368 929 l 304 929 l 304 754 m 631 1072 l 1289 1072 l 1239 917 l 1281 917 l 1281 788 l 558 788 l 558 149 l 521 -119 l 346 -119 l 389 181 l 389 747 l 338 747 l 338 917 l 404 917 l 404 1022 l 461 1022 l 461 1121 l 631 1121 l 631 1072 m 1069 917 l 1079 951 l 574 951 l 574 917 l 1069 917 m 575 756 l 871 779 l 871 675 l 575 644 l 575 756 m 1268 753 l 1268 653 l 1050 653 l 1050 675 l 958 675 l 958 774 l 1057 774 l 1057 753 l 1268 753 m 828 658 l 1010 658 l 1026 626 l 1268 626 l 1268 501 l 585 501 l 585 626 l 844 626 l 828 658 m 1249 468 l 1249 400 l 1189 400 l 1189 343 l 601 343 l 601 468 l 1249 468 m 1249 178 l 594 178 l 594 308 l 1249 308 l 1249 178 m 1201 -119 l 579 -119 l 579 143 l 1268 143 l 1268 -61 l 1201 -61 l 1201 -119 m 1101 38 l 751 38 l 751 -7 l 1101 -7 l 1101 38 z "},"儒":{"ha":1389,"x_min":67,"x_max":1297,"o":"m 147 946 l 221 946 l 221 1121 l 414 1121 l 414 928 l 340 928 l 340 753 l 260 753 l 260 668 l 360 668 l 360 -119 l 168 -119 l 168 571 l 67 571 l 67 764 l 147 764 l 147 946 m 783 735 l 614 735 l 614 569 l 446 569 l 446 907 l 783 907 l 783 949 l 453 949 l 453 1106 l 1285 1106 l 1285 949 l 954 949 l 954 907 l 1207 907 l 1207 829 l 1292 829 l 1292 569 l 1124 569 l 1124 735 l 954 735 l 954 569 l 783 569 l 783 735 m 758 693 l 758 575 l 640 575 l 640 693 l 758 693 m 1100 693 l 1100 575 l 981 575 l 981 693 l 1100 693 m 1297 528 l 1297 371 l 851 371 l 839 328 l 1289 328 l 1289 -46 l 1213 -46 l 1213 -119 l 1090 -119 l 1090 50 l 1126 50 l 1126 172 l 1040 172 l 1040 -104 l 911 -104 l 911 172 l 826 172 l 826 -104 l 696 -104 l 696 172 l 613 172 l 613 -119 l 447 -119 l 447 328 l 639 328 l 654 371 l 442 371 l 442 528 l 1297 528 z "},"儡":{"ha":1389,"x_min":56,"x_max":1278,"o":"m 315 754 l 249 754 l 249 653 l 326 653 l 326 -119 l 167 -119 l 167 572 l 56 572 l 56 765 l 122 765 l 122 947 l 189 947 l 189 1122 l 381 1122 l 381 929 l 315 929 l 315 754 m 1156 1026 l 1238 1026 l 1238 579 l 408 579 l 408 1097 l 1156 1097 l 1156 1026 m 739 910 l 739 961 l 575 961 l 575 910 l 739 910 m 906 910 l 1072 910 l 1072 961 l 906 961 l 906 910 m 739 772 l 575 772 l 575 722 l 739 722 l 739 772 m 906 772 l 906 722 l 1072 722 l 1072 772 l 906 772 m 371 522 l 731 522 l 731 454 l 800 454 l 800 -117 l 371 -117 l 371 522 m 840 -117 l 840 522 l 1278 522 l 1278 -44 l 1204 -44 l 1204 -117 l 840 -117 m 536 289 l 536 368 l 489 368 l 489 289 l 536 289 m 639 289 l 686 289 l 686 368 l 639 368 l 639 289 m 1010 289 l 1010 368 l 963 368 l 963 289 l 1010 289 m 1115 289 l 1163 289 l 1163 368 l 1115 368 l 1115 289 m 536 124 l 489 124 l 489 38 l 536 38 l 536 124 m 639 124 l 639 38 l 686 38 l 686 124 l 639 124 m 1010 124 l 963 124 l 963 38 l 1010 38 l 1010 124 m 1115 124 l 1115 38 l 1163 38 l 1163 124 l 1115 124 z "},"儿":{"ha":1389,"x_min":131,"x_max":1294,"o":"m 233 193 l 335 193 l 335 1090 l 526 1090 l 526 128 l 424 128 l 424 1 l 322 1 l 322 -119 l 131 -119 l 131 72 l 233 72 l 233 193 m 1083 69 l 1118 226 l 1294 226 l 1225 -119 l 800 -119 l 800 1090 l 993 1090 l 993 69 l 1083 69 z "},"允":{"ha":1389,"x_min":79,"x_max":1324,"o":"m 1100 68 l 1146 265 l 1324 265 l 1233 -119 l 835 -119 l 835 536 l 494 536 l 494 183 l 419 183 l 419 21 l 297 21 l 297 -119 l 106 -119 l 106 74 l 226 74 l 226 213 l 301 213 l 301 536 l 79 536 l 350 1122 l 560 1122 l 379 731 l 1021 731 l 917 1008 l 1124 1008 l 1307 536 l 1026 536 l 1026 68 l 1100 68 z "},"元":{"ha":1389,"x_min":99,"x_max":1326,"o":"m 142 1096 l 1240 1096 l 1240 901 l 142 901 l 142 1096 m 1114 81 l 1146 226 l 1326 226 l 1257 -108 l 829 -108 l 829 457 l 574 457 l 574 317 l 507 317 l 507 167 l 439 167 l 439 17 l 318 17 l 318 -119 l 115 -119 l 115 85 l 236 85 l 236 219 l 303 219 l 303 371 l 369 371 l 369 457 l 99 457 l 99 651 l 1290 651 l 1290 457 l 1021 457 l 1021 81 l 1114 81 z "},"兄":{"ha":1389,"x_min":114,"x_max":1315,"o":"m 1097 69 l 1140 226 l 1315 226 l 1250 -119 l 797 -119 l 797 385 l 550 385 l 550 208 l 446 208 l 446 28 l 318 28 l 318 -119 l 114 -119 l 114 85 l 243 85 l 243 232 l 346 232 l 346 385 l 156 385 l 156 1103 l 1125 1103 l 1125 1001 l 1232 1001 l 1232 385 l 989 385 l 989 69 l 1097 69 m 1040 910 l 346 910 l 346 579 l 1040 579 l 1040 910 z "},"充":{"ha":1389,"x_min":103,"x_max":1294,"o":"m 1090 64 l 1115 175 l 1294 175 l 1238 -119 l 790 -119 l 790 408 l 551 408 l 551 224 l 447 224 l 447 36 l 322 36 l 322 -119 l 118 -119 l 118 85 l 243 85 l 243 240 l 347 240 l 347 408 l 103 408 l 303 836 l 121 836 l 121 1024 l 596 1024 l 568 1100 l 782 1100 l 817 1024 l 1267 1024 l 1267 836 l 507 836 l 399 590 l 1015 590 l 967 756 l 1158 756 l 1267 408 l 978 408 l 978 64 l 1090 64 z "},"兆":{"ha":1389,"x_min":108,"x_max":1303,"o":"m 304 1026 l 444 679 l 444 1122 l 636 1122 l 636 160 l 543 160 l 543 42 l 443 42 l 443 -51 l 332 -51 l 332 -121 l 140 -121 l 140 72 l 250 72 l 250 142 l 350 142 l 350 235 l 444 235 l 444 379 l 115 139 l 115 381 l 444 608 l 444 665 l 251 665 l 108 1026 l 304 1026 m 1089 68 l 1114 140 l 1303 140 l 1221 -119 l 749 -119 l 749 1122 l 942 1122 l 942 601 l 1276 411 l 1276 178 l 942 361 l 942 68 l 1089 68 m 1246 843 l 1185 843 l 1185 665 l 992 665 l 992 857 l 1053 857 l 1053 1036 l 1246 1036 l 1246 843 z "},"先":{"ha":1389,"x_min":106,"x_max":1326,"o":"m 1090 68 l 1136 214 l 1326 214 l 1238 -119 l 778 -119 l 778 393 l 550 393 l 550 222 l 442 222 l 442 39 l 318 39 l 318 -119 l 114 -119 l 114 83 l 239 83 l 239 243 l 346 243 l 346 393 l 119 393 l 119 588 l 601 588 l 601 832 l 365 832 l 365 786 l 310 786 l 310 667 l 106 667 l 106 869 l 161 869 l 161 989 l 221 989 l 221 1106 l 425 1106 l 425 1026 l 601 1026 l 601 1128 l 793 1128 l 793 1026 l 1228 1026 l 1228 832 l 793 832 l 793 588 l 1265 588 l 1265 393 l 963 393 l 963 68 l 1090 68 z "},"光":{"ha":1389,"x_min":111,"x_max":1325,"o":"m 1096 68 l 1146 279 l 1325 279 l 1239 -119 l 818 -119 l 818 450 l 603 450 l 603 317 l 508 317 l 508 157 l 424 157 l 424 -3 l 315 -3 l 315 -119 l 111 -119 l 111 83 l 219 83 l 219 200 l 306 200 l 306 361 l 399 361 l 399 450 l 115 450 l 115 644 l 597 644 l 597 1122 l 788 1122 l 788 644 l 1272 644 l 1272 450 l 1008 450 l 1008 68 l 1096 68 m 1150 800 l 1056 800 l 1056 700 l 854 700 l 854 901 l 949 901 l 949 1001 l 1051 1001 l 1051 1101 l 1253 1101 l 1253 900 l 1150 900 l 1150 800 m 331 1099 l 547 707 l 322 707 l 113 1099 l 331 1099 z "},"克":{"ha":1389,"x_min":106,"x_max":1315,"o":"m 1115 68 l 1140 151 l 1315 151 l 1261 -119 l 824 -119 l 824 249 l 583 249 l 583 118 l 460 118 l 460 -24 l 310 -24 l 310 -121 l 106 -121 l 106 82 l 256 82 l 256 181 l 381 181 l 381 249 l 133 249 l 133 800 l 599 800 l 599 863 l 106 863 l 106 1051 l 599 1051 l 599 1122 l 790 1122 l 790 1051 l 1285 1051 l 1285 863 l 790 863 l 790 800 l 1157 800 l 1157 717 l 1254 717 l 1254 249 l 1014 249 l 1014 68 l 1115 68 m 1061 614 l 326 614 l 326 443 l 1061 443 l 1061 614 z "},"免":{"ha":1389,"x_min":83,"x_max":1300,"o":"m 1082 79 l 1108 168 l 1300 168 l 1229 -104 l 679 -104 l 679 161 l 567 161 l 567 18 l 393 18 l 393 -110 l 110 -110 l 110 94 l 364 94 l 364 222 l 500 222 l 500 274 l 142 274 l 142 675 l 83 675 l 83 876 l 164 876 l 164 1001 l 243 1001 l 243 1121 l 444 1121 l 444 1039 l 1235 1039 l 1138 769 l 1243 769 l 1243 274 l 704 274 l 704 225 l 871 225 l 871 79 l 1082 79 m 285 769 l 932 769 l 965 853 l 365 853 l 365 800 l 285 800 l 285 769 m 593 582 l 335 582 l 335 463 l 593 463 l 593 582 m 783 463 l 1051 463 l 1051 582 l 783 582 l 783 463 z "},"兑":{"ha":1389,"x_min":132,"x_max":1300,"o":"m 1083 81 l 1111 175 l 1300 175 l 1228 -103 l 778 -103 l 778 297 l 579 297 l 579 133 l 463 133 l 463 8 l 336 8 l 336 -119 l 132 -119 l 132 85 l 258 85 l 258 213 l 375 213 l 375 297 l 158 297 l 158 961 l 333 961 l 265 1103 l 479 1103 l 550 961 l 831 961 l 894 1103 l 1111 1103 l 1050 961 l 1235 961 l 1235 297 l 968 297 l 968 81 l 1083 81 m 1043 774 l 353 774 l 353 486 l 1043 486 l 1043 774 z "},"兔":{"ha":1389,"x_min":71,"x_max":1336,"o":"m 1107 67 l 1140 151 l 1336 151 l 1251 -122 l 643 -122 l 643 215 l 603 215 l 603 90 l 489 90 l 489 -26 l 365 -26 l 365 -124 l 92 -124 l 92 68 l 297 68 l 297 165 l 411 165 l 411 282 l 549 282 l 549 325 l 149 325 l 149 678 l 71 678 l 71 879 l 156 879 l 156 1001 l 239 1001 l 239 1121 l 440 1121 l 440 1075 l 1186 1075 l 1108 807 l 1246 807 l 1246 325 l 740 325 l 740 256 l 833 256 l 833 67 l 1107 67 m 357 807 l 907 807 l 931 886 l 357 886 l 357 807 m 596 618 l 338 618 l 338 513 l 596 513 l 596 618 m 788 513 l 1053 513 l 1053 618 l 788 618 l 788 513 m 1076 288 l 1076 113 l 901 113 l 901 288 l 1076 288 z "},"兖":{"ha":1389,"x_min":106,"x_max":1297,"o":"m 124 596 l 124 790 l 504 860 l 115 860 l 115 1049 l 601 1049 l 575 1122 l 778 1122 l 813 1049 l 1275 1049 l 1275 860 l 581 860 l 581 690 l 124 596 m 967 603 l 967 654 l 806 654 l 806 833 l 985 833 l 985 783 l 1261 783 l 1261 603 l 967 603 m 1021 68 l 1097 68 l 1115 143 l 1294 143 l 1238 -119 l 829 -119 l 829 292 l 561 292 l 561 143 l 461 143 l 461 -6 l 326 -6 l 326 -119 l 122 -119 l 122 83 l 258 83 l 258 197 l 357 197 l 357 292 l 106 292 l 260 607 l 469 607 l 414 485 l 1007 485 l 971 564 l 1172 564 l 1297 292 l 1021 292 l 1021 68 z "},"党":{"ha":1389,"x_min":113,"x_max":1314,"o":"m 1089 772 l 304 772 l 304 686 l 113 686 l 113 961 l 253 961 l 185 1097 l 399 1097 l 469 961 l 601 961 l 601 1122 l 789 1122 l 789 961 l 925 961 l 1007 1097 l 1222 1097 l 1142 961 l 1279 961 l 1279 686 l 1089 686 l 1089 772 m 1101 68 l 1129 167 l 1314 167 l 1249 -119 l 801 -119 l 801 217 l 590 217 l 590 82 l 486 82 l 486 -40 l 350 -40 l 350 -121 l 147 -121 l 147 82 l 282 82 l 282 164 l 388 164 l 388 217 l 204 217 l 204 663 l 1090 663 l 1090 581 l 1186 581 l 1186 217 l 993 217 l 993 68 l 1101 68 m 996 474 l 394 474 l 394 406 l 996 406 l 996 474 z "},"兜":{"ha":1389,"x_min":88,"x_max":1292,"o":"m 953 475 l 858 475 l 858 379 l 431 379 l 431 1060 l 567 1060 l 589 1122 l 789 1122 l 771 1060 l 953 1060 l 953 475 m 306 589 l 389 613 l 389 410 l 88 325 l 88 526 l 118 535 l 118 1043 l 388 1106 l 388 907 l 306 883 l 306 589 m 1165 961 l 1269 961 l 1269 379 l 989 379 l 989 572 l 1082 572 l 1082 865 l 992 865 l 992 1060 l 1165 1060 l 1165 961 m 615 814 l 767 814 l 767 872 l 615 872 l 615 814 m 615 625 l 615 567 l 767 567 l 767 625 l 615 625 m 246 196 l 379 196 l 379 331 l 572 331 l 572 139 l 439 139 l 439 3 l 299 3 l 299 -119 l 106 -119 l 106 74 l 246 74 l 246 196 m 1079 68 l 1108 151 l 1292 151 l 1218 -119 l 751 -119 l 751 328 l 943 328 l 943 68 l 1079 68 z "},"兢":{"ha":1389,"x_min":63,"x_max":1336,"o":"m 379 -135 l 379 72 l 411 90 l 411 314 l 358 314 l 358 153 l 304 153 l 304 17 l 244 17 l 244 -118 l 63 -118 l 63 64 l 122 64 l 122 197 l 176 197 l 176 314 l 121 314 l 121 793 l 304 793 l 304 867 l 117 867 l 117 1060 l 304 1060 l 304 1124 l 490 1124 l 490 1060 l 672 1060 l 672 867 l 490 867 l 490 793 l 664 793 l 664 314 l 599 314 l 599 194 l 700 250 l 700 38 l 379 -135 m 1192 190 l 1336 190 l 1336 -43 l 1271 -43 l 1271 -119 l 982 -119 l 982 314 l 979 314 l 854 -119 l 669 -119 l 788 314 l 721 314 l 721 793 l 908 793 l 908 867 l 715 867 l 715 1060 l 908 1060 l 908 1124 l 1094 1124 l 1094 1060 l 1278 1060 l 1278 867 l 1094 867 l 1094 793 l 1278 793 l 1278 314 l 1167 314 l 1167 69 l 1192 69 l 1192 190 m 479 600 l 304 600 l 304 507 l 479 507 l 479 600 m 1094 600 l 904 600 l 904 507 l 1094 507 l 1094 600 z "},"入":{"ha":1389,"x_min":69,"x_max":1313,"o":"m 238 1108 l 925 1010 l 1313 -119 l 1104 -119 l 779 833 l 628 856 l 411 139 l 344 139 l 344 4 l 263 4 l 263 -119 l 69 -119 l 69 74 l 153 74 l 153 197 l 221 197 l 435 883 l 238 913 l 238 1108 z "},"全":{"ha":1389,"x_min":103,"x_max":1285,"o":"m 1151 1022 l 1151 964 l 1285 964 l 1285 783 l 1104 783 l 1104 842 l 972 842 l 972 904 l 821 904 l 821 943 l 564 943 l 564 904 l 442 904 l 442 842 l 283 842 l 283 783 l 103 783 l 103 964 l 261 964 l 261 1022 l 383 1022 l 383 1085 l 528 1085 l 528 1124 l 860 1124 l 860 1085 l 1001 1085 l 1001 1022 l 1151 1022 m 1232 222 l 788 222 l 788 74 l 1279 74 l 1279 -26 l 1189 -26 l 1189 -115 l 110 -115 l 110 74 l 601 74 l 601 222 l 160 222 l 160 417 l 601 417 l 601 564 l 217 564 l 217 758 l 1168 758 l 1168 564 l 788 564 l 788 417 l 1232 417 l 1232 222 z "},"八":{"ha":1389,"x_min":93,"x_max":1300,"o":"m 1226 207 l 1226 96 l 1300 96 l 1300 -108 l 1096 -108 l 1096 3 l 1022 3 l 1022 138 l 947 138 l 707 1108 l 921 1108 l 1143 207 l 1226 207 m 304 -107 l 93 -107 l 426 1072 l 631 1072 l 304 -107 z "},"公":{"ha":1389,"x_min":67,"x_max":1331,"o":"m 1021 1106 l 1331 474 l 1114 474 l 814 1106 l 1021 1106 m 360 1100 l 575 1100 l 279 476 l 67 476 l 360 1100 m 429 72 l 1254 72 l 1254 -118 l 135 -118 l 135 72 l 239 72 l 239 293 l 389 293 l 389 539 l 557 539 l 557 640 l 747 640 l 747 451 l 579 451 l 579 182 l 429 182 l 429 72 m 913 139 l 913 425 l 1103 425 l 1103 139 l 913 139 z "},"六":{"ha":1389,"x_min":93,"x_max":1296,"o":"m 697 1128 l 839 892 l 615 892 l 474 1128 l 697 1128 m 106 826 l 1285 826 l 1285 632 l 106 632 l 106 826 m 229 369 l 349 369 l 349 517 l 553 517 l 553 313 l 433 313 l 433 19 l 297 19 l 297 -119 l 93 -119 l 93 83 l 229 83 l 229 369 m 821 513 l 1038 513 l 1296 -119 l 1081 -119 l 821 513 z "},"兮":{"ha":1389,"x_min":86,"x_max":1299,"o":"m 443 842 l 290 842 l 290 756 l 86 756 l 86 960 l 239 960 l 239 1046 l 397 1046 l 397 1117 l 601 1117 l 601 913 l 443 913 l 443 842 m 1143 1046 l 1143 960 l 1299 960 l 1299 756 l 1094 756 l 1094 842 l 939 842 l 939 913 l 785 913 l 785 1117 l 989 1117 l 989 1046 l 1143 1046 m 251 531 l 151 531 l 151 721 l 1249 721 l 1249 531 l 461 531 l 425 429 l 1249 429 l 1197 -19 l 1097 -19 l 1097 -115 l 411 -115 l 411 68 l 1010 68 l 1032 235 l 138 235 l 251 531 z "},"兰":{"ha":1389,"x_min":110,"x_max":1279,"o":"m 1100 935 l 1254 935 l 1254 746 l 135 746 l 135 935 l 342 935 l 240 1128 l 464 1128 l 565 935 l 883 935 l 968 1128 l 1175 1128 l 1100 935 m 1082 436 l 1082 342 l 217 342 l 217 536 l 1172 536 l 1172 436 l 1082 436 m 110 -119 l 110 68 l 1279 68 l 1279 -119 l 110 -119 z "},"共":{"ha":1389,"x_min":104,"x_max":1285,"o":"m 1136 758 l 1136 444 l 1285 444 l 1285 251 l 104 251 l 104 444 l 258 444 l 258 758 l 124 758 l 124 953 l 258 953 l 258 1124 l 451 1124 l 451 953 l 944 953 l 944 1124 l 1136 1124 l 1136 953 l 1258 953 l 1258 758 l 1136 758 m 944 758 l 451 758 l 451 444 l 944 444 l 944 758 m 575 13 l 124 -137 l 124 67 l 575 224 l 575 13 m 999 139 l 1129 139 l 1129 71 l 1263 71 l 1263 -119 l 1072 -119 l 1072 -51 l 939 -51 l 939 25 l 808 25 l 808 215 l 999 215 l 999 139 z "},"关":{"ha":1389,"x_min":104,"x_max":1278,"o":"m 1113 194 l 1113 88 l 1278 88 l 1278 -117 l 1074 -117 l 1074 -10 l 908 -10 l 908 83 l 732 83 l 732 126 l 104 -140 l 104 94 l 599 297 l 599 403 l 115 403 l 115 597 l 599 597 l 599 826 l 128 826 l 128 1021 l 290 1021 l 232 1124 l 451 1124 l 507 1021 l 888 1021 l 950 1124 l 1164 1124 l 1101 1021 l 1256 1021 l 1256 826 l 789 826 l 789 597 l 1272 597 l 1272 499 l 1174 499 l 1174 403 l 789 403 l 789 288 l 936 288 l 936 194 l 1113 194 z "},"兴":{"ha":1389,"x_min":125,"x_max":1260,"o":"m 708 1092 l 833 671 l 632 671 l 508 1092 l 708 1092 m 281 785 l 222 785 l 222 899 l 143 899 l 143 1078 l 324 1078 l 324 965 l 403 965 l 403 836 l 461 836 l 461 656 l 281 656 l 281 785 m 1051 1078 l 1249 1078 l 1092 656 l 893 656 l 1051 1078 m 135 579 l 1254 579 l 1254 396 l 135 396 l 135 579 m 1176 207 l 1176 96 l 1260 96 l 1260 -93 l 1071 -93 l 1071 17 l 986 17 l 986 124 l 889 124 l 889 314 l 1078 314 l 1078 207 l 1176 207 m 326 -92 l 125 -92 l 297 311 l 500 311 l 326 -92 z "},"兵":{"ha":1389,"x_min":106,"x_max":1292,"o":"m 1144 576 l 1144 413 l 1292 413 l 1292 218 l 108 218 l 108 413 l 190 413 l 190 1072 l 1244 1100 l 1244 908 l 382 879 l 382 771 l 1279 771 l 1279 576 l 1144 576 m 954 576 l 382 576 l 382 413 l 954 413 l 954 576 m 564 0 l 106 -142 l 106 63 l 564 207 l 564 0 m 1022 82 l 1285 82 l 1285 -117 l 926 -117 l 926 -6 l 822 -6 l 822 194 l 1022 194 l 1022 82 z "},"其":{"ha":1389,"x_min":104,"x_max":1285,"o":"m 1285 1054 l 1285 875 l 1208 875 l 1208 360 l 1285 360 l 1285 181 l 104 181 l 104 360 l 176 360 l 176 875 l 104 875 l 104 1054 l 176 1054 l 176 1122 l 368 1122 l 368 1054 l 1015 1054 l 1015 1122 l 1208 1122 l 1208 1054 l 1285 1054 m 368 818 l 1015 818 l 1015 875 l 368 875 l 368 818 m 368 589 l 1015 589 l 1015 646 l 368 646 l 368 589 m 368 417 l 368 360 l 1015 360 l 1015 417 l 368 417 m 556 -37 l 124 -128 l 124 64 l 556 157 l 556 -37 m 1017 82 l 1268 82 l 1268 -122 l 932 -122 l 932 -57 l 813 -57 l 813 147 l 1017 147 l 1017 82 z "},"具":{"ha":1389,"x_min":89,"x_max":1300,"o":"m 1229 1018 l 1229 301 l 1300 301 l 1300 140 l 89 140 l 89 301 l 160 301 l 160 1100 l 1129 1100 l 1129 1018 l 1229 1018 m 1039 893 l 1039 947 l 350 947 l 350 893 l 1039 893 m 350 696 l 1039 696 l 1039 750 l 350 750 l 350 696 m 1039 497 l 1039 553 l 350 553 l 350 497 l 1039 497 m 1039 356 l 350 356 l 350 301 l 1039 301 l 1039 356 m 571 -54 l 115 -136 l 115 39 l 571 128 l 571 -54 m 1003 60 l 1271 60 l 1271 -137 l 928 -137 l 928 -81 l 806 -81 l 806 117 l 1003 117 l 1003 60 z "},"典":{"ha":1389,"x_min":93,"x_max":1304,"o":"m 1244 968 l 1244 338 l 1304 338 l 1304 149 l 93 149 l 93 338 l 151 338 l 151 1060 l 451 1060 l 451 1122 l 638 1122 l 638 1060 l 751 1060 l 751 1122 l 939 1122 l 939 1060 l 1147 1060 l 1147 968 l 1244 968 m 451 707 l 451 872 l 338 872 l 338 707 l 451 707 m 751 707 l 751 872 l 638 872 l 638 707 l 751 707 m 939 707 l 1056 707 l 1056 872 l 939 872 l 939 707 m 451 519 l 338 519 l 338 338 l 451 338 l 451 519 m 638 338 l 751 338 l 751 519 l 638 519 l 638 338 m 1056 519 l 939 519 l 939 338 l 1056 338 l 1056 519 m 600 -44 l 131 -128 l 131 56 l 600 138 l 600 -44 m 968 67 l 1260 67 l 1260 -122 l 925 -122 l 925 -65 l 779 -65 l 779 124 l 968 124 l 968 67 z "},"兹":{"ha":1389,"x_min":85,"x_max":1296,"o":"m 1104 1043 l 1283 1043 l 1283 850 l 110 850 l 110 1043 l 318 1043 l 271 1122 l 490 1122 l 538 1043 l 886 1043 l 935 1122 l 1151 1122 l 1104 1043 m 513 67 l 493 217 l 667 217 l 711 -119 l 85 -119 l 322 325 l 117 325 l 117 664 l 229 664 l 229 800 l 433 800 l 433 596 l 321 596 l 321 515 l 424 515 l 508 675 l 722 675 l 388 67 l 513 67 m 1240 68 l 1296 68 l 1296 -119 l 732 -119 l 732 194 l 842 194 l 842 325 l 632 325 l 832 797 l 1032 797 l 904 515 l 1040 515 l 1040 671 l 1228 671 l 1228 482 l 1129 482 l 1129 326 l 1031 326 l 1031 147 l 921 147 l 921 68 l 1069 68 l 1069 213 l 1240 213 l 1240 68 z "},"养":{"ha":1389,"x_min":75,"x_max":1340,"o":"m 496 382 l 318 222 l 75 222 l 242 382 l 100 382 l 100 569 l 432 569 l 453 624 l 125 624 l 125 813 l 525 813 l 547 869 l 111 869 l 111 1057 l 299 1057 l 264 1122 l 481 1122 l 515 1057 l 893 1057 l 935 1122 l 1151 1122 l 1110 1057 l 1281 1057 l 1281 869 l 751 869 l 731 813 l 1265 813 l 1265 717 l 1169 717 l 1169 624 l 664 624 l 646 569 l 1290 569 l 1290 382 l 1168 382 l 1340 222 l 1083 222 l 918 382 l 496 382 m 165 74 l 265 74 l 265 190 l 458 190 l 458 -3 l 358 -3 l 358 -119 l 165 -119 l 165 74 m 1163 -119 l 969 -119 l 969 188 l 1163 188 l 1163 -119 z "},"兼":{"ha":1389,"x_min":94,"x_max":1314,"o":"m 1240 733 l 1240 575 l 1314 575 l 1314 401 l 1240 401 l 1240 151 l 942 151 l 942 -121 l 750 -121 l 750 151 l 613 151 l 613 -121 l 419 -121 l 419 151 l 161 151 l 161 325 l 419 325 l 419 401 l 104 401 l 104 575 l 419 575 l 419 653 l 161 653 l 161 824 l 419 824 l 419 881 l 104 881 l 104 1065 l 286 1065 l 249 1140 l 464 1140 l 501 1065 l 899 1065 l 950 1140 l 1164 1140 l 1119 1065 l 1285 1065 l 1285 881 l 942 881 l 942 824 l 1144 824 l 1144 733 l 1240 733 m 750 881 l 613 881 l 613 824 l 750 824 l 750 881 m 750 653 l 613 653 l 613 575 l 750 575 l 750 653 m 1054 575 l 1054 653 l 942 653 l 942 575 l 1054 575 m 613 401 l 613 325 l 750 325 l 750 401 l 613 401 m 942 401 l 942 325 l 1054 325 l 1054 401 l 942 401 m 290 -115 l 94 -115 l 218 108 l 407 108 l 290 -115 m 982 103 l 1147 103 l 1147 46 l 1261 46 l 1261 -119 l 1096 -119 l 1096 -62 l 982 -62 l 982 103 z "},"兽":{"ha":1389,"x_min":103,"x_max":1286,"o":"m 1268 574 l 1174 574 l 1174 488 l 121 488 l 121 1042 l 289 1042 l 240 1122 l 467 1122 l 515 1042 l 900 1042 l 950 1122 l 1168 1122 l 1119 1042 l 1268 1042 l 1268 574 m 314 829 l 600 829 l 600 886 l 314 886 l 314 829 m 1075 886 l 789 886 l 789 829 l 1075 829 l 1075 886 m 600 701 l 314 701 l 314 644 l 600 644 l 600 701 m 789 701 l 789 644 l 1075 644 l 1075 701 l 789 701 m 103 286 l 103 442 l 1286 442 l 1286 286 l 103 286 m 1144 -115 l 140 -115 l 140 243 l 1243 243 l 1243 -21 l 1144 -21 l 1144 -115 m 1051 86 l 326 86 l 326 40 l 1051 40 l 1051 86 z "},"冀":{"ha":1389,"x_min":110,"x_max":1313,"o":"m 1146 969 l 1313 969 l 1265 813 l 736 813 l 736 1122 l 928 1122 l 928 1099 l 1136 1099 l 1136 1133 l 1264 1133 l 1264 1006 l 1140 1006 l 1140 971 l 928 971 l 928 926 l 1125 926 l 1146 969 m 364 807 l 121 807 l 121 933 l 357 933 l 357 963 l 461 963 l 461 982 l 121 982 l 121 1088 l 461 1088 l 461 1122 l 654 1122 l 654 813 l 461 813 l 461 836 l 364 836 l 364 807 m 125 388 l 125 769 l 1176 769 l 1176 696 l 1265 696 l 1265 388 l 125 388 m 601 618 l 601 663 l 318 663 l 318 618 l 601 618 m 793 618 l 1072 618 l 1072 663 l 793 663 l 793 618 m 601 539 l 318 539 l 318 496 l 601 496 l 601 539 m 793 539 l 793 496 l 1072 496 l 1072 539 l 793 539 m 1239 221 l 1063 221 l 1063 175 l 1275 175 l 1275 67 l 110 67 l 110 175 l 333 175 l 333 221 l 151 221 l 151 325 l 333 325 l 333 360 l 525 360 l 525 325 l 871 325 l 871 360 l 1063 360 l 1063 325 l 1239 325 l 1239 221 m 871 221 l 525 221 l 525 175 l 871 175 l 871 221 m 975 13 l 1263 13 l 1263 -140 l 960 -140 l 960 -104 l 822 -104 l 822 49 l 975 49 l 975 13 m 560 -92 l 121 -137 l 121 1 l 560 43 l 560 -92 z "},"冁":{"ha":1389,"x_min":90,"x_max":1293,"o":"m 614 215 l 614 61 l 426 61 l 426 -119 l 282 -119 l 282 61 l 90 61 l 90 215 l 283 215 l 283 314 l 103 314 l 103 1021 l 165 1021 l 119 1122 l 279 1122 l 326 1021 l 399 1021 l 454 1122 l 614 1122 l 564 1021 l 610 1021 l 610 386 l 533 386 l 533 314 l 425 314 l 425 215 l 614 215 m 1229 71 l 1229 33 l 1293 33 l 1293 -122 l 1138 -122 l 1138 -7 l 1074 -7 l 1074 117 l 1025 117 l 1025 257 l 990 257 l 990 58 l 1053 71 l 1053 -76 l 806 -125 l 806 21 l 839 28 l 839 257 l 792 257 l 792 -56 l 736 -56 l 736 -122 l 588 -122 l 588 26 l 651 26 l 651 1089 l 1192 1089 l 1192 1015 l 1276 1015 l 1276 725 l 1206 725 l 1206 644 l 1276 644 l 1276 486 l 1206 486 l 1206 411 l 1282 411 l 1282 257 l 1181 257 l 1181 226 l 1288 226 l 1288 71 l 1229 71 m 1126 935 l 792 935 l 792 878 l 1126 878 l 1126 935 m 285 872 l 236 872 l 236 753 l 285 753 l 285 872 m 475 872 l 424 872 l 424 753 l 475 753 l 475 872 m 851 644 l 851 725 l 792 725 l 792 644 l 851 644 m 1006 644 l 1053 644 l 1053 725 l 1006 725 l 1006 644 m 283 599 l 236 599 l 236 474 l 283 474 l 283 599 m 425 599 l 425 474 l 475 474 l 475 599 l 425 599 m 851 486 l 792 486 l 792 411 l 851 411 l 851 486 m 1006 411 l 1053 411 l 1053 486 l 1006 486 l 1006 411 z "},"内":{"ha":1389,"x_min":115,"x_max":1275,"o":"m 788 1122 l 788 1003 l 1275 1003 l 1275 -18 l 1174 -18 l 1174 -119 l 911 -119 l 911 68 l 1082 68 l 1082 815 l 788 815 l 788 582 l 899 582 l 899 475 l 969 475 l 969 364 l 1046 364 l 1046 174 l 856 174 l 856 285 l 779 285 l 779 392 l 708 392 l 708 467 l 344 169 l 344 419 l 597 629 l 597 815 l 307 815 l 307 -119 l 115 -119 l 115 1003 l 597 1003 l 597 1122 l 788 1122 z "},"冈":{"ha":1389,"x_min":131,"x_max":1258,"o":"m 131 -119 l 131 1100 l 1258 1100 l 1258 -36 l 1169 -36 l 1169 -119 l 865 -119 l 865 69 l 1067 69 l 1067 907 l 322 907 l 322 -119 l 131 -119 m 1019 322 l 1019 136 l 833 136 l 833 243 l 732 243 l 732 353 l 728 353 l 594 135 l 351 135 l 594 517 l 496 517 l 496 642 l 403 642 l 403 828 l 589 828 l 589 703 l 682 703 l 682 656 l 789 824 l 1015 824 l 810 488 l 810 429 l 918 429 l 918 322 l 1019 322 z "},"冉":{"ha":1389,"x_min":89,"x_max":1300,"o":"m 1249 349 l 1300 349 l 1300 154 l 1249 154 l 1249 -24 l 1154 -24 l 1154 -119 l 933 -119 l 933 68 l 1056 68 l 1056 154 l 338 154 l 338 -119 l 146 -119 l 146 154 l 89 154 l 89 349 l 146 349 l 146 1026 l 600 1026 l 600 1122 l 789 1122 l 789 1026 l 1249 1026 l 1249 349 m 600 686 l 600 832 l 338 832 l 338 686 l 600 686 m 1056 686 l 1056 832 l 789 832 l 789 686 l 1056 686 m 600 493 l 338 493 l 338 349 l 600 349 l 600 493 m 789 493 l 789 349 l 1056 349 l 1056 493 l 789 493 z "},"册":{"ha":1389,"x_min":63,"x_max":1294,"o":"m 1243 628 l 1294 628 l 1294 444 l 1243 444 l 1243 -32 l 1151 -32 l 1151 -119 l 972 -119 l 972 61 l 1053 61 l 1053 444 l 925 444 l 925 -22 l 857 -22 l 857 -119 l 667 -119 l 667 71 l 733 71 l 733 444 l 633 444 l 633 -119 l 371 -119 l 371 61 l 444 61 l 444 444 l 328 444 l 328 -22 l 253 -22 l 253 -119 l 63 -119 l 63 71 l 135 71 l 135 444 l 78 444 l 78 628 l 135 628 l 135 1106 l 633 1106 l 633 628 l 733 628 l 733 1106 l 1243 1106 l 1243 628 m 328 913 l 328 628 l 444 628 l 444 913 l 328 913 m 925 913 l 925 628 l 1053 628 l 1053 913 l 925 913 z "},"再":{"ha":1389,"x_min":89,"x_max":1300,"o":"m 1243 307 l 1300 307 l 1300 121 l 1243 121 l 1243 -36 l 1154 -36 l 1154 -119 l 906 -119 l 906 61 l 1051 61 l 1051 121 l 338 121 l 338 -119 l 146 -119 l 146 121 l 89 121 l 89 307 l 146 307 l 146 831 l 597 831 l 597 907 l 118 907 l 118 1100 l 1275 1100 l 1275 907 l 788 907 l 788 831 l 1243 831 l 1243 307 m 597 571 l 597 644 l 338 644 l 338 571 l 597 571 m 1051 571 l 1051 644 l 788 644 l 788 571 l 1051 571 m 597 385 l 338 385 l 338 307 l 597 307 l 597 385 m 788 385 l 788 307 l 1051 307 l 1051 385 l 788 385 z "},"冒":{"ha":1389,"x_min":118,"x_max":1271,"o":"m 219 1003 l 219 1093 l 1271 1093 l 1271 590 l 1078 590 l 1078 929 l 311 929 l 311 590 l 118 590 l 118 1003 l 219 1003 m 367 883 l 1022 883 l 1022 764 l 367 764 l 367 883 m 1022 600 l 367 600 l 367 719 l 1022 719 l 1022 600 m 1146 -112 l 160 -112 l 160 553 l 1243 553 l 1243 -22 l 1146 -22 l 1146 -112 m 1051 369 l 1051 414 l 350 414 l 350 369 l 1051 369 m 350 244 l 350 197 l 1051 197 l 1051 244 l 350 244 m 350 72 l 350 26 l 1051 26 l 1051 72 l 350 72 z "},"冕":{"ha":1389,"x_min":69,"x_max":1328,"o":"m 1063 958 l 325 958 l 325 671 l 135 671 l 135 1093 l 1160 1093 l 1160 1017 l 1256 1017 l 1256 671 l 1063 671 l 1063 958 m 381 917 l 1010 917 l 1010 818 l 381 818 l 381 917 m 1010 679 l 381 679 l 381 776 l 1010 776 l 1010 679 m 1163 113 l 1328 113 l 1328 -51 l 1246 -51 l 1246 -119 l 681 -119 l 681 133 l 643 133 l 643 3 l 511 3 l 511 -71 l 425 -71 l 425 -119 l 124 -119 l 124 46 l 346 46 l 346 93 l 479 93 l 479 133 l 140 133 l 140 368 l 69 368 l 69 543 l 171 543 l 171 654 l 347 654 l 347 625 l 1228 625 l 1172 454 l 1258 454 l 1258 133 l 874 133 l 874 58 l 1163 58 l 1163 113 m 968 454 l 989 506 l 347 506 l 347 479 l 244 479 l 244 454 l 968 454 m 604 324 l 332 324 l 332 263 l 604 263 l 604 324 m 794 263 l 1068 263 l 1068 324 l 794 324 l 794 263 z "},"冗":{"ha":1389,"x_min":92,"x_max":1333,"o":"m 1067 907 l 328 907 l 328 793 l 135 793 l 135 1100 l 1158 1100 l 1158 1003 l 1260 1003 l 1260 793 l 1067 793 l 1067 907 m 1146 158 l 1333 158 l 1333 -31 l 1247 -31 l 1247 -119 l 918 -119 l 918 531 l 446 531 l 446 117 l 374 117 l 374 -1 l 283 -1 l 283 -122 l 92 -122 l 92 69 l 182 69 l 182 190 l 254 190 l 254 725 l 1110 725 l 1110 69 l 1146 69 l 1146 158 z "},"写":{"ha":1389,"x_min":135,"x_max":1257,"o":"m 1065 907 l 329 907 l 329 847 l 146 847 l 146 1086 l 1249 1086 l 1249 833 l 1065 833 l 1065 907 m 392 590 l 383 540 l 1257 540 l 1215 -19 l 1124 -19 l 1124 -106 l 547 -106 l 547 72 l 1028 72 l 1053 357 l 167 357 l 240 818 l 433 818 l 425 774 l 1219 774 l 1219 675 l 1131 675 l 1131 590 l 392 590 m 135 307 l 1001 307 l 1001 124 l 135 124 l 135 307 z "},"军":{"ha":1389,"x_min":115,"x_max":1275,"o":"m 1168 1100 l 1168 1013 l 1275 1013 l 1275 815 l 1082 815 l 1082 907 l 311 907 l 311 815 l 119 815 l 119 1100 l 1168 1100 m 1208 239 l 790 239 l 790 161 l 1275 161 l 1275 63 l 1182 63 l 1182 -32 l 790 -32 l 790 -131 l 600 -131 l 600 -32 l 115 -32 l 115 161 l 600 161 l 600 239 l 138 239 l 138 536 l 249 536 l 249 583 l 128 583 l 128 778 l 363 778 l 363 860 l 550 860 l 550 778 l 1229 778 l 1229 583 l 436 583 l 436 482 l 325 482 l 325 432 l 600 432 l 600 540 l 790 540 l 790 432 l 1208 432 l 1208 239 z "},"农":{"ha":1389,"x_min":97,"x_max":1314,"o":"m 411 464 l 436 464 l 436 124 l 850 224 l 850 26 l 151 -131 l 151 56 l 244 78 l 244 354 l 97 354 l 97 543 l 222 543 l 222 613 l 336 613 l 336 708 l 439 708 l 439 817 l 550 817 l 550 867 l 303 867 l 303 707 l 114 707 l 114 1060 l 581 1060 l 581 1122 l 772 1122 l 772 1060 l 1185 1060 l 1185 957 l 1278 957 l 1278 707 l 1086 707 l 1086 867 l 738 867 l 738 746 l 626 746 l 626 629 l 525 629 l 525 521 l 411 521 l 411 464 m 1186 351 l 1061 351 l 1314 -100 l 1081 -100 l 644 683 l 875 683 l 999 463 l 999 539 l 1083 539 l 1083 643 l 1271 643 l 1271 456 l 1186 456 l 1186 351 z "},"冠":{"ha":1389,"x_min":64,"x_max":1279,"o":"m 1079 918 l 313 918 l 313 839 l 121 839 l 121 1100 l 1176 1100 l 1176 1018 l 1272 1018 l 1272 839 l 1079 839 l 1079 918 m 1183 164 l 1279 164 l 1279 -15 l 1178 -15 l 1178 -115 l 418 -115 l 418 332 l 367 332 l 367 178 l 311 178 l 311 22 l 239 22 l 239 -119 l 64 -119 l 64 56 l 136 56 l 136 197 l 192 197 l 192 332 l 121 332 l 121 525 l 689 525 l 689 332 l 606 332 l 606 64 l 1100 64 l 1100 138 l 900 138 l 900 243 l 793 243 l 793 322 l 724 322 l 724 478 l 879 478 l 879 397 l 947 397 l 947 332 l 992 332 l 992 543 l 708 543 l 708 728 l 992 728 l 992 799 l 1183 799 l 1183 728 l 1276 728 l 1276 543 l 1183 543 l 1183 164 m 644 606 l 147 606 l 147 788 l 644 788 l 644 606 z "},"冤":{"ha":1389,"x_min":64,"x_max":1322,"o":"m 1124 47 l 1139 107 l 1322 107 l 1264 -119 l 658 -119 l 658 110 l 564 110 l 564 -6 l 425 -6 l 425 -119 l 117 -119 l 117 71 l 374 71 l 374 185 l 513 185 l 513 224 l 140 224 l 140 538 l 64 538 l 64 721 l 157 721 l 157 793 l 250 793 l 250 861 l 125 861 l 125 1100 l 1269 1100 l 1269 867 l 1076 867 l 1076 924 l 315 924 l 315 885 l 433 885 l 433 839 l 1224 839 l 1136 615 l 1249 615 l 1249 224 l 701 224 l 701 172 l 849 172 l 849 47 l 1124 47 m 340 615 l 921 615 l 950 674 l 340 674 l 340 615 m 596 454 l 332 454 l 332 392 l 596 392 l 596 454 m 786 392 l 1056 392 l 1056 454 l 786 454 l 786 392 m 1069 204 l 1069 71 l 935 71 l 935 204 l 1069 204 z "},"冥":{"ha":1389,"x_min":110,"x_max":1279,"o":"m 1082 926 l 307 926 l 307 896 l 115 896 l 115 1096 l 1275 1096 l 1275 896 l 1082 896 l 1082 926 m 146 364 l 146 864 l 1154 864 l 1154 794 l 1249 794 l 1249 364 l 146 364 m 1056 679 l 1056 726 l 338 726 l 338 679 l 1056 679 m 338 549 l 338 503 l 1056 503 l 1056 549 l 338 549 m 785 335 l 814 278 l 1279 278 l 1279 101 l 110 101 l 110 278 l 582 278 l 561 335 l 785 335 m 601 -79 l 118 -142 l 118 22 l 601 79 l 601 -79 m 953 38 l 1269 38 l 1269 -118 l 935 -118 l 935 -86 l 782 -86 l 782 69 l 953 69 l 953 38 z "},"冬":{"ha":1389,"x_min":117,"x_max":1269,"o":"m 1124 561 l 1124 458 l 1269 458 l 1269 268 l 1079 268 l 1079 372 l 933 372 l 933 435 l 764 435 l 764 549 l 754 549 l 129 260 l 129 471 l 546 653 l 429 653 l 429 843 l 618 843 l 618 738 l 739 738 l 1025 863 l 1025 878 l 376 878 l 376 783 l 307 783 l 307 635 l 117 635 l 117 824 l 188 824 l 188 972 l 279 972 l 279 1122 l 468 1122 l 468 1065 l 1226 1065 l 1226 767 l 917 624 l 954 624 l 954 561 l 1124 561 m 501 429 l 960 351 l 960 149 l 501 219 l 501 429 m 1193 92 l 1193 -119 l 569 -119 l 569 -53 l 206 -53 l 206 158 l 610 158 l 610 92 l 1193 92 z "},"冯":{"ha":1389,"x_min":64,"x_max":1307,"o":"m 1261 1096 l 1204 600 l 1307 600 l 1269 -25 l 1171 -25 l 1171 -119 l 692 -119 l 692 69 l 1074 69 l 1100 411 l 446 411 l 499 847 l 689 847 l 658 600 l 1008 600 l 1043 907 l 435 907 l 435 1096 l 1261 1096 m 193 663 l 82 1090 l 286 1090 l 397 663 l 193 663 m 201 604 l 392 604 l 392 158 l 324 158 l 324 33 l 253 33 l 253 -89 l 64 -89 l 64 101 l 133 101 l 133 224 l 201 224 l 201 604 m 1036 235 l 946 235 l 946 146 l 419 146 l 419 335 l 1036 335 l 1036 235 z "},"冰":{"ha":1389,"x_min":72,"x_max":1324,"o":"m 1251 200 l 1251 72 l 1324 72 l 1324 -121 l 1131 -121 l 1131 7 l 1058 7 l 1058 115 l 982 115 l 982 450 l 944 450 l 944 -119 l 628 -119 l 628 74 l 749 74 l 749 1122 l 944 1122 l 944 643 l 1051 643 l 1107 1026 l 1292 1026 l 1225 542 l 1092 542 l 1092 485 l 1175 485 l 1175 200 l 1251 200 m 276 1083 l 379 650 l 174 650 l 78 1083 l 276 1083 m 360 975 l 692 975 l 692 824 l 542 -119 l 350 -119 l 501 782 l 360 782 l 360 975 m 371 174 l 326 174 l 326 36 l 264 36 l 264 -99 l 72 -99 l 72 94 l 133 94 l 133 229 l 178 229 l 178 540 l 371 540 l 371 174 z "},"冲":{"ha":1389,"x_min":65,"x_max":1253,"o":"m 946 1106 l 946 956 l 1253 956 l 1253 183 l 1150 183 l 1150 83 l 946 83 l 946 -117 l 754 -117 l 754 83 l 449 83 l 449 956 l 754 956 l 754 1106 l 946 1106 m 194 663 l 83 1089 l 288 1089 l 399 663 l 194 663 m 640 764 l 640 274 l 754 274 l 754 764 l 640 764 m 946 274 l 1067 274 l 1067 764 l 946 764 l 946 274 m 203 604 l 393 604 l 393 128 l 325 128 l 325 22 l 254 22 l 254 -78 l 65 -78 l 65 113 l 135 113 l 135 211 l 203 211 l 203 604 z "},"决":{"ha":1389,"x_min":50,"x_max":1326,"o":"m 1326 513 l 1326 319 l 924 319 l 883 268 l 1029 268 l 1029 168 l 1161 168 l 1161 75 l 1303 75 l 1303 -119 l 1108 -119 l 1108 -26 l 967 -26 l 967 74 l 835 74 l 835 207 l 579 -119 l 344 -119 l 686 319 l 428 319 l 428 513 l 706 513 l 706 850 l 478 850 l 478 1038 l 706 1038 l 706 1122 l 896 1122 l 896 1038 l 1246 1038 l 1246 513 l 1326 513 m 246 1083 l 396 683 l 192 683 l 50 1083 l 246 1083 m 1054 850 l 896 850 l 896 513 l 1054 513 l 1054 850 m 392 128 l 322 128 l 322 22 l 253 22 l 253 -78 l 64 -78 l 64 113 l 133 113 l 133 211 l 201 211 l 201 603 l 392 603 l 392 128 z "},"况":{"ha":1389,"x_min":50,"x_max":1308,"o":"m 1131 69 l 1153 208 l 1308 208 l 1267 -119 l 908 -119 l 908 354 l 790 354 l 790 188 l 704 188 l 704 29 l 608 29 l 608 -118 l 418 -118 l 418 72 l 514 72 l 514 219 l 600 219 l 600 354 l 457 354 l 457 1100 l 1257 1100 l 1257 354 l 1100 354 l 1100 69 l 1131 69 m 192 685 l 50 1083 l 246 1083 l 396 685 l 192 685 m 1064 907 l 650 907 l 650 549 l 1064 549 l 1064 907 m 203 604 l 392 604 l 392 129 l 324 129 l 324 22 l 253 22 l 253 -76 l 64 -76 l 64 113 l 133 113 l 133 211 l 203 211 l 203 604 z "},"冶":{"ha":1389,"x_min":51,"x_max":1285,"o":"m 1210 989 l 1210 825 l 1285 825 l 1285 636 l 446 636 l 446 965 l 599 965 l 599 1121 l 788 1121 l 788 932 l 636 932 l 636 825 l 1019 825 l 1019 989 l 1210 989 m 193 683 l 51 1083 l 247 1083 l 397 683 l 193 683 m 203 604 l 393 604 l 393 128 l 324 128 l 324 22 l 254 22 l 254 -78 l 64 -78 l 64 113 l 135 113 l 135 211 l 203 211 l 203 604 m 1176 -119 l 463 -119 l 463 561 l 1276 561 l 1276 -21 l 1176 -21 l 1176 -119 m 1089 368 l 649 368 l 649 68 l 1089 68 l 1089 368 z "},"冷":{"ha":1389,"x_min":54,"x_max":1290,"o":"m 1157 1025 l 1157 913 l 1290 913 l 1290 719 l 1099 719 l 1099 832 l 964 832 l 964 931 l 744 931 l 744 832 l 626 832 l 626 719 l 433 719 l 433 913 l 551 913 l 551 1025 l 672 1025 l 672 1124 l 1044 1124 l 1044 1025 l 1157 1025 m 192 689 l 64 1049 l 267 1049 l 399 689 l 192 689 m 701 808 l 908 808 l 1042 582 l 828 582 l 701 808 m 1028 343 l 451 343 l 451 536 l 1286 536 l 1286 369 l 1078 93 l 1246 71 l 1246 -117 l 471 -25 l 471 175 l 861 122 l 1028 343 m 175 535 l 368 535 l 368 182 l 304 182 l 304 57 l 247 57 l 247 -65 l 54 -65 l 54 126 l 111 126 l 111 250 l 175 250 l 175 535 z "},"冻":{"ha":1389,"x_min":64,"x_max":1292,"o":"m 844 1133 l 822 1054 l 1292 1054 l 1292 860 l 767 860 l 683 564 l 797 564 l 797 775 l 989 775 l 989 564 l 1269 564 l 1269 369 l 950 369 l 950 -119 l 668 -119 l 668 68 l 760 68 l 760 369 l 419 369 l 561 860 l 401 860 l 401 1054 l 618 1054 l 640 1133 l 844 1133 m 288 1089 l 397 661 l 193 661 l 83 1089 l 288 1089 m 392 128 l 324 128 l 324 17 l 253 17 l 253 -78 l 64 -78 l 64 111 l 133 111 l 133 207 l 203 207 l 203 603 l 392 603 l 392 128 m 1025 311 l 1206 311 l 1206 201 l 1292 201 l 1292 -87 l 1111 -87 l 1111 131 l 1025 131 l 1025 311 m 354 -78 l 493 308 l 694 308 l 567 -78 l 354 -78 z "},"冼":{"ha":1389,"x_min":63,"x_max":1332,"o":"m 1144 68 l 1169 219 l 1332 219 l 1286 -119 l 926 -119 l 926 406 l 801 406 l 801 271 l 738 271 l 738 128 l 676 128 l 676 -3 l 590 -3 l 590 -119 l 414 -119 l 414 56 l 500 56 l 500 172 l 561 172 l 561 304 l 626 304 l 626 406 l 440 406 l 440 599 l 783 599 l 783 817 l 647 817 l 639 678 l 444 678 l 475 1094 l 665 1094 l 660 1010 l 783 1010 l 783 1122 l 976 1122 l 976 1010 l 1272 1010 l 1272 817 l 976 817 l 976 599 l 1290 599 l 1290 406 l 1117 406 l 1117 68 l 1144 68 m 192 683 l 93 1083 l 293 1083 l 396 683 l 192 683 m 201 603 l 392 603 l 392 128 l 322 128 l 322 22 l 253 22 l 253 -78 l 63 -78 l 63 113 l 133 113 l 133 211 l 201 211 l 201 603 z "},"冽":{"ha":1389,"x_min":72,"x_max":1276,"o":"m 1090 74 l 1090 1122 l 1276 1122 l 1276 -22 l 1182 -22 l 1182 -119 l 938 -119 l 938 74 l 1090 74 m 461 915 l 354 915 l 354 1103 l 836 1103 l 836 915 l 644 915 l 629 839 l 821 839 l 821 386 l 749 386 l 749 219 l 683 219 l 683 40 l 599 40 l 599 -118 l 406 -118 l 406 75 l 490 75 l 490 233 l 556 233 l 556 269 l 413 269 l 413 447 l 590 447 l 590 413 l 628 413 l 628 644 l 589 644 l 561 507 l 376 507 l 461 915 m 174 658 l 86 1100 l 276 1100 l 374 658 l 174 658 m 868 1054 l 1049 1054 l 1049 138 l 868 138 l 868 1054 m 165 557 l 357 557 l 357 182 l 313 182 l 313 31 l 265 31 l 265 -121 l 72 -121 l 72 72 l 119 72 l 119 224 l 165 224 l 165 557 z "},"净":{"ha":1389,"x_min":63,"x_max":1331,"o":"m 1271 579 l 1331 579 l 1331 385 l 1271 385 l 1271 138 l 940 138 l 940 -29 l 846 -29 l 846 -119 l 557 -119 l 557 68 l 760 68 l 760 138 l 439 138 l 439 317 l 760 317 l 760 385 l 394 385 l 394 579 l 760 579 l 760 647 l 443 647 l 443 729 l 381 729 l 381 918 l 456 918 l 456 1014 l 531 1014 l 531 1122 l 721 1122 l 721 1072 l 1271 1072 l 1197 826 l 1271 826 l 1271 579 m 174 675 l 67 1054 l 251 1054 l 374 675 l 174 675 m 644 826 l 1010 826 l 1025 883 l 644 883 l 644 826 m 1088 647 l 940 647 l 940 579 l 1088 579 l 1088 647 m 172 603 l 363 603 l 363 128 l 304 128 l 304 22 l 253 22 l 253 -78 l 63 -78 l 63 113 l 114 113 l 114 211 l 172 211 l 172 603 m 940 385 l 940 317 l 1088 317 l 1088 385 l 940 385 z "},"凄":{"ha":1389,"x_min":28,"x_max":1314,"o":"m 1278 824 l 1278 710 l 1314 710 l 1314 579 l 1278 579 l 1278 403 l 436 403 l 436 533 l 728 533 l 728 579 l 388 579 l 388 710 l 728 710 l 728 756 l 436 756 l 436 886 l 728 886 l 728 940 l 394 940 l 394 1072 l 728 1072 l 728 1122 l 921 1122 l 921 1072 l 1288 1072 l 1288 940 l 921 940 l 921 886 l 1193 886 l 1193 824 l 1278 824 m 182 656 l 68 1072 l 236 1072 l 356 656 l 182 656 m 1086 756 l 921 756 l 921 710 l 1086 710 l 1086 756 m 921 579 l 921 533 l 1086 533 l 1086 579 l 921 579 m 167 567 l 356 567 l 356 92 l 288 92 l 288 -15 l 217 -15 l 217 -114 l 28 -114 l 28 76 l 97 76 l 97 175 l 167 175 l 167 567 m 1253 64 l 1143 40 l 1306 40 l 1306 -125 l 1010 -125 l 1010 -85 l 885 -85 l 885 -15 l 378 -125 l 378 14 l 513 44 l 394 69 l 446 188 l 388 188 l 388 319 l 503 319 l 519 360 l 717 360 l 701 319 l 1293 319 l 1293 188 l 1253 188 l 1253 64 m 1063 167 l 1063 188 l 654 188 l 640 150 l 771 150 l 771 101 l 1063 167 z "},"准":{"ha":1389,"x_min":64,"x_max":1310,"o":"m 1046 226 l 1046 113 l 1310 113 l 1310 11 l 1221 11 l 1221 -78 l 656 -78 l 656 -119 l 463 -119 l 463 644 l 369 644 l 369 833 l 432 833 l 432 986 l 501 986 l 501 1122 l 690 1122 l 690 1011 l 831 1011 l 796 1122 l 1003 1122 l 1040 1011 l 1306 1011 l 1306 818 l 1046 818 l 1046 722 l 1283 722 l 1283 528 l 1046 528 l 1046 419 l 1283 419 l 1283 226 l 1046 226 m 269 1083 l 357 689 l 163 689 l 75 1083 l 269 1083 m 656 722 l 856 722 l 856 818 l 656 818 l 656 722 m 175 603 l 365 603 l 365 128 l 304 128 l 304 22 l 253 22 l 253 -78 l 64 -78 l 64 113 l 114 113 l 114 211 l 175 211 l 175 603 m 656 419 l 856 419 l 856 528 l 656 528 l 656 419 m 856 226 l 656 226 l 656 113 l 856 113 l 856 226 z "},"凉":{"ha":1389,"x_min":64,"x_max":1307,"o":"m 953 1054 l 1306 1054 l 1306 860 l 397 860 l 397 1054 l 736 1054 l 708 1128 l 925 1128 l 953 1054 m 294 1071 l 397 674 l 194 674 l 94 1071 l 294 1071 m 1258 796 l 1258 306 l 969 306 l 969 -119 l 664 -119 l 664 68 l 778 68 l 778 306 l 444 306 l 444 796 l 1258 796 m 386 128 l 307 128 l 307 21 l 253 21 l 253 -78 l 64 -78 l 64 113 l 118 113 l 118 211 l 196 211 l 196 603 l 386 603 l 386 128 m 1065 601 l 635 601 l 635 499 l 1065 499 l 1065 601 m 1214 244 l 1214 97 l 1307 97 l 1307 -92 l 1118 -92 l 1118 56 l 1025 56 l 1025 244 l 1214 244 m 364 -92 l 503 243 l 701 243 l 560 -92 l 364 -92 z "},"凋":{"ha":1389,"x_min":56,"x_max":1283,"o":"m 404 203 l 404 1100 l 1283 1100 l 1283 -32 l 1190 -32 l 1190 -119 l 1054 -119 l 1054 69 l 1099 69 l 1099 924 l 589 924 l 589 175 l 539 -119 l 344 -119 l 404 203 m 296 1075 l 372 667 l 182 667 l 108 1075 l 296 1075 m 1022 654 l 926 654 l 926 608 l 1047 608 l 1047 421 l 628 421 l 628 608 l 751 608 l 751 654 l 651 654 l 651 847 l 751 847 l 751 881 l 926 881 l 926 847 l 1022 847 l 1022 654 m 367 129 l 306 129 l 306 22 l 244 22 l 244 -76 l 56 -76 l 56 113 l 115 113 l 115 211 l 176 211 l 176 604 l 367 604 l 367 129 m 631 371 l 944 371 l 944 288 l 1036 288 l 1036 -46 l 631 -46 l 631 371 m 792 135 l 875 135 l 875 203 l 792 203 l 792 135 z "},"凌":{"ha":1389,"x_min":64,"x_max":1283,"o":"m 938 904 l 938 850 l 1283 850 l 1283 688 l 399 688 l 399 850 l 744 850 l 744 904 l 450 904 l 450 1072 l 744 1072 l 744 1129 l 938 1129 l 938 1072 l 1235 1072 l 1235 904 l 938 904 m 181 690 l 88 1064 l 282 1064 l 383 690 l 181 690 m 399 590 l 772 678 l 772 511 l 399 429 l 399 590 m 1054 622 l 1279 622 l 1279 465 l 1029 465 l 1029 501 l 897 501 l 897 658 l 1054 658 l 1054 622 m 176 604 l 365 604 l 365 129 l 304 129 l 304 22 l 254 22 l 254 -78 l 64 -78 l 64 113 l 115 113 l 115 211 l 176 211 l 176 604 m 1015 76 l 1269 76 l 1269 -114 l 926 -114 l 926 -31 l 792 -31 l 792 -3 l 394 -143 l 394 35 l 631 118 l 631 251 l 819 251 l 819 185 l 1058 268 l 1058 281 l 607 281 l 575 172 l 393 172 l 468 439 l 1235 439 l 1235 154 l 1015 76 z "},"减":{"ha":1389,"x_min":58,"x_max":1329,"o":"m 1329 1011 l 1329 865 l 1183 865 l 1183 965 l 1135 965 l 1135 863 l 1064 863 l 1076 706 l 1113 829 l 1276 829 l 1118 293 l 1172 293 l 1172 157 l 1242 157 l 1242 53 l 1300 53 l 1300 -121 l 1126 -121 l 1126 -18 l 1068 -18 l 1068 119 l 1067 119 l 997 -117 l 833 -117 l 954 292 l 903 863 l 535 863 l 535 154 l 481 -119 l 293 -119 l 353 172 l 353 1051 l 886 1051 l 879 1125 l 1044 1125 l 1050 1051 l 1122 1051 l 1122 1111 l 1267 1111 l 1267 1011 l 1329 1011 m 257 1089 l 322 696 l 143 696 l 79 1089 l 257 1089 m 581 813 l 876 813 l 876 671 l 581 671 l 581 813 m 581 615 l 876 615 l 876 99 l 826 99 l 826 6 l 581 6 l 581 615 m 307 38 l 240 38 l 240 -82 l 58 -82 l 58 100 l 124 100 l 124 581 l 307 581 l 307 38 m 703 165 l 754 165 l 754 456 l 703 456 l 703 165 z "},"凑":{"ha":1389,"x_min":64,"x_max":1308,"o":"m 1308 49 l 1308 -118 l 983 -118 l 983 -76 l 863 -76 l 863 -31 l 388 -137 l 388 21 l 753 100 l 753 121 l 414 121 l 414 274 l 753 274 l 753 319 l 610 319 l 610 403 l 571 338 l 363 338 l 363 128 l 301 128 l 301 22 l 253 22 l 253 -78 l 64 -78 l 64 113 l 111 113 l 111 211 l 172 211 l 172 604 l 363 604 l 363 354 l 471 519 l 393 519 l 393 675 l 568 675 l 583 719 l 422 719 l 422 875 l 642 875 l 658 921 l 403 921 l 403 1078 l 715 1078 l 735 1129 l 931 1129 l 913 1078 l 1275 1078 l 1275 921 l 856 921 l 840 875 l 1256 875 l 1256 796 l 1172 796 l 1172 719 l 785 719 l 768 675 l 1286 675 l 1286 519 l 1160 519 l 1160 490 l 1301 490 l 1301 324 l 1074 324 l 1074 432 l 1044 432 l 1044 319 l 924 319 l 924 274 l 1274 274 l 1274 121 l 924 121 l 924 92 l 1029 92 l 1029 49 l 1308 49 m 281 1063 l 368 690 l 171 690 l 86 1063 l 281 1063 m 993 519 l 681 519 l 649 468 l 993 468 l 993 519 z "},"凛":{"ha":1389,"x_min":64,"x_max":1293,"o":"m 910 1131 l 931 1078 l 1293 1078 l 1293 951 l 382 951 l 382 1078 l 733 1078 l 718 1131 l 910 1131 m 281 1063 l 383 689 l 181 689 l 88 1063 l 281 1063 m 415 431 l 415 922 l 1175 922 l 1175 846 l 1260 846 l 1260 431 l 415 431 m 592 544 l 1083 544 l 1083 815 l 592 815 l 592 544 m 636 790 l 1033 790 l 1033 572 l 636 572 l 636 790 m 783 658 l 886 658 l 886 699 l 783 699 l 783 658 m 365 128 l 304 128 l 304 21 l 253 21 l 253 -78 l 64 -78 l 64 113 l 115 113 l 115 211 l 176 211 l 176 603 l 365 603 l 365 128 m 1254 400 l 1254 282 l 419 282 l 419 400 l 1254 400 m 756 121 l 388 121 l 388 249 l 1288 249 l 1288 121 l 931 121 l 931 -119 l 665 -119 l 665 22 l 756 22 l 756 121 m 1011 96 l 1164 96 l 1164 53 l 1288 53 l 1288 -100 l 1135 -100 l 1135 -57 l 1011 -57 l 1011 96 m 543 -99 l 350 -99 l 449 94 l 640 94 l 543 -99 z "}}}
